<svg width="13" height="14" viewBox="0 0 13 14" fill="none" xmlns="http://www.w3.org/2000/svg">
<path d="M2.44466 0.495117H9.778C9.88149 0.495117 9.98357 0.519012 10.0761 0.564909C10.1687 0.610806 10.2492 0.677445 10.3113 0.759549L12.1113 3.13943V13.0556C12.1113 13.2309 12.0411 13.3991 11.9161 13.5231C11.791 13.647 11.6215 13.7167 11.4447 13.7167H0.777995C0.601184 13.7167 0.431614 13.647 0.30659 13.5231C0.181566 13.3991 0.111328 13.2309 0.111328 13.0556V3.13943L1.91133 0.759549C1.97343 0.677445 2.05395 0.610806 2.14652 0.564909C2.23909 0.519012 2.34116 0.495117 2.44466 0.495117ZM10.778 4.46159H1.44466V12.3945H10.778V4.46159ZM10.4447 3.13943L9.44466 1.81727H2.77799L1.77799 3.13943H10.4447ZM4.11133 5.78375V7.10591C4.11133 7.63189 4.32204 8.13634 4.69711 8.50827C5.07219 8.88019 5.5809 9.08914 6.11133 9.08914C6.64176 9.08914 7.15047 8.88019 7.52554 8.50827C7.90061 8.13634 8.11133 7.63189 8.11133 7.10591V5.78375H9.44466V7.10591C9.44466 7.98255 9.09347 8.82329 8.46835 9.44317C7.84323 10.0631 6.99538 10.4113 6.11133 10.4113C5.22727 10.4113 4.37943 10.0631 3.75431 9.44317C3.12918 8.82329 2.77799 7.98255 2.77799 7.10591V5.78375H4.11133Z" fill="#616161"/>
</svg>
