<svg width="13" height="13" viewBox="0 0 13 13" fill="none" xmlns="http://www.w3.org/2000/svg">
<path d="M5.02134 5.12988C5.6469 6.22886 6.55702 7.13899 7.65601 7.76454L8.24534 6.93921C8.34012 6.8065 8.48024 6.71313 8.63921 6.67677C8.79818 6.6404 8.96497 6.66357 9.10801 6.74188C10.0509 7.25716 11.0921 7.56706 12.1633 7.65121C12.3305 7.66446 12.4866 7.74023 12.6004 7.86342C12.7142 7.98661 12.7774 8.14817 12.7773 8.31588V11.2905C12.7774 11.4556 12.7162 11.6148 12.6056 11.7374C12.495 11.8599 12.3429 11.937 12.1787 11.9539C11.8253 11.9905 11.4693 12.0085 11.1107 12.0085C5.40401 12.0085 0.777344 7.38188 0.777344 1.67521C0.777344 1.31655 0.795344 0.960545 0.83201 0.607212C0.848847 0.44301 0.926 0.290892 1.04854 0.180301C1.17107 0.0697097 1.33028 0.00850935 1.49534 0.00854494H4.47001C4.63772 0.00852391 4.79927 0.0717126 4.92246 0.185512C5.04565 0.299312 5.12143 0.455361 5.13468 0.622545C5.21883 1.69374 5.52873 2.735 6.04401 3.67788C6.12232 3.82092 6.14549 3.98771 6.10912 4.14668C6.07276 4.30564 5.97939 4.44577 5.84668 4.54055L5.02134 5.12988ZM3.34001 4.69188L4.60668 3.78721C4.2472 3.01127 4.00091 2.18777 3.87534 1.34188H2.11734C2.11334 1.45254 2.11134 1.56388 2.11134 1.67521C2.11068 6.64588 6.14001 10.6752 11.1107 10.6752C11.222 10.6752 11.3333 10.6732 11.444 10.6685V8.91055C10.5981 8.78498 9.77462 8.53869 8.99868 8.17921L8.09401 9.44588C7.72979 9.30436 7.37602 9.13727 7.03534 8.94588L6.99668 8.92388C5.68906 8.17969 4.6062 7.09683 3.86201 5.78921L3.84001 5.75055C3.64862 5.40987 3.48153 5.0561 3.34001 4.69188Z" fill="#616161"/>
</svg>
