<svg width="22" height="22" viewBox="0 0 22 22" fill="none" xmlns="http://www.w3.org/2000/svg">
<path d="M10.804 21.0635C8.81327 21.0634 6.86765 20.4619 5.2132 19.3355C3.55881 18.2091 2.27008 16.6086 1.50925 14.737C0.748444 12.8655 0.549466 10.8063 0.937289 8.81978C1.32511 6.83328 2.28244 5.00793 3.68893 3.57478C4.62245 2.62131 5.73151 1.86442 6.95283 1.34762C8.17422 0.830804 9.48377 0.564301 10.8066 0.563478C12.1294 0.562656 13.4393 0.827532 14.6613 1.34283C15.8832 1.85813 16.9933 2.61368 17.9279 3.56605C18.8626 4.5184 19.6036 5.64889 20.1088 6.89275C20.614 8.1366 20.8736 9.46956 20.8728 10.8155C20.872 12.1613 20.6108 13.494 20.1041 14.7372C19.5974 15.9803 18.8552 17.1097 17.9195 18.0608C16.9876 19.0154 15.879 19.7725 14.6575 20.288C13.4361 20.8035 12.1263 21.0671 10.804 21.0635ZM10.804 21.0635C10.8038 21.0635 10.8035 21.0635 10.8033 21.0635L10.804 20.8135L10.804 21.0635ZM10.804 1.73852L10.8047 1.73852C11.9739 1.73527 13.1322 1.96832 14.2126 2.42431C15.293 2.88031 16.2743 3.55026 17.0994 4.39563L17.0999 4.39611C18.7707 6.09847 19.7101 8.40833 19.7101 10.8178C19.7101 13.2273 18.7707 15.5372 17.0999 17.2395C15.4293 18.9417 13.1645 19.8971 10.804 19.8971C8.4435 19.8971 6.1787 18.9417 4.50811 17.2395C3.26221 15.97 2.41323 14.3521 2.06923 12.59C1.72523 10.8278 1.90182 9.0014 2.57649 7.34179C3.25114 5.68223 4.39331 4.26453 5.85786 3.26744C7.32234 2.27039 9.04361 1.73852 10.804 1.73852Z" fill="#616161" stroke="#616161" stroke-width="0.5"/>
<path d="M8.3272 7.63215L8.3272 9.19985H7.23903C7.05289 9.19985 6.87535 9.27523 6.74519 9.40786C6.61519 9.54032 6.54297 9.719 6.54297 9.90435C6.54297 10.0897 6.61519 10.2684 6.74519 10.4008C6.87535 10.5335 7.05289 10.6088 7.23903 10.6088H8.3272V15.8128C8.3272 15.9982 8.39942 16.1768 8.52942 16.3093C8.65958 16.4419 8.83713 16.5173 9.02326 16.5173C12.3801 16.5173 15.072 13.5286 15.072 9.90435C15.072 8.9434 14.1098 8.29085 13.0378 8.29085C11.9658 8.29085 11.0036 8.9434 11.0036 9.90435C11.0036 10.0897 11.0758 10.2684 11.2058 10.4008C11.3359 10.5335 11.5135 10.6088 11.6996 10.6088C11.8857 10.6088 12.0633 10.5335 12.1934 10.4008C12.3192 10.2727 12.3908 10.1014 12.3954 9.92263C12.3972 9.91985 12.3999 9.91612 12.4036 9.91145C12.4216 9.88901 12.4565 9.85681 12.5135 9.82351C12.6268 9.75742 12.8056 9.69985 13.0378 9.69985C13.27 9.69985 13.4488 9.75742 13.562 9.82351C13.6191 9.85681 13.654 9.88901 13.672 9.91145C13.6755 9.9159 13.6781 9.91949 13.6799 9.92223C13.672 12.5394 11.9348 14.6768 9.71932 15.0503V10.6088H9.91538C10.1015 10.6088 10.2791 10.5335 10.4092 10.4008C10.5392 10.2684 10.6114 10.0897 10.6114 9.90435C10.6114 9.719 10.5392 9.54032 10.4092 9.40786C10.2791 9.27523 10.1015 9.19985 9.91538 9.19985H9.71932L9.71932 7.63186L9.71932 7.63158C9.71858 6.96438 9.45817 6.32379 8.99377 5.85061C8.52922 5.37726 7.89835 5.11013 7.23931 5.10938H7.23903C7.05289 5.10938 6.87535 5.18476 6.74519 5.31738C6.61519 5.44985 6.54297 5.62852 6.54297 5.81387C6.54297 5.99922 6.61519 6.1779 6.74519 6.31036C6.87528 6.44292 7.0527 6.51829 7.23873 6.51837C7.52578 6.51871 7.80195 6.63501 8.00638 6.8433C8.21094 7.05174 8.32684 7.3353 8.3272 7.63205C8.3272 7.63208 8.3272 7.63211 8.3272 7.63215Z" fill="#616161" stroke="#616161" stroke-width="0.5"/>
</svg>
