<svg width="24" height="25" viewBox="0 0 24 25" fill="none" xmlns="http://www.w3.org/2000/svg">
<path d="M8.97867 18.8135C8.85979 19.6478 8.44389 20.4112 7.80735 20.9634C7.17081 21.5157 6.35639 21.8197 5.51367 21.8197C4.67095 21.8197 3.85653 21.5157 3.21999 20.9634C2.58346 20.4112 2.16755 19.6478 2.04867 18.8135H1.01367V6.81348C1.01367 6.54826 1.11903 6.29391 1.30657 6.10637C1.4941 5.91883 1.74846 5.81348 2.01367 5.81348H16.0137C16.2789 5.81348 16.5332 5.91883 16.7208 6.10637C16.9083 6.29391 17.0137 6.54826 17.0137 6.81348V8.81348H20.0137L23.0137 12.8695V18.8135H20.9787C20.8598 19.6478 20.4439 20.4112 19.8074 20.9634C19.1708 21.5157 18.3564 21.8197 17.5137 21.8197C16.671 21.8197 15.8565 21.5157 15.22 20.9634C14.5835 20.4112 14.1676 19.6478 14.0487 18.8135H8.97867ZM15.0137 7.81348H3.01367V15.8635C3.40823 15.4607 3.89427 15.1592 4.43042 14.9846C4.96658 14.81 5.53697 14.7676 6.09305 14.8609C6.64913 14.9542 7.17445 15.1804 7.62428 15.5204C8.07412 15.8603 8.43516 16.304 8.67667 16.8135H14.3507C14.5187 16.4605 14.7437 16.1395 15.0137 15.8635V7.81348ZM17.0137 13.8135H21.0137V13.5285L19.0057 10.8135H17.0137V13.8135ZM17.5137 19.8135C17.9116 19.8135 18.2933 19.6554 18.5747 19.374C18.8561 19.0926 19.0142 18.7109 19.0142 18.313C19.0142 17.915 18.8561 17.5334 18.5747 17.252C18.2933 16.9706 17.9116 16.8125 17.5137 16.8125C17.1157 16.8125 16.7341 16.9706 16.4527 17.252C16.1713 17.5334 16.0132 17.915 16.0132 18.313C16.0132 18.7109 16.1713 19.0926 16.4527 19.374C16.7341 19.6554 17.1157 19.8135 17.5137 19.8135ZM7.01367 18.3135C7.01367 18.1165 6.97487 17.9214 6.89949 17.7395C6.82411 17.5575 6.71362 17.3921 6.57433 17.2528C6.43504 17.1135 6.26969 17.003 6.0877 16.9277C5.90571 16.8523 5.71065 16.8135 5.51367 16.8135C5.31669 16.8135 5.12163 16.8523 4.93965 16.9277C4.75766 17.003 4.5923 17.1135 4.45301 17.2528C4.31372 17.3921 4.20323 17.5575 4.12785 17.7395C4.05247 17.9214 4.01367 18.1165 4.01367 18.3135C4.01367 18.7113 4.17171 19.0928 4.45301 19.3741C4.73432 19.6554 5.11585 19.8135 5.51367 19.8135C5.9115 19.8135 6.29303 19.6554 6.57433 19.3741C6.85564 19.0928 7.01367 18.7113 7.01367 18.3135Z" fill="#616161"/>
</svg>
