<svg width="14" height="15" viewBox="0 0 14 15" fill="none" xmlns="http://www.w3.org/2000/svg">
<path d="M6.78776 14.3079C3.10576 14.3079 0.121094 11.3233 0.121094 7.64128C0.121094 3.95928 3.10576 0.974609 6.78776 0.974609C10.4698 0.974609 13.4544 3.95928 13.4544 7.64128C13.4544 11.3233 10.4698 14.3079 6.78776 14.3079ZM6.78776 12.9746C8.20225 12.9746 9.5588 12.4127 10.559 11.4125C11.5592 10.4123 12.1211 9.05576 12.1211 7.64128C12.1211 6.22679 11.5592 4.87023 10.559 3.87004C9.5588 2.86985 8.20225 2.30794 6.78776 2.30794C5.37327 2.30794 4.01672 2.86985 3.01652 3.87004C2.01633 4.87023 1.45443 6.22679 1.45443 7.64128C1.45443 9.05576 2.01633 10.4123 3.01652 11.4125C4.01672 12.4127 5.37327 12.9746 6.78776 12.9746ZM6.12109 9.64128H7.45443V10.9746H6.12109V9.64128ZM6.12109 4.30794H7.45443V8.30794H6.12109V4.30794Z" fill="#B0B0B0"/>
</svg>
