<svg width="20" height="22" viewBox="0 0 20 22" fill="none" xmlns="http://www.w3.org/2000/svg">
<path fill-rule="evenodd" clip-rule="evenodd" d="M1.16173 13.7096C-0.267728 8.37481 2.89799 2.89163 8.2328 1.46217C11.3923 0.615575 14.6047 1.38021 16.9955 3.25532L16.3484 0.840508L18.2803 0.32287L19.8332 6.11843L14.0376 7.67134L13.52 5.73949L16.0459 5.06268C14.109 3.39412 11.4067 2.68227 8.75044 3.39402C4.48298 4.53749 1.95012 8.92452 3.09358 13.192C4.23704 17.4594 8.62408 19.9923 12.8915 18.8488C15.2228 18.2242 17.0363 16.6316 18.0157 14.6193L19.9764 15.1447C18.797 17.8241 16.4571 19.964 13.4092 20.7807C8.07437 22.2101 2.59119 19.0444 1.16173 13.7096Z" fill="#616161"/>
</svg>
