<?xml version="1.0" encoding="utf-8"?>
<!-- Generator: Adobe Illustrator 23.0.3, SVG Export Plug-In . SVG Version: 6.00 Build 0)  -->
<svg version="1.1" id="Layer_1" xmlns="http://www.w3.org/2000/svg" xmlns:xlink="http://www.w3.org/1999/xlink" x="0px" y="0px"
	 viewBox="0 0 1000 332.2" style="enable-background:new 0 0 1000 332.2;" xml:space="preserve">
<style type="text/css">
	.st0{fill:#DF3834;}
	.st1{fill:#282827;}
</style>
<path class="st0" d="M264.2,132.9h-66.4v66.4h66.4v66.5h-66.5h-66.4H-1.6v8c0,32.3,26.2,58.5,58.5,58.5h74.4h66.4h74.4
	c32.3,0,58.5-26.2,58.5-58.5V132.9H264.2z"/>
<polygon class="st1" points="330.7,0 330.7,66.4 64.9,66.4 64.9,132.9 197.8,132.9 197.8,332.2 131.3,332.2 131.3,199.4 -1.6,199.4 
	-1.6,0 "/>
<path class="st0" d="M639,132.9c19.7,2.7,40.4,2.5,59,8.6c41,13.4,61.8,48.8,60.5,96.5c-1.2,42.6-27.2,79.2-66.8,89.9
	c-35.3,9.5-71.7,9.7-107-0.1c-44-12.3-71.7-58.4-66.5-106.5c5.2-48.2,37.8-81,85.5-85.1c11.6-1,23.4-0.2,35.1-0.2
	C638.8,134.9,638.9,133.9,639,132.9z M637.6,299.6c0-0.4,0.1-0.9,0.1-1.3c8.8,0,17.6,0.2,26.3,0c34.5-0.9,59.2-26.7,60-62.7
	c0.8-36.3-22-63.6-56.5-65.7c-19.4-1.2-39.1-1.1-58.5,0c-29.9,1.6-52.7,24.3-55.9,54.1c-3.7,34.2,12.9,63.3,42.7,71
	C609.2,298.5,623.6,298.2,637.6,299.6z"/>
<path class="st0" d="M847.8,277.9c0-11.7,0-21.2,0-32.8c25.9,0,51.1,0.3,76.3-0.1c23.1-0.4,36.7-10.8,40.8-30.2
	c4.7-22.2-8.4-43.3-30.9-44.3c-36.4-1.6-73-0.4-111.1-0.4c0,54.4,0,107.8,0,162.3c-12,0-22.5,0-34,0c0-64.9,0-129.6,0-195.7
	c3.3-0.5,7-1.5,10.6-1.5c42-0.1,84-0.5,126,0.1c39.6,0.6,61.8,16.3,71,48.7c14.4,50.9-17.1,93.5-69.7,94
	C901,278.1,875.1,277.9,847.8,277.9z"/>
<path class="st0" d="M455.8,247.8c-33.7,0-65.4,0-98.2,0c0-10.4,0-19.8,0-31.2c32.2,0,64.6,0,98.1,0c0-27.5,0-53.3,0-81.4
	c10.1,0,19.1-0.5,28.1,0.4c2.4,0.2,6.4,4.8,6.4,7.4c0.4,62.9,0.3,125.8,0.3,189.7c-11.7,0-22.1,0-34.7,0
	C455.8,304.6,455.8,276.6,455.8,247.8z"/>
</svg>
