<svg width="277" height="81" viewBox="0 0 277 81" fill="none" xmlns="http://www.w3.org/2000/svg">
<path d="M95.8722 57.8096C95.6193 57.1408 95.2597 56.5619 94.7988 56.0955C95.3159 56.68 95.7205 57.3712 95.979 58.1299C95.9453 58.0175 95.9116 57.9107 95.8722 57.8096Z" fill="black"/>
<path d="M96.6194 69.9432C96.6194 69.9207 96.6138 69.8926 96.6138 69.8701C96.4677 68.4483 95.827 67.1725 94.8603 66.2284C94.5681 65.9417 94.2478 65.6889 93.9049 65.4641C94.4332 65.0707 94.8884 64.5929 95.2594 64.0478C95.3999 63.8736 95.5347 63.6656 95.6528 63.4296C95.7764 63.1823 95.8888 62.9069 95.9787 62.6035C95.9787 62.5978 95.9843 62.5866 95.9843 62.581C96.0293 62.4405 96.0686 62.2887 96.108 62.137C96.2316 61.6481 96.2878 61.0748 96.2878 60.4229V60.0407C96.2878 59.3832 96.181 58.7482 95.9843 58.1581C95.9787 58.1468 95.9787 58.1412 95.9731 58.1299C95.7146 57.3712 95.3099 56.6856 94.7929 56.0955L94.7873 56.0899C94.7592 56.0618 94.7311 56.0337 94.703 56.0056C94.2028 55.5223 93.5846 55.157 92.8765 54.9209C92.1403 54.6736 91.2973 54.55 90.37 54.55H77.1686C76.7696 54.55 76.4492 54.876 76.4492 55.2694V58.6526C76.4492 59.0516 76.7752 59.372 77.1686 59.372H90.5948C91.1006 59.372 91.567 59.5181 91.9773 59.8103C92.4606 60.1531 92.7079 60.7432 92.7079 61.5581C92.7079 62.3843 92.4718 62.9856 92.011 63.3397C91.6007 63.6544 91.123 63.8118 90.5948 63.8118H77.1686C76.7696 63.8118 76.4492 64.1377 76.4492 64.5311V76.1533C76.4492 76.5523 76.7752 76.8727 77.1686 76.8727H90.4936C91.612 76.8727 92.5674 76.7378 93.3261 76.468C93.3991 76.4455 93.4666 76.4174 93.534 76.3893C94.304 76.0802 94.9222 75.6531 95.3661 75.1304C95.8157 74.5965 96.1417 73.9502 96.3328 73.214C96.4002 72.9499 96.4564 72.6801 96.5014 72.3991C96.5913 71.9889 96.6363 71.5674 96.6363 71.1346V70.4771C96.6419 70.2972 96.6306 70.1174 96.6194 69.9432ZM92.247 71.4718C91.8649 71.9046 91.286 72.1181 90.5217 72.1181H80.3214V67.5378H90.5217C91.2804 67.5378 91.8536 67.7458 92.2358 68.156C92.6011 68.5494 92.7866 69.1002 92.7866 69.7914C92.7922 70.4996 92.6067 71.0616 92.247 71.4718Z" fill="black"/>
<path d="M138.926 76.867C138.657 76.867 138.415 76.7153 138.297 76.4792L135.942 71.7978L135.656 71.2246C135.644 71.2021 135.627 71.174 135.616 71.1515L135.605 71.1346L135.56 71.0503C135.369 70.7075 135.155 70.2691 134.846 69.6285C134.577 69.0608 134.256 68.4033 133.953 67.7963L130.367 60.3274L122.28 76.4792C122.162 76.7209 121.915 76.8726 121.645 76.8726H118.582C118.054 76.8726 117.717 76.3163 117.953 75.8498L127.692 56.4439C128.007 55.8314 128.411 55.2694 128.895 54.7692C129.299 54.3589 129.811 54.1566 130.446 54.1566C131.058 54.1566 131.547 54.3421 131.946 54.7298C132.418 55.1794 132.823 55.7527 133.149 56.4327L142.647 75.8554C142.877 76.3275 142.534 76.8726 142.012 76.8726H138.926V76.867Z" fill="black"/>
<path d="M126.523 75.8329L130.294 68.7349L134.065 75.8329C134.318 76.305 133.975 76.8727 133.441 76.8727H127.147C126.613 76.867 126.276 76.2994 126.523 75.8329Z" fill="black"/>
<path d="M228.346 76.867C228.077 76.867 227.835 76.7153 227.717 76.4792L225.362 71.7978L225.076 71.2246C225.064 71.2021 225.047 71.174 225.036 71.1515L225.025 71.1346L224.98 71.0503C224.789 70.7075 224.575 70.2691 224.266 69.6285C223.996 69.0608 223.676 68.4033 223.373 67.7963L219.787 60.3274L211.7 76.4792C211.582 76.7209 211.335 76.8726 211.065 76.8726H208.002C207.474 76.8726 207.136 76.3163 207.373 75.8498L217.112 56.4439C217.427 55.8314 217.831 55.2694 218.315 54.7692C218.719 54.3589 219.231 54.1566 219.866 54.1566C220.478 54.1566 220.967 54.3421 221.366 54.7298C221.838 55.1794 222.243 55.7527 222.569 56.4327L232.067 75.8554C232.297 76.3275 231.954 76.8726 231.432 76.8726H228.346V76.867Z" fill="black"/>
<path d="M215.943 75.8329L219.714 68.7349L223.485 75.8329C223.738 76.305 223.395 76.8727 222.861 76.8727H216.561C216.033 76.867 215.696 76.2994 215.943 75.8329Z" fill="black"/>
<path d="M96.2879 60.4173V60.6927C96.2879 61.3502 96.1811 61.9853 95.9844 62.5754C96.0293 62.4349 96.0687 62.2831 96.108 62.1314C96.2317 61.6481 96.2879 61.0692 96.2879 60.4173Z" fill="black"/>
<path d="M272.48 69.5217C272.845 69.3587 273.183 69.1789 273.492 68.9765C275.11 67.9312 276.049 66.397 276.487 64.9189V64.9133C276.701 64.1827 276.796 63.4689 276.791 62.8283C276.791 62.8226 276.791 62.8226 276.791 62.817C276.796 62.654 276.802 62.4911 276.802 62.3281C276.802 60.7432 276.555 59.4394 276.06 58.4503C275.565 57.4612 274.936 56.6744 274.189 56.1011C273.43 55.5223 272.581 55.1176 271.654 54.8928C270.693 54.6568 269.754 54.5388 268.861 54.5388H256.098C255.704 54.5388 255.39 54.8535 255.39 55.2469V58.6526C255.39 59.046 255.704 59.3607 256.098 59.3607H269.288C270.356 59.3607 271.216 59.653 271.839 60.2262C272.48 60.8163 272.806 61.6762 272.806 62.7833C272.806 63.8061 272.452 64.6323 271.749 65.2336C271.081 65.8069 270.249 66.0991 269.288 66.0991H256.098C255.704 66.0991 255.39 66.4138 255.39 66.8072V76.1533C255.39 76.5467 255.704 76.8614 256.098 76.8614H258.531C258.925 76.8614 259.239 76.5467 259.239 76.1533V70.6063H268.237L271.761 76.5186C271.89 76.7321 272.12 76.867 272.368 76.867H275.964C276.526 76.867 276.864 76.2432 276.56 75.7711L272.48 69.5217Z" fill="black"/>
<path d="M179.981 72.1181H171.849L172.855 71.1234C173.018 70.9604 173.22 70.7637 173.451 70.5277C173.676 70.3029 173.957 69.9994 174.322 69.606L175.609 68.2066C176.098 67.6783 176.688 67.0152 177.379 66.234L183.567 59.2933C183.859 58.9786 184.095 58.602 184.264 58.1749C184.432 57.7478 184.517 57.3038 184.517 56.8429C184.517 56.0561 184.337 55.466 183.983 55.0895C183.634 54.7186 183.241 54.5388 182.78 54.5388H165.42C165.026 54.5388 164.706 54.8591 164.706 55.2525V58.647C164.706 59.0404 165.026 59.3607 165.42 59.3607H172.922H177.874L176.991 60.333C176.834 60.5072 176.632 60.7151 176.373 60.9624C176.132 61.1928 175.834 61.5019 175.48 61.8785C175.126 62.255 174.698 62.7159 174.187 63.2835C173.687 63.8399 173.085 64.503 172.389 65.2786L166.291 72.0619C165.993 72.4047 165.751 72.7981 165.583 73.2309C165.414 73.658 165.33 74.1076 165.33 74.5628C165.33 75.3496 165.51 75.9397 165.864 76.3163C166.218 76.6928 166.6 76.867 167.066 76.867H184.663C185.056 76.867 185.376 76.5467 185.376 76.1533V72.8319C185.376 72.4385 185.056 72.1181 184.663 72.1181H179.981Z" fill="black"/>
<path d="M76.4326 39.6576V24.5566C76.4326 23.2977 77.4498 22.2805 78.7087 22.2805H101.734C103.611 22.2805 105.111 21.6679 106.196 20.454C107.241 19.2851 107.77 17.7452 107.77 15.885C107.77 14.0191 107.236 12.4849 106.185 11.3384C105.1 10.1526 103.605 9.55683 101.734 9.55683H78.7087C77.4498 9.55683 76.4326 8.53961 76.4326 7.28073V3.17251C76.4326 1.91363 77.4498 0.896408 78.7087 0.896408H100.857C103.066 0.896408 105.05 1.26733 106.758 1.99793C108.45 2.72291 109.894 3.74575 111.052 5.02711C112.215 6.31971 113.12 7.89893 113.738 9.71981C114.368 11.5744 114.682 13.6763 114.682 15.958C114.682 18.2397 114.362 20.3248 113.738 22.1569C113.126 23.9497 112.221 25.4895 111.046 26.7372C109.872 27.9848 108.416 28.9739 106.724 29.6821C105.016 30.3958 103.026 30.7555 100.812 30.7555H83.2497V39.6632C83.2497 40.9221 82.2325 41.9393 80.9736 41.9393H78.7087C77.4498 41.9337 76.4326 40.9108 76.4326 39.6576Z" fill="black"/>
<path d="M176.603 3.16633V8.15688C175.918 7.81406 175.142 7.62298 174.327 7.62298H172.017C171.202 7.62298 170.427 7.81406 169.741 8.15688V3.16633C169.741 1.90745 170.764 0.890228 172.017 0.890228H174.327C175.586 0.890228 176.603 1.90745 176.603 3.16633Z" fill="#EC2024"/>
<path d="M176.603 12.7541V39.6514C176.603 40.9102 175.586 41.9275 174.327 41.9275H172.017C170.758 41.9275 169.741 40.9102 169.741 39.6514V12.7541C169.741 11.4952 170.764 10.478 172.017 10.478H174.327C175.586 10.478 176.603 11.5008 176.603 12.7541Z" fill="black"/>
<path d="M274.509 9.55064H243.571V3.16633C243.571 1.90745 244.589 0.890228 245.847 0.890228H274.476C275.723 0.890228 276.741 1.8962 276.752 3.14946L276.786 7.25769C276.797 8.52218 275.774 9.55064 274.509 9.55064Z" fill="#EC2024"/>
<path d="M250.478 24.7246V33.3963H274.538C275.796 33.3963 276.814 34.4135 276.814 35.6724V39.6514C276.814 40.9102 275.796 41.9275 274.538 41.9275H245.847C244.589 41.9275 243.571 40.9102 243.571 39.6514V19.779C243.571 18.5202 244.589 17.5029 245.847 17.5029H274.538C275.796 17.5029 276.814 18.5202 276.814 19.779V22.4485C276.814 23.7074 275.796 24.7246 274.538 24.7246H250.478Z" fill="black"/>
<path d="M225.177 1.90746L209.149 26.0678L195.009 2.01424C194.599 1.31736 193.851 0.890239 193.042 0.890239H189.749C188.49 0.890239 187.473 1.90746 187.473 3.16634V39.657C187.473 40.9159 188.49 41.9331 189.749 41.9331H192.042C193.301 41.9331 194.318 40.9159 194.318 39.657V14.5019L204.895 32.4859L206.581 35.3521C206.991 36.049 207.738 36.4761 208.548 36.4761H209.346C210.11 36.4761 210.824 36.0939 211.245 35.4532L213.061 32.7163L225.863 13.4172V39.6514C225.863 40.9103 226.88 41.9275 228.139 41.9275H230.432C231.691 41.9275 232.708 40.9103 232.708 39.6514V3.16072C232.708 1.90183 231.691 0.884613 230.432 0.884613H227.077C226.312 0.890233 225.599 1.2724 225.177 1.90746Z" fill="black"/>
<path d="M153.168 28.0629L154.416 27.7201C154.781 27.619 155.135 27.4953 155.472 27.3436L155.877 27.1469C156.383 26.8884 156.855 26.568 157.293 26.1971C158.17 25.4553 158.923 24.5336 159.535 23.4545C159.569 23.3927 159.608 23.3309 159.642 23.2635C159.648 23.2578 159.648 23.2522 159.653 23.241C160.227 22.1844 160.676 20.993 160.997 19.6779C161.339 18.2617 161.514 16.7443 161.514 15.1594C161.514 14.9009 161.508 14.6424 161.502 14.3895C161.429 11.8268 160.974 9.69677 160.154 8.05011C159.249 6.24047 158.097 4.79052 156.725 3.7452C155.337 2.68864 153.78 1.94118 152.089 1.53092C150.319 1.1038 148.593 0.884613 146.947 0.884613H124.427C123.168 0.884613 122.151 1.90183 122.151 3.16072V7.26893C122.151 8.52781 123.168 9.54504 124.427 9.54504H147.728C149.74 9.54504 151.358 10.0958 152.533 11.1805C153.747 12.2932 154.359 13.9174 154.359 16.008C154.359 17.9413 153.685 19.4981 152.359 20.6389C151.094 21.7236 149.532 22.2743 147.722 22.2743H124.422C123.163 22.2743 122.146 23.2916 122.146 24.5504V39.6514C122.146 40.9103 123.163 41.9275 124.422 41.9275H126.731C127.99 41.9275 129.008 40.9103 129.008 39.6514V30.3503H145.862L152.094 40.8203C152.505 41.5116 153.247 41.9331 154.05 41.9331H158.04C159.85 41.9331 160.935 39.9211 159.946 38.4094L153.168 28.0629Z" fill="black"/>
<path d="M30.7424 46.0638C29.5903 46.0638 28.4495 46.0638 27.3086 46.0469H30.5626C30.6244 46.0526 30.6806 46.0526 30.7424 46.0638Z" fill="white"/>
<path d="M13.6407 71.0335C16.1697 71.0672 18.1592 73.1241 18.1142 75.6531C18.0636 78.1259 15.8999 80.2053 13.4384 80.1379C10.915 80.0704 8.94798 77.991 8.99294 75.4508C9.03228 72.8937 11.033 70.9997 13.6407 71.0335Z" fill="#EC1E24"/>
<path d="M31.894 71.0503C34.3836 71.0784 36.2944 73.0173 36.3057 75.5351C36.3169 78.0697 34.2769 80.1266 31.7703 80.1154C29.3032 80.1041 27.2294 77.9685 27.2631 75.4901C27.2968 72.9611 29.32 71.0222 31.894 71.0503Z" fill="#EC1E24"/>
<path d="M55.3691 38.6904C55.178 38.4262 54.9251 38.2014 54.6441 37.8923C54.6385 37.8923 54.6385 37.8923 54.6328 37.8923C51.7498 42.3939 47.4954 45.721 41.9991 47.7104C42.044 47.8004 42.0834 47.8734 42.1227 47.9409C45.4217 53.6227 41.8586 59.8384 35.2551 59.8665C31.4672 59.8834 27.6793 59.8946 23.8914 59.8384C19.5978 59.7654 16.2089 56.2585 16.2089 52.0266C16.2089 51.1106 16.3719 50.2282 16.6641 49.4133C16.6248 49.5257 15.2142 49.6044 15.0399 49.6269C14.4948 49.7055 13.944 49.7842 13.3989 49.8742C12.3761 50.0371 11.3588 50.2057 10.3472 50.4081C10.3304 50.4081 10.3135 50.4137 10.291 50.4193C10.2686 50.4249 10.2461 50.4249 10.218 50.4305C10.2011 50.4305 10.1843 50.4362 10.1674 50.4418C10.1393 50.4474 10.1056 50.453 10.0719 50.4586C10.0044 50.4699 9.93137 50.4867 9.84706 50.5036C9.75714 50.5204 9.6616 50.5429 9.55482 50.5654C8.1442 50.8633 5.23866 51.5377 2.81644 52.5268C1.74302 52.9651 0.871924 53.544 0.180664 54.1341V54.8703C0.180664 54.876 0.180664 54.8872 0.180664 54.8984C0.180664 55.1176 0.180664 55.3424 0.180664 55.5672V55.8257C0.186284 58.7931 0.197524 61.8953 0.208764 64.829C0.225624 67.7907 0.264964 70.7356 0.225624 73.6805C0.214384 74.6302 0.517864 75.0349 1.344 75.0461L5.40726 75.0742H5.40164C5.68264 75.0742 5.91868 75.0742 6.08728 75.0686C6.19406 75.063 6.27836 74.9787 6.2896 74.8719C6.44134 73.1297 7.19442 71.528 8.44206 70.3309C9.79648 69.0271 11.6174 68.3134 13.5675 68.3134H13.6687C15.6188 68.3358 17.4397 69.1227 18.7885 70.5164C19.845 71.6067 20.5138 72.9667 20.7386 74.4448C20.7836 74.737 21.0365 74.9562 21.3343 74.9618C22.2279 74.9899 23.1215 74.9843 24.0151 74.9731C24.3129 74.9674 24.5715 74.7483 24.6164 74.4504C25.1391 70.9492 28.1402 68.3302 31.8325 68.3302H31.9168C35.5361 68.3696 38.4529 71.0053 38.9474 74.4954C38.9811 74.7314 39.2003 74.9 39.4364 74.8607H39.442C48.0574 73.4388 54.5092 68.9878 57.9711 60.9062C61.3206 53.1225 60.3709 45.6142 55.3691 38.6904Z" fill="black"/>
<path d="M34.457 0.91273C33.7264 0.90711 33.0858 0.895874 32.5125 0.890254V0.862152H7.98684C3.8168 0.862152 0.439184 4.23977 0.439184 8.40981C0.439184 12.5798 3.8168 15.9575 7.98684 15.9575H19.6427C19.8338 15.9743 20.0361 15.9743 20.2384 15.9743C28.5111 15.9575 23.2676 15.9462 31.5403 15.9743C36.8399 16.0024 40.5547 20.8132 39.1778 25.7588C38.2618 29.0465 35.3169 31.1315 31.4503 31.1596C28.6853 31.1764 25.9146 31.1764 23.1496 31.1596C21.1208 31.1596 19.0976 31.1596 17.0688 31.1764C16.0347 31.1764 14.9669 31.2214 13.944 31.3844C13.708 31.4012 13.4832 31.4462 13.264 31.4911C9.04902 32.3623 5.6152 34.599 3.31662 37.7237C1.3159 40.4438 0.191904 43.8495 0.180664 47.6262V49.6269V51.2342C3.99664 47.7049 17.2992 46.4123 20.8229 46.1256C21.7109 46.0975 22.5089 46.0807 23.1777 46.0751C23.4868 46.0582 23.7678 46.0582 24.0207 46.0582H30.5624C30.6242 46.0582 30.6804 46.0582 30.7422 46.0751C31.9561 46.0751 33.1701 46.0582 34.384 46.0301C34.547 46.0301 34.7099 46.0132 34.8729 46.0132C36.6657 45.9683 38.5259 45.8671 40.2007 45.3164C49.0185 42.4277 54.1102 36.1389 55.6782 27.1413C57.943 14.086 47.3606 1.07571 34.457 0.91273Z" fill="#EC1E24"/>
</svg>
