<svg width="19" height="22" viewBox="0 0 19 22" fill="none" xmlns="http://www.w3.org/2000/svg">
<path fill-rule="evenodd" clip-rule="evenodd" d="M10.4267 1.94116C11.8067 0.122739 13.7248 0.11377 13.7248 0.11377C13.7248 0.11377 14.0101 1.82352 12.6395 3.47083C11.1757 5.22956 9.51216 4.94184 9.51216 4.94184C9.51216 4.94184 9.19961 3.55845 10.4267 1.94116Z" fill="#1C1C1C"/>
<path fill-rule="evenodd" clip-rule="evenodd" d="M9.68722 6.13919C10.3972 6.13919 11.7144 5.16357 13.4293 5.16357C16.381 5.16357 17.5422 7.26385 17.5422 7.26385C17.5422 7.26385 15.2712 8.42507 15.2712 11.2426C15.2712 14.4209 18.1004 15.5162 18.1004 15.5162C18.1004 15.5162 16.1226 21.0829 13.4514 21.0829C12.2242 21.0829 11.2707 20.256 9.9777 20.256C8.66019 20.256 7.35304 21.1136 6.50162 21.1136C4.06223 21.114 0.980469 15.8336 0.980469 11.5889C0.980469 7.41288 3.58891 5.22222 6.03554 5.22222C7.62627 5.22188 8.86063 6.13919 9.68722 6.13919Z" fill="#1C1C1C"/>
</svg>
