<svg width="21" height="21" viewBox="0 0 21 21" fill="none" xmlns="http://www.w3.org/2000/svg">
<path d="M5.66797 10.1137C5.66797 9.12277 5.94098 8.19453 6.41527 7.39973V4.02832H3.04387C1.70578 5.76613 0.980469 7.88406 0.980469 10.1137C0.980469 12.3433 1.70578 14.4612 3.04387 16.199H6.41527V12.8276C5.94098 12.0328 5.66797 11.1046 5.66797 10.1137Z" fill="#FBBD00"/>
<path d="M10.9805 15.4263L8.63672 17.7701L10.9805 20.1138C13.2101 20.1138 15.328 19.3885 17.0658 18.0504V14.6826H13.698C12.8963 15.1586 11.9641 15.4263 10.9805 15.4263Z" fill="#0F9D58"/>
<path d="M6.41535 12.8276L3.04395 16.199C3.30887 16.5431 3.59734 16.8726 3.90949 17.1848C5.79824 19.0735 8.30945 20.1137 10.9805 20.1137V15.4262C9.04211 15.4262 7.34316 14.3824 6.41535 12.8276Z" fill="#31AA52"/>
<path d="M20.9805 10.1138C20.9805 9.50541 20.9254 8.89588 20.8167 8.30221L20.7288 7.82178H10.9805V12.5093H15.7247C15.264 13.4257 14.5556 14.1734 13.698 14.6826L17.0658 18.0504C17.4098 17.7855 17.7393 17.4971 18.0515 17.1849C19.9403 15.2961 20.9805 12.7849 20.9805 10.1138Z" fill="#3C79E6"/>
<path d="M14.737 6.35725L15.1513 6.77154L18.4659 3.45701L18.0516 3.04272C16.1628 1.15396 13.6516 0.11377 10.9805 0.11377L8.63672 2.45752L10.9805 4.80127C12.3995 4.80127 13.7336 5.35385 14.737 6.35725Z" fill="#CF2D48"/>
<path d="M10.9806 4.80127V0.11377C8.30949 0.11377 5.79828 1.15396 3.90949 3.04268C3.59734 3.35482 3.30887 3.68432 3.04395 4.02842L6.41535 7.39982C7.3432 5.84502 9.04215 4.80127 10.9806 4.80127Z" fill="#EB4132"/>
</svg>
