<svg width="20" height="22" viewBox="0 0 20 22" fill="none" xmlns="http://www.w3.org/2000/svg">
<path d="M11.8663 16.023L7.6673 13.733C7.11909 14.319 6.40728 14.7266 5.62437 14.9028C4.84146 15.0791 4.02365 15.0157 3.27722 14.721C2.53079 14.4263 1.89026 13.9139 1.43887 13.2504C0.987475 12.5869 0.746094 11.803 0.746094 11.0005C0.746094 10.198 0.987475 9.41402 1.43887 8.75051C1.89026 8.08701 2.53079 7.57461 3.27722 7.27992C4.02365 6.98523 4.84146 6.92187 5.62437 7.09807C6.40728 7.27428 7.11909 7.6819 7.6673 8.26796L11.8673 5.97796C11.6289 5.03403 11.7429 4.03555 12.1879 3.16966C12.633 2.30378 13.3786 1.62994 14.285 1.27446C15.1913 0.918981 16.1962 0.906264 17.1113 1.23869C18.0263 1.57112 18.7888 2.22588 19.2556 3.08022C19.7225 3.93457 19.8617 4.92985 19.6472 5.8795C19.4327 6.82916 18.8792 7.668 18.0905 8.23877C17.3018 8.80954 16.332 9.07307 15.3629 8.97995C14.3938 8.88684 13.4919 8.44347 12.8263 7.73296L8.6263 10.023C8.7875 10.6643 8.7875 11.3356 8.6263 11.977L12.8253 14.267C13.4909 13.5564 14.3928 13.1131 15.3619 13.02C16.331 12.9268 17.3008 13.1904 18.0895 13.7611C18.8782 14.3319 19.4317 15.1708 19.6462 16.1204C19.8607 17.0701 19.7215 18.0654 19.2546 18.9197C18.7878 19.774 18.0253 20.4288 17.1103 20.7612C16.1952 21.0937 15.1903 21.0809 14.284 20.7255C13.3776 20.37 12.632 19.6961 12.1869 18.8303C11.7419 17.9644 11.6279 16.9659 11.8663 16.022V16.023ZM4.7463 13C5.27673 13 5.78544 12.7892 6.16051 12.4142C6.53559 12.0391 6.7463 11.5304 6.7463 11C6.7463 10.4695 6.53559 9.96082 6.16051 9.58575C5.78544 9.21067 5.27673 8.99996 4.7463 8.99996C4.21587 8.99996 3.70716 9.21067 3.33209 9.58575C2.95701 9.96082 2.7463 10.4695 2.7463 11C2.7463 11.5304 2.95701 12.0391 3.33209 12.4142C3.70716 12.7892 4.21587 13 4.7463 13ZM15.7463 6.99996C16.2767 6.99996 16.7854 6.78925 17.1605 6.41417C17.5356 6.0391 17.7463 5.53039 17.7463 4.99996C17.7463 4.46953 17.5356 3.96082 17.1605 3.58575C16.7854 3.21067 16.2767 2.99996 15.7463 2.99996C15.2159 2.99996 14.7072 3.21067 14.3321 3.58575C13.957 3.96082 13.7463 4.46953 13.7463 4.99996C13.7463 5.53039 13.957 6.0391 14.3321 6.41417C14.7072 6.78925 15.2159 6.99996 15.7463 6.99996ZM15.7463 19C16.2767 19 16.7854 18.7892 17.1605 18.4142C17.5356 18.0391 17.7463 17.5304 17.7463 17C17.7463 16.4695 17.5356 15.9608 17.1605 15.5857C16.7854 15.2107 16.2767 15 15.7463 15C15.2159 15 14.7072 15.2107 14.3321 15.5857C13.957 15.9608 13.7463 16.4695 13.7463 17C13.7463 17.5304 13.957 18.0391 14.3321 18.4142C14.7072 18.7892 15.2159 19 15.7463 19Z" fill="#888888"/>
</svg>
