<svg width="23" height="23" viewBox="0 0 23 23" fill="none" xmlns="http://www.w3.org/2000/svg">
<path fill-rule="evenodd" clip-rule="evenodd" d="M7.80859 0.539062H16.0586C19.855 0.539062 22.9336 3.61769 22.9336 7.41406V15.6641C22.9336 19.4604 19.855 22.5391 16.0586 22.5391H7.80859C4.01222 22.5391 0.933594 19.4604 0.933594 15.6641V7.41406C0.933594 3.61769 4.01222 0.539062 7.80859 0.539062ZM16.0586 20.4766C18.7123 20.4766 20.8711 18.3178 20.8711 15.6641V7.41406C20.8711 4.76031 18.7123 2.60156 16.0586 2.60156H7.80859C5.15484 2.60156 2.99609 4.76031 2.99609 7.41406V15.6641C2.99609 18.3178 5.15484 20.4766 7.80859 20.4766H16.0586Z" fill="#B0B0B0"/>
<path fill-rule="evenodd" clip-rule="evenodd" d="M6.43359 11.5391C6.43359 8.50169 8.89622 6.03906 11.9336 6.03906C14.971 6.03906 17.4336 8.50169 17.4336 11.5391C17.4336 14.5764 14.971 17.0391 11.9336 17.0391C8.89622 17.0391 6.43359 14.5764 6.43359 11.5391ZM8.49609 11.5391C8.49609 13.4338 10.0388 14.9766 11.9336 14.9766C13.8283 14.9766 15.3711 13.4338 15.3711 11.5391C15.3711 9.64294 13.8283 8.10156 11.9336 8.10156C10.0388 8.10156 8.49609 9.64294 8.49609 11.5391Z" fill="#B0B0B0"/>
<circle cx="17.8462" cy="5.62667" r="0.732875" fill="#B0B0B0"/>
</svg>
