<svg width="23" height="19" viewBox="0 0 23 19" fill="none" xmlns="http://www.w3.org/2000/svg">
<path d="M22.4746 2.71769C21.6565 3.07656 20.7847 3.31444 19.8759 3.42994C20.8109 2.87169 21.5245 1.99444 21.86 0.937063C20.9882 1.45681 20.0257 1.82394 19 2.02881C18.1722 1.14744 16.9925 0.601562 15.7055 0.601562C13.2085 0.601562 11.1982 2.62831 11.1982 5.11294C11.1982 5.47044 11.2285 5.81419 11.3027 6.14144C7.55311 5.95856 4.23523 4.16144 2.00636 1.42381C1.61723 2.09894 1.38898 2.87169 1.38898 3.70356C1.38898 5.26556 2.19336 6.65019 3.39236 7.45181C2.66773 7.43806 1.95686 7.22769 1.35461 6.89631C1.35461 6.91006 1.35461 6.92794 1.35461 6.94581C1.35461 9.13756 2.91798 10.9581 4.96811 11.3774C4.60098 11.4778 4.20086 11.5259 3.78561 11.5259C3.49686 11.5259 3.20536 11.5094 2.93173 11.4489C3.51611 13.2351 5.17436 14.5482 7.14611 14.5908C5.61161 15.7912 3.66323 16.5144 1.55398 16.5144C1.18411 16.5144 0.829359 16.4979 0.474609 16.4526C2.47248 17.7409 4.84023 18.4766 7.39361 18.4766C15.6931 18.4766 20.2306 11.6016 20.2306 5.64231C20.2306 5.44294 20.2237 5.25044 20.2141 5.05931C21.1092 4.42406 21.8614 3.63069 22.4746 2.71769Z" fill="#B0B0B0"/>
</svg>
