<svg width="22" height="22" viewBox="0 0 22 22" fill="none" xmlns="http://www.w3.org/2000/svg">
<path d="M10.804 21.0635C8.81327 21.0634 6.86765 20.4619 5.2132 19.3355C3.55881 18.2091 2.27008 16.6086 1.50925 14.737C0.748444 12.8655 0.549466 10.8063 0.937289 8.81978C1.32511 6.83328 2.28244 5.00793 3.68893 3.57478C4.62245 2.62131 5.73151 1.86442 6.95283 1.34762C8.17422 0.830804 9.48377 0.564301 10.8066 0.563478C12.1294 0.562656 13.4393 0.827532 14.6613 1.34283C15.8832 1.85813 16.9933 2.61368 17.9279 3.56605C18.8626 4.5184 19.6036 5.64889 20.1088 6.89275C20.614 8.1366 20.8736 9.46956 20.8728 10.8155C20.872 12.1613 20.6108 13.494 20.1041 14.7372C19.5974 15.9803 18.8552 17.1097 17.9195 18.0608C16.9876 19.0154 15.879 19.7725 14.6575 20.288C13.4361 20.8035 12.1263 21.0671 10.804 21.0635ZM10.804 21.0635C10.8038 21.0635 10.8035 21.0635 10.8033 21.0635L10.804 20.8135L10.804 21.0635ZM10.804 1.73852L10.8047 1.73852C11.9739 1.73527 13.1322 1.96832 14.2126 2.42431C15.293 2.88031 16.2743 3.55026 17.0994 4.39563L17.0999 4.39611C18.7707 6.09847 19.7101 8.40833 19.7101 10.8178C19.7101 13.2273 18.7707 15.5372 17.0999 17.2395C15.4293 18.9417 13.1645 19.8971 10.804 19.8971C8.4435 19.8971 6.1787 18.9417 4.50811 17.2395C3.26221 15.97 2.41323 14.3521 2.06923 12.59C1.72523 10.8278 1.90182 9.0014 2.57649 7.34179C3.25114 5.68223 4.39331 4.26453 5.85786 3.26744C7.32234 2.27039 9.04361 1.73852 10.804 1.73852Z" fill="#616161" stroke="#616161" stroke-width="0.5"/>
<path d="M8.3272 7.63227L8.3272 9.19997H7.23903C7.05289 9.19997 6.87535 9.27535 6.74519 9.40798C6.61519 9.54044 6.54297 9.71912 6.54297 9.90447C6.54297 10.0898 6.61519 10.2685 6.74519 10.401C6.87535 10.5336 7.05289 10.609 7.23903 10.609H8.3272V15.8129C8.3272 15.9983 8.39942 16.177 8.52942 16.3094C8.65958 16.442 8.83713 16.5174 9.02326 16.5174C12.3801 16.5174 15.072 13.5287 15.072 9.90447C15.072 8.94352 14.1098 8.29098 13.0378 8.29098C11.9658 8.29098 11.0036 8.94352 11.0036 9.90447C11.0036 10.0898 11.0758 10.2685 11.2058 10.401C11.3359 10.5336 11.5135 10.609 11.6996 10.609C11.8857 10.609 12.0633 10.5336 12.1934 10.401C12.3192 10.2729 12.3908 10.1015 12.3954 9.92275C12.3972 9.91997 12.3999 9.91624 12.4036 9.91157C12.4216 9.88914 12.4565 9.85693 12.5135 9.82363C12.6268 9.75754 12.8056 9.69997 13.0378 9.69997C13.27 9.69997 13.4488 9.75754 13.562 9.82363C13.6191 9.85693 13.654 9.88914 13.672 9.91157C13.6755 9.91602 13.6781 9.91961 13.6799 9.92235C13.672 12.5395 11.9348 14.6769 9.71932 15.0504V10.609H9.91538C10.1015 10.609 10.2791 10.5336 10.4092 10.401C10.5392 10.2685 10.6114 10.0898 10.6114 9.90447C10.6114 9.71912 10.5392 9.54044 10.4092 9.40798C10.2791 9.27535 10.1015 9.19997 9.91538 9.19997H9.71932L9.71932 7.63198L9.71932 7.63171C9.71858 6.9645 9.45817 6.32391 8.99377 5.85073C8.52922 5.37738 7.89835 5.11025 7.23931 5.1095H7.23903C7.05289 5.1095 6.87535 5.18488 6.74519 5.3175C6.61519 5.44997 6.54297 5.62865 6.54297 5.81399C6.54297 5.99934 6.61519 6.17802 6.74519 6.31049C6.87528 6.44304 7.0527 6.51841 7.23873 6.51849C7.52578 6.51883 7.80195 6.63513 8.00638 6.84343C8.21094 7.05186 8.32684 7.33542 8.3272 7.63217C8.3272 7.6322 8.3272 7.63224 8.3272 7.63227Z" fill="#616161" stroke="#616161" stroke-width="0.5"/>
</svg>
