<svg width="19" height="22" viewBox="0 0 19 22" fill="none" xmlns="http://www.w3.org/2000/svg">
<path d="M9.72657 18.8999L14.6766 13.9499C15.6555 12.9709 16.3221 11.7236 16.5921 10.3658C16.8622 9.00795 16.7235 7.60052 16.1937 6.32148C15.6638 5.04244 14.7666 3.94923 13.6155 3.18009C12.4644 2.41095 11.111 2.00043 9.72657 2.00043C8.34213 2.00043 6.98878 2.41095 5.83765 3.18009C4.68652 3.94923 3.78931 5.04244 3.25948 6.32148C2.72964 7.60052 2.59098 9.00795 2.86102 10.3658C3.13106 11.7236 3.79767 12.9709 4.77657 13.9499L9.72657 18.8999ZM9.72657 21.7279L3.36257 15.3639C2.10391 14.1052 1.24675 12.5016 0.899491 10.7558C0.552233 9.00995 0.730469 7.20035 1.41166 5.55582C2.09285 3.91129 3.24641 2.50569 4.72645 1.51677C6.20649 0.527838 7.94654 0 9.72657 0C11.5066 0 13.2466 0.527838 14.7267 1.51677C16.2067 2.50569 17.3603 3.91129 18.0415 5.55582C18.7227 7.20035 18.9009 9.00995 18.5536 10.7558C18.2064 12.5016 17.3492 14.1052 16.0906 15.3639L9.72657 21.7279ZM9.72657 10.9999C10.257 10.9999 10.7657 10.7892 11.1408 10.4141C11.5159 10.0391 11.7266 9.53035 11.7266 8.99992C11.7266 8.46949 11.5159 7.96078 11.1408 7.58571C10.7657 7.21064 10.257 6.99992 9.72657 6.99992C9.19613 6.99992 8.68743 7.21064 8.31235 7.58571C7.93728 7.96078 7.72657 8.46949 7.72657 8.99992C7.72657 9.53035 7.93728 10.0391 8.31235 10.4141C8.68743 10.7892 9.19613 10.9999 9.72657 10.9999ZM9.72657 12.9999C8.6657 12.9999 7.64828 12.5785 6.89814 11.8283C6.14799 11.0782 5.72657 10.0608 5.72657 8.99992C5.72657 7.93906 6.14799 6.92164 6.89814 6.17149C7.64828 5.42135 8.6657 4.99992 9.72657 4.99992C10.7874 4.99992 11.8048 5.42135 12.555 6.17149C13.3051 6.92164 13.7266 7.93906 13.7266 8.99992C13.7266 10.0608 13.3051 11.0782 12.555 11.8283C11.8048 12.5785 10.7874 12.9999 9.72657 12.9999Z" fill="#D7D7D7"/>
</svg>
