<svg width="170" height="50" viewBox="0 0 170 50" fill="none" xmlns="http://www.w3.org/2000/svg">
<path d="M0 7.5C0 5.17029 0 4.00544 0.380602 3.08658C0.888072 1.86144 1.86144 0.888072 3.08658 0.380602C4.00544 0 5.17029 0 7.5 0H162.5C164.83 0 165.995 0 166.913 0.380602C168.139 0.888072 169.112 1.86144 169.619 3.08658C170 4.00544 170 5.17029 170 7.5V42.5C170 44.8297 170 45.9946 169.619 46.9134C169.112 48.1386 168.139 49.1119 166.913 49.6194C165.995 50 164.83 50 162.5 50H7.5C5.17029 50 4.00544 50 3.08658 49.6194C1.86144 49.1119 0.888072 48.1386 0.380602 46.9134C0 45.9946 0 44.8297 0 42.5V7.5Z" fill="#0C0D10"/>
<path d="M115.494 24.0012V26.865H113.46V28.743H115.494V35.1242C115.494 37.3032 116.611 38.1748 119.422 38.1748C119.916 38.1748 120.386 38.1229 120.798 38.0606V36.2033C120.445 36.2345 120.221 36.2552 119.833 36.2552C118.575 36.2552 118.022 35.7364 118.022 34.5536V28.743H120.798V26.865H118.022V24.0012H115.494Z" fill="white"/>
<path d="M127.957 38.3304C131.697 38.3304 133.99 36.1203 133.99 32.4576C133.99 28.8156 131.685 26.5952 127.957 26.5952C124.218 26.5952 121.913 28.8156 121.913 32.4576C121.913 36.1203 124.206 38.3304 127.957 38.3304ZM127.957 36.3486C125.758 36.3486 124.524 34.9271 124.524 32.4576C124.524 30.0089 125.758 28.577 127.957 28.577C130.145 28.577 131.391 30.0089 131.391 32.4576C131.391 34.9167 130.145 36.3486 127.957 36.3486Z" fill="white"/>
<path d="M135.952 38.1125H138.48V31.4408C138.48 29.8532 139.832 28.7845 141.749 28.7845C142.196 28.7845 142.949 28.8572 143.16 28.9194V26.7197C142.89 26.6574 142.408 26.6263 142.031 26.6263C140.362 26.6263 138.939 27.4356 138.574 28.5459H138.386V26.8131H135.952V38.1125Z" fill="white"/>
<path d="M149.438 28.494C151.308 28.494 152.531 29.6457 152.59 31.42H146.122C146.263 29.6561 147.568 28.494 149.438 28.494ZM152.578 35.062C152.107 35.9439 151.061 36.4316 149.532 36.4316C147.509 36.4316 146.204 35.1761 146.122 33.1943V33.0698H155.165V32.2916C155.165 28.743 153.013 26.5952 149.45 26.5952C145.84 26.5952 143.547 28.8883 143.547 32.4991C143.547 36.11 145.793 38.3304 149.462 38.3304C152.39 38.3304 154.436 37.0853 155.012 35.062H152.578Z" fill="white"/>
<path d="M98.9141 33.9398C99.1091 36.7145 101.73 38.4889 105.63 38.4889C109.798 38.4889 112.407 36.6284 112.407 33.6602C112.407 31.3265 110.92 30.036 107.312 29.2939L105.374 28.8745C103.082 28.4013 102.156 27.7668 102.156 26.6591C102.156 25.261 103.594 24.3469 105.752 24.3469C107.799 24.3469 109.213 25.2395 109.469 26.6698H112.126C111.968 24.0565 109.359 22.2175 105.788 22.2175C101.949 22.2175 99.3894 24.0565 99.3894 26.8204C99.3894 29.1003 100.84 30.4554 104.021 31.1114L106.288 31.5954C108.616 32.0793 109.64 32.7891 109.64 33.9721C109.64 35.3486 108.031 36.3488 105.837 36.3488C103.485 36.3488 101.851 35.4132 101.62 33.9398H98.9141Z" fill="white"/>
<path d="M72.7237 26.6263C70.9833 26.6263 69.4781 27.3941 68.702 28.6808H68.5138V26.8131H66.0796V41.8686H68.6079V36.4005H68.8078C69.4781 37.5937 70.9245 38.2993 72.7472 38.2993C75.981 38.2993 78.039 36.0477 78.039 32.4576C78.039 28.8675 75.981 26.6263 72.7237 26.6263ZM72.0064 36.2967C69.8897 36.2967 68.5608 34.8233 68.5608 32.468C68.5608 30.1023 69.8897 28.6289 72.0181 28.6289C74.1583 28.6289 75.4401 30.0711 75.4401 32.4576C75.4401 34.8545 74.1583 36.2967 72.0064 36.2967Z" fill="white"/>
<path d="M86.8858 26.6263C85.1454 26.6263 83.6402 27.3941 82.8641 28.6808H82.6759V26.8131H80.2417V41.8686H82.77V36.4005H82.9699C83.6402 37.5937 85.0866 38.2993 86.9093 38.2993C90.1432 38.2993 92.2011 36.0477 92.2011 32.4576C92.2011 28.8675 90.1432 26.6263 86.8858 26.6263ZM86.1685 36.2967C84.0518 36.2967 82.723 34.8233 82.723 32.468C82.723 30.1023 84.0518 28.6289 86.1802 28.6289C88.3205 28.6289 89.6022 30.0711 89.6022 32.4576C89.6022 34.8545 88.3205 36.2967 86.1685 36.2967Z" fill="white"/>
<path d="M61.5434 38.1125H64.4442L58.0941 22.5939H55.1568L48.8066 38.1125H51.61L53.231 33.9936H59.9346L61.5434 38.1125ZM56.4853 25.4116H56.6925L59.2398 31.9718H53.9257L56.4853 25.4116Z" fill="white"/>
<path d="M50.5059 10.8886V18.3749H53.5692C56.0975 18.3749 57.5615 17.0001 57.5615 14.6084C57.5615 12.2531 56.0857 10.8886 53.5692 10.8886H50.5059ZM51.8229 11.947H53.4222C55.1802 11.947 56.2209 12.9327 56.2209 14.624C56.2209 16.3412 55.1979 17.3165 53.4222 17.3165H51.8229V11.947Z" fill="white"/>
<path d="M62.0454 18.4838C63.9151 18.4838 65.0617 17.3788 65.0617 15.5474C65.0617 13.7264 63.9093 12.6162 62.0454 12.6162C60.1756 12.6162 59.0232 13.7264 59.0232 15.5474C59.0232 17.3788 60.1698 18.4838 62.0454 18.4838ZM62.0454 17.4929C60.9459 17.4929 60.3285 16.7822 60.3285 15.5474C60.3285 14.3231 60.9459 13.6071 62.0454 13.6071C63.139 13.6071 63.7623 14.3231 63.7623 15.5474C63.7623 16.777 63.139 17.4929 62.0454 17.4929Z" fill="white"/>
<path d="M74.8256 12.7252H73.5614L72.4208 17.0364H72.3208L71.0037 12.7252H69.7925L68.4755 17.0364H68.3814L67.2348 12.7252H65.9531L67.717 18.3749H69.0164L70.3335 14.2141H70.4334L71.7563 18.3749H73.0675L74.8256 12.7252Z" fill="white"/>
<path d="M76.2814 18.3749H77.5455V15.0701C77.5455 14.1882 78.1394 13.6382 79.0742 13.6382C80.0091 13.6382 80.456 14.0896 80.456 14.9975V18.3749H81.7201V14.7173C81.7201 13.3737 80.9322 12.6162 79.5035 12.6162C78.5392 12.6162 77.9042 12.9949 77.5926 13.6227H77.4985V12.7252H76.2814V18.3749Z" fill="white"/>
<path d="M83.711 18.3749H84.9751V10.5203H83.711V18.3749Z" fill="white"/>
<path d="M89.7295 18.4838C91.5992 18.4838 92.7458 17.3788 92.7458 15.5474C92.7458 13.7264 91.5933 12.6162 89.7295 12.6162C87.8597 12.6162 86.7073 13.7264 86.7073 15.5474C86.7073 17.3788 87.8538 18.4838 89.7295 18.4838ZM89.7295 17.4929C88.63 17.4929 88.0126 16.7822 88.0126 15.5474C88.0126 14.3231 88.63 13.6071 89.7295 13.6071C90.8231 13.6071 91.4464 14.3231 91.4464 15.5474C91.4464 16.777 90.8231 17.4929 89.7295 17.4929Z" fill="white"/>
<path d="M96.5123 17.5292C95.8244 17.5292 95.3246 17.2335 95.3246 16.7251C95.3246 16.2271 95.7244 15.9625 96.6064 15.9106L98.1704 15.8224V16.2945C98.1704 16.9949 97.4648 17.5292 96.5123 17.5292ZM96.1889 18.4683C97.0297 18.4683 97.7294 18.1466 98.1116 17.5811H98.2116V18.3749H99.4287V14.515C99.4287 13.3218 98.5232 12.6162 96.918 12.6162C95.4657 12.6162 94.4309 13.2388 94.3015 14.2089H95.5245C95.6656 13.8094 96.1537 13.5812 96.8592 13.5812C97.7235 13.5812 98.1704 13.9184 98.1704 14.515V15.0027L96.4359 15.0909C94.913 15.1739 94.0546 15.7601 94.0546 16.777C94.0546 17.8094 94.9542 18.4683 96.1889 18.4683Z" fill="white"/>
<path d="M103.719 18.4683C104.6 18.4683 105.347 18.0999 105.729 17.4825H105.829V18.3749H107.041V10.5203H105.776V13.6227H105.682C105.335 13.0001 104.595 12.6318 103.719 12.6318C102.102 12.6318 101.061 13.7628 101.061 15.5474C101.061 17.3373 102.09 18.4683 103.719 18.4683ZM104.077 13.6331C105.136 13.6331 105.8 14.3749 105.8 15.5526C105.8 16.7355 105.141 17.467 104.077 17.467C103.007 17.467 102.366 16.7458 102.366 15.5474C102.366 14.3594 103.013 13.6331 104.077 13.6331Z" fill="white"/>
<path d="M115.238 18.4838C117.108 18.4838 118.254 17.3788 118.254 15.5474C118.254 13.7264 117.102 12.6162 115.238 12.6162C113.368 12.6162 112.216 13.7264 112.216 15.5474C112.216 17.3788 113.362 18.4838 115.238 18.4838ZM115.238 17.4929C114.139 17.4929 113.521 16.7822 113.521 15.5474C113.521 14.3231 114.139 13.6071 115.238 13.6071C116.332 13.6071 116.955 14.3231 116.955 15.5474C116.955 16.777 116.332 17.4929 115.238 17.4929Z" fill="white"/>
<path d="M119.928 18.3749H121.192V15.0701C121.192 14.1882 121.786 13.6382 122.721 13.6382C123.655 13.6382 124.102 14.0896 124.102 14.9975V18.3749H125.366V14.7173C125.366 13.3737 124.579 12.6162 123.15 12.6162C122.186 12.6162 121.551 12.9949 121.239 13.6227H121.145V12.7252H119.928V18.3749Z" fill="white"/>
<path d="M131.189 11.3192V12.7511H130.171V13.6901H131.189V16.8807C131.189 17.9702 131.747 18.406 133.152 18.406C133.399 18.406 133.635 18.3801 133.84 18.3489V17.4203C133.664 17.4359 133.552 17.4462 133.358 17.4462C132.729 17.4462 132.453 17.1868 132.453 16.5954V13.6901H133.84V12.7511H132.453V11.3192H131.189Z" fill="white"/>
<path d="M135.537 18.3749H136.801V15.0753C136.801 14.2193 137.378 13.6434 138.412 13.6434C139.306 13.6434 139.782 14.1 139.782 15.0027V18.3749H141.046V14.7277C141.046 13.384 140.206 12.6214 138.842 12.6214C137.877 12.6214 137.201 13.0001 136.89 13.6331H136.79V10.5203H135.537V18.3749Z" fill="white"/>
<path d="M145.607 13.5656C146.542 13.5656 147.153 14.1415 147.183 15.0286H143.949C144.019 14.1467 144.672 13.5656 145.607 13.5656ZM147.177 16.8496C146.941 17.2906 146.418 17.5344 145.654 17.5344C144.643 17.5344 143.99 16.9067 143.949 15.9158V15.8535H148.47V15.4644C148.47 13.6901 147.394 12.6162 145.613 12.6162C143.808 12.6162 142.661 13.7628 142.661 15.5682C142.661 17.3736 143.784 18.4838 145.619 18.4838C147.083 18.4838 148.106 17.8613 148.394 16.8496H147.177Z" fill="white"/>
<path d="M35.0898 25.3761C35.1205 23.2748 36.3994 21.2866 38.4283 20.186C37.1484 18.5731 35.0045 17.5505 32.7741 17.4889C30.3952 17.2686 28.0889 18.7449 26.8767 18.7449C25.641 18.7449 23.7745 17.5108 21.7646 17.5473C19.1449 17.622 16.7026 18.9362 15.428 20.9571C12.6882 25.1426 14.7318 31.2939 17.3564 34.6772C18.6695 36.3339 20.2041 38.1845 22.2122 38.1188C24.1772 38.0469 24.9111 37.0132 27.283 37.0132C29.6329 37.0132 30.3215 38.1188 32.3703 38.0771C34.4788 38.0469 35.8073 36.4131 37.0743 34.7407C38.0178 33.5602 38.7438 32.2556 39.2254 30.875C36.7475 29.9503 35.0927 27.75 35.0898 25.3761Z" fill="white"/>
<path d="M31.22 15.2639C32.3696 14.0461 32.936 12.4809 32.7989 10.9006C31.0424 11.0634 29.42 11.8041 28.2548 12.9751C27.1154 14.1193 26.5224 15.657 26.6345 17.1769C28.3916 17.1928 30.1189 16.4722 31.22 15.2639Z" fill="white"/>
<path d="M3.08658 49.6194L2.7039 50.5433L3.08658 49.6194ZM0.380602 46.9134L-0.543277 47.2961L0.380602 46.9134ZM169.619 46.9134L168.696 46.5307L169.619 46.9134ZM166.913 49.6194L167.296 50.5433L166.913 49.6194ZM166.913 0.380602L166.531 1.30448L166.913 0.380602ZM169.619 3.08658L170.543 2.7039L169.619 3.08658ZM7.5 1H162.5V-1H7.5V1ZM169 7.5V42.5H171V7.5H169ZM162.5 49H7.5V51H162.5V49ZM1 42.5V7.5H-1V42.5H1ZM7.5 49C6.32146 49 5.48764 48.9995 4.83229 48.9547C4.18592 48.9106 3.78654 48.8269 3.46927 48.6955L2.7039 50.5433C3.30548 50.7925 3.94795 50.8991 4.69615 50.9501C5.43537 51.0005 6.34883 51 7.5 51V49ZM-1 42.5C-1 43.6512 -1.00054 44.5646 -0.950105 45.3038C-0.899056 46.052 -0.792462 46.6945 -0.543277 47.2961L1.30448 46.5307C1.17306 46.2135 1.08936 45.8141 1.04526 45.1677C1.00054 44.5124 1 43.6785 1 42.5H-1ZM3.46927 48.6955C2.48915 48.2895 1.71046 47.5108 1.30448 46.5307L-0.543277 47.2961C0.0656865 48.7663 1.23373 49.9343 2.7039 50.5433L3.46927 48.6955ZM169 42.5C169 43.6785 168.999 44.5124 168.955 45.1677C168.911 45.8141 168.827 46.2135 168.696 46.5307L170.543 47.2961C170.792 46.6945 170.899 46.052 170.95 45.3038C171.001 44.5646 171 43.6512 171 42.5H169ZM162.5 51C163.651 51 164.565 51.0005 165.304 50.9501C166.052 50.8991 166.695 50.7925 167.296 50.5433L166.531 48.6955C166.213 48.8269 165.814 48.9106 165.168 48.9547C164.512 48.9995 163.679 49 162.5 49V51ZM168.696 46.5307C168.29 47.5108 167.511 48.2895 166.531 48.6955L167.296 50.5433C168.766 49.9343 169.934 48.7663 170.543 47.2961L168.696 46.5307ZM162.5 1C163.679 1 164.512 1.00054 165.168 1.04526C165.814 1.08936 166.213 1.17306 166.531 1.30448L167.296 -0.543277C166.695 -0.792462 166.052 -0.899056 165.304 -0.950105C164.565 -1.00054 163.651 -1 162.5 -1V1ZM171 7.5C171 6.34883 171.001 5.43537 170.95 4.69615C170.899 3.94795 170.792 3.30548 170.543 2.7039L168.696 3.46927C168.827 3.78654 168.911 4.18592 168.955 4.83229C168.999 5.48764 169 6.32146 169 7.5H171ZM166.531 1.30448C167.511 1.71046 168.29 2.48915 168.696 3.46927L170.543 2.7039C169.934 1.23373 168.766 0.0656865 167.296 -0.543277L166.531 1.30448ZM7.5 -1C6.34883 -1 5.43537 -1.00054 4.69615 -0.950105C3.94795 -0.899056 3.30548 -0.792462 2.7039 -0.543277L3.46927 1.30448C3.78654 1.17306 4.18592 1.08936 4.83229 1.04526C5.48764 1.00054 6.32146 1 7.5 1V-1ZM1 7.5C1 6.32146 1.00054 5.48764 1.04526 4.83229C1.08936 4.18592 1.17306 3.78654 1.30448 3.46927L-0.543277 2.7039C-0.792462 3.30548 -0.899056 3.94795 -0.950105 4.69615C-1.00054 5.43537 -1 6.34883 -1 7.5H1ZM2.7039 -0.543277C1.23373 0.0656865 0.0656865 1.23373 -0.543277 2.7039L1.30448 3.46927C1.71046 2.48915 2.48915 1.71046 3.46927 1.30448L2.7039 -0.543277Z" fill="#A6A6A6"/>
</svg>
