<svg width="170" height="50" viewBox="0 0 170 50" fill="none" xmlns="http://www.w3.org/2000/svg">
<path d="M0 5C0 2.23858 2.23858 0 5 0H165C167.761 0 170 2.23858 170 5V45C170 47.7614 167.761 50 165 50H5C2.23858 50 0 47.7614 0 45V5Z" fill="black"/>
<path d="M85.8 27.1888C82.8382 27.1888 80.4242 29.4251 80.4242 32.5051C80.4242 35.5663 82.8382 37.8213 85.8 37.8213C88.763 37.8213 91.177 35.5663 91.177 32.5051C91.1758 29.4251 88.7618 27.1888 85.8 27.1888ZM85.8 35.7288C84.1768 35.7288 82.7778 34.4001 82.7778 32.5063C82.7778 30.5926 84.1781 29.2838 85.8 29.2838C87.4232 29.2838 88.8222 30.5926 88.8222 32.5063C88.8222 34.3988 87.4232 35.7288 85.8 35.7288ZM74.0713 27.1888C71.1095 27.1888 68.6955 29.4251 68.6955 32.5051C68.6955 35.5663 71.1095 37.8213 74.0713 37.8213C77.0343 37.8213 79.4483 35.5663 79.4483 32.5051C79.4483 29.4251 77.0343 27.1888 74.0713 27.1888ZM74.0713 35.7288C72.4481 35.7288 71.049 34.4001 71.049 32.5063C71.049 30.5926 72.4493 29.2838 74.0713 29.2838C75.6945 29.2838 77.0935 30.5926 77.0935 32.5063C77.0948 34.3988 75.6945 35.7288 74.0713 35.7288ZM60.1212 28.8213V31.0763H65.5587C65.3962 32.3451 64.9706 33.2713 64.3208 33.9151C63.53 34.7001 62.2922 35.5663 60.1212 35.5663C56.7741 35.5663 54.1573 32.8876 54.1573 29.5651C54.1573 26.2426 56.7741 23.5638 60.1212 23.5638C61.927 23.5638 63.2454 24.2688 64.2188 25.1751L65.8219 23.5838C64.4619 22.2951 62.6573 21.3088 60.1212 21.3088C55.5362 21.3088 51.6816 25.0138 51.6816 29.5651C51.6816 34.1163 55.5362 37.8213 60.1212 37.8213C62.5956 37.8213 64.4631 37.0151 65.9226 35.5051C67.4236 34.0151 67.8908 31.9201 67.8908 30.2288C67.8908 29.7063 67.8505 29.2226 67.7687 28.8201H60.1212V28.8213ZM117.176 30.5726C116.73 29.3851 115.37 27.1888 112.591 27.1888C109.832 27.1888 107.539 29.3438 107.539 32.5051C107.539 35.4851 109.812 37.8213 112.854 37.8213C115.308 37.8213 116.729 36.3313 117.318 35.4651L115.492 34.2563C114.884 35.1426 114.051 35.7263 112.854 35.7263C111.658 35.7263 110.805 35.1826 110.257 34.1151L117.419 31.1751L117.176 30.5726ZM109.872 32.3451C109.812 30.2901 111.475 29.2438 112.673 29.2438C113.606 29.2438 114.397 29.7076 114.661 30.3713L109.872 32.3451ZM104.05 37.5001H106.403V21.8738H104.05V37.5001ZM100.195 28.3776H100.114C99.5864 27.7526 98.5714 27.1888 97.2945 27.1888C94.6161 27.1888 92.1618 29.5251 92.1618 32.5263C92.1618 35.5063 94.6161 37.8226 97.2945 37.8226C98.5727 37.8226 99.5864 37.2588 100.114 36.6151H100.195V37.3801C100.195 39.4138 99.099 40.5013 97.3348 40.5013C95.8942 40.5013 95.0014 39.4751 94.6362 38.6088L92.5874 39.4551C93.1755 40.8638 94.737 42.5963 97.3348 42.5963C100.094 42.5963 102.427 40.9851 102.427 37.0576V27.5126H100.196V28.3776H100.195ZM97.4973 35.7288C95.8741 35.7288 94.5153 34.3788 94.5153 32.5263C94.5153 30.6526 95.8741 29.2838 97.4973 29.2838C99.0991 29.2838 100.357 30.6526 100.357 32.5263C100.357 34.3788 99.0991 35.7288 97.4973 35.7288ZM128.199 21.8738H122.569V37.5001H124.918V31.5801H128.198C130.802 31.5801 133.363 29.7088 133.363 26.7276C133.363 23.7463 130.803 21.8738 128.199 21.8738ZM128.26 29.4051H124.918V24.0488H128.26C130.016 24.0488 131.014 25.4926 131.014 26.7276C131.014 27.9376 130.016 29.4051 128.26 29.4051ZM142.781 27.1613C141.08 27.1613 139.319 27.9051 138.589 29.5538L140.675 30.4176C141.121 29.5538 141.952 29.2713 142.822 29.2713C144.037 29.2713 145.272 29.9951 145.292 31.2813V31.4426C144.867 31.2013 143.955 30.8401 142.842 30.8401C140.594 30.8401 138.305 32.0663 138.305 34.3576C138.305 36.4488 140.148 37.7951 142.214 37.7951C143.793 37.7951 144.664 37.0913 145.211 36.2663H145.291V37.4726H147.56V31.4813C147.562 28.7088 145.474 27.1613 142.781 27.1613ZM142.497 35.7251C141.729 35.7251 140.655 35.3426 140.655 34.3976C140.655 33.1913 141.992 32.7288 143.147 32.7288C144.178 32.7288 144.665 32.9501 145.292 33.2513C145.11 34.7001 143.854 35.7251 142.497 35.7251ZM155.824 27.5026L153.13 34.2776H153.049L150.254 27.5026H147.723L151.915 36.9713L149.525 42.2388H151.975L158.437 27.5026H155.824ZM134.661 37.5001H137.009V21.8738H134.661V37.5001Z" fill="white"/>
<path d="M59.7109 12.8037C59.7109 13.8512 59.3986 14.685 58.7728 15.3075C58.0626 16.0475 57.1357 16.4175 55.9974 16.4175C54.9069 16.4175 53.9788 16.0425 53.2169 15.2925C52.4538 14.5412 52.0723 13.6112 52.0723 12.5012C52.0723 11.39 52.4538 10.46 53.2169 9.70999C53.9788 8.95874 54.9069 8.58374 55.9974 8.58374C56.5389 8.58374 57.0564 8.68874 57.5475 8.89749C58.0399 9.10749 58.434 9.38624 58.7287 9.73499L58.0651 10.395C57.5652 9.80124 56.8763 9.50499 55.9961 9.50499C55.2003 9.50499 54.5127 9.78249 53.9322 10.3375C53.3517 10.8925 53.062 11.6137 53.062 12.5C53.062 13.3862 53.3517 14.1075 53.9322 14.6625C54.5127 15.2175 55.2003 15.495 55.9961 15.495C56.8398 15.495 57.5437 15.2162 58.1066 14.6575C58.4718 14.2937 58.6834 13.7875 58.74 13.1387H55.9961V12.2375H59.6568C59.6946 12.4337 59.7109 12.6225 59.7109 12.8037Z" fill="white"/>
<path d="M65.5162 9.67131H62.0759V12.0488H65.1788V12.9501H62.0759V15.3276H65.5162V16.2501H61.1051V8.75006H65.5162V9.67131Z" fill="white"/>
<path d="M69.6099 16.2501H68.6391V9.67131H66.5285V8.75006H71.7205V9.67131H69.6099V16.2501Z" fill="white"/>
<path d="M75.4768 16.2501V8.75006H76.4477V16.2501H75.4768Z" fill="white"/>
<path d="M80.7533 16.2501H79.7824V9.67131H77.6719V8.75006H82.8638V9.67131H80.7533V16.2501Z" fill="white"/>
<path d="M92.692 15.2813C91.9491 16.0388 91.026 16.4175 89.9217 16.4175C88.8173 16.4175 87.8943 16.0388 87.1526 15.2813C86.4096 14.5238 86.0394 13.5963 86.0394 12.5C86.0394 11.4038 86.4096 10.4763 87.1526 9.7188C87.8943 8.9613 88.8173 8.5813 89.9217 8.5813C91.0197 8.5813 91.9415 8.96255 92.687 9.7238C93.4325 10.485 93.8052 11.41 93.8052 12.5C93.8052 13.5963 93.4337 14.5238 92.692 15.2813ZM87.8691 14.6525C88.4282 15.215 89.112 15.495 89.9217 15.495C90.7314 15.495 91.4164 15.2138 91.9743 14.6525C92.5334 14.09 92.8142 13.3725 92.8142 12.5C92.8142 11.6275 92.5334 10.91 91.9743 10.3475C91.4164 9.78505 90.7314 9.50505 89.9217 9.50505C89.112 9.50505 88.4282 9.7863 87.8691 10.3475C87.3112 10.91 87.0304 11.6275 87.0304 12.5C87.0304 13.3725 87.3112 14.09 87.8691 14.6525Z" fill="white"/>
<path d="M95.1678 16.2501V8.75006H96.349L100.021 14.5838H100.063L100.021 13.1388V8.75006H100.992V16.2501H99.9781L96.1361 10.1326H96.0946L96.1361 11.5776V16.2501H95.1678Z" fill="white"/>
<path d="M59.7109 12.8037C59.7109 13.8512 59.3986 14.685 58.7728 15.3075C58.0626 16.0475 57.1357 16.4175 55.9974 16.4175C54.9069 16.4175 53.9788 16.0425 53.2169 15.2925C52.4538 14.5412 52.0723 13.6112 52.0723 12.5012C52.0723 11.39 52.4538 10.46 53.2169 9.70999C53.9788 8.95874 54.9069 8.58374 55.9974 8.58374C56.5389 8.58374 57.0564 8.68874 57.5475 8.89749C58.0399 9.10749 58.434 9.38624 58.7287 9.73499L58.0651 10.395C57.5652 9.80124 56.8763 9.50499 55.9961 9.50499C55.2003 9.50499 54.5127 9.78249 53.9322 10.3375C53.3517 10.8925 53.062 11.6137 53.062 12.5C53.062 13.3862 53.3517 14.1075 53.9322 14.6625C54.5127 15.2175 55.2003 15.495 55.9961 15.495C56.8398 15.495 57.5437 15.2162 58.1066 14.6575C58.4718 14.2937 58.6834 13.7875 58.74 13.1387H55.9961V12.2375H59.6568C59.6946 12.4337 59.7109 12.6225 59.7109 12.8037Z" stroke="white" stroke-width="0.2" stroke-miterlimit="10"/>
<path d="M65.5162 9.67131H62.0759V12.0488H65.1788V12.9501H62.0759V15.3276H65.5162V16.2501H61.1051V8.75006H65.5162V9.67131Z" stroke="white" stroke-width="0.2" stroke-miterlimit="10"/>
<path d="M69.6099 16.2501H68.6391V9.67131H66.5285V8.75006H71.7205V9.67131H69.6099V16.2501Z" stroke="white" stroke-width="0.2" stroke-miterlimit="10"/>
<path d="M75.4768 16.2501V8.75006H76.4477V16.2501H75.4768Z" stroke="white" stroke-width="0.2" stroke-miterlimit="10"/>
<path d="M80.7533 16.2501H79.7824V9.67131H77.6719V8.75006H82.8638V9.67131H80.7533V16.2501Z" stroke="white" stroke-width="0.2" stroke-miterlimit="10"/>
<path d="M92.692 15.2813C91.9491 16.0388 91.026 16.4175 89.9217 16.4175C88.8173 16.4175 87.8943 16.0388 87.1526 15.2813C86.4096 14.5238 86.0394 13.5963 86.0394 12.5C86.0394 11.4038 86.4096 10.4763 87.1526 9.7188C87.8943 8.9613 88.8173 8.5813 89.9217 8.5813C91.0197 8.5813 91.9415 8.96255 92.687 9.7238C93.4325 10.485 93.8052 11.41 93.8052 12.5C93.8052 13.5963 93.4337 14.5238 92.692 15.2813ZM87.8691 14.6525C88.4282 15.215 89.112 15.495 89.9217 15.495C90.7314 15.495 91.4164 15.2138 91.9743 14.6525C92.5334 14.09 92.8142 13.3725 92.8142 12.5C92.8142 11.6275 92.5334 10.91 91.9743 10.3475C91.4164 9.78505 90.7314 9.50505 89.9217 9.50505C89.112 9.50505 88.4282 9.7863 87.8691 10.3475C87.3112 10.91 87.0304 11.6275 87.0304 12.5C87.0304 13.3725 87.3112 14.09 87.8691 14.6525Z" stroke="white" stroke-width="0.2" stroke-miterlimit="10"/>
<path d="M95.1678 16.2501V8.75006H96.349L100.021 14.5838H100.063L100.021 13.1388V8.75006H100.992V16.2501H99.9781L96.1361 10.1326H96.0946L96.1361 11.5776V16.2501H95.1678Z" stroke="white" stroke-width="0.2" stroke-miterlimit="10"/>
<g filter="url(#filter0_ii)">
<path d="M13.1416 9.42255C12.7752 9.80755 12.5586 10.405 12.5586 11.1788V38.8238C12.5586 39.5988 12.7752 40.195 13.1416 40.58L13.2348 40.67L28.8358 25.1838V25.0013V24.8188L13.2348 9.3313L13.1416 9.42255Z" fill="url(#paint0_linear)"/>
<path d="M34.0354 30.3475L28.8359 25.1837V25.0012V24.8187L34.0367 19.6563L34.1538 19.7225L40.3153 23.1975C42.0745 24.19 42.0745 25.8137 40.3153 26.8075L34.1538 30.2825L34.0354 30.3475Z" fill="url(#paint1_linear)"/>
<g filter="url(#filter1_i)">
<path d="M34.1546 30.2815L28.8355 25.0015L13.1426 40.5802C13.7218 41.1902 14.6801 41.2652 15.7593 40.6577L34.1546 30.2815Z" fill="url(#paint2_linear)"/>
</g>
<path d="M34.1546 19.7214L15.7593 9.34636C14.6801 8.73761 13.7218 8.81386 13.1426 9.42386L28.8367 25.0026L34.1546 19.7214Z" fill="url(#paint3_linear)"/>
</g>
<path d="M5 1H165V-1H5V1ZM169 5V45H171V5H169ZM165 49H5V51H165V49ZM1 45V5H-1V45H1ZM5 49C2.79086 49 1 47.2091 1 45H-1C-1 48.3137 1.6863 51 5 51V49ZM169 45C169 47.2091 167.209 49 165 49V51C168.314 51 171 48.3137 171 45H169ZM165 1C167.209 1 169 2.79086 169 5H171C171 1.68629 168.314 -1 165 -1V1ZM5 -1C1.68629 -1 -1 1.68629 -1 5H1C1 2.79086 2.79086 1 5 1V-1Z" fill="#A6A6A6"/>
<defs>
<filter id="filter0_ii" x="12.5586" y="8.92627" width="29.0761" height="32.151" filterUnits="userSpaceOnUse" color-interpolation-filters="sRGB">
<feFlood flood-opacity="0" result="BackgroundImageFix"/>
<feBlend mode="normal" in="SourceGraphic" in2="BackgroundImageFix" result="shape"/>
<feColorMatrix in="SourceAlpha" type="matrix" values="0 0 0 0 0 0 0 0 0 0 0 0 0 0 0 0 0 0 127 0" result="hardAlpha"/>
<feOffset dy="-0.15"/>
<feComposite in2="hardAlpha" operator="arithmetic" k2="-1" k3="1"/>
<feColorMatrix type="matrix" values="0 0 0 0 0 0 0 0 0 0 0 0 0 0 0 0 0 0 0.12 0"/>
<feBlend mode="normal" in2="shape" result="effect1_innerShadow"/>
<feColorMatrix in="SourceAlpha" type="matrix" values="0 0 0 0 0 0 0 0 0 0 0 0 0 0 0 0 0 0 127 0" result="hardAlpha"/>
<feOffset dy="0.15"/>
<feComposite in2="hardAlpha" operator="arithmetic" k2="-1" k3="1"/>
<feColorMatrix type="matrix" values="0 0 0 0 1 0 0 0 0 1 0 0 0 0 1 0 0 0 0.25 0"/>
<feBlend mode="normal" in2="effect1_innerShadow" result="effect2_innerShadow"/>
</filter>
<filter id="filter1_i" x="13.1426" y="25.0015" width="21.012" height="16.0759" filterUnits="userSpaceOnUse" color-interpolation-filters="sRGB">
<feFlood flood-opacity="0" result="BackgroundImageFix"/>
<feBlend mode="normal" in="SourceGraphic" in2="BackgroundImageFix" result="shape"/>
<feColorMatrix in="SourceAlpha" type="matrix" values="0 0 0 0 0 0 0 0 0 0 0 0 0 0 0 0 0 0 127 0" result="hardAlpha"/>
<feOffset dy="-0.15"/>
<feComposite in2="hardAlpha" operator="arithmetic" k2="-1" k3="1"/>
<feColorMatrix type="matrix" values="0 0 0 0 0 0 0 0 0 0 0 0 0 0 0 0 0 0 0.08 0"/>
<feBlend mode="normal" in2="shape" result="effect1_innerShadow"/>
</filter>
<linearGradient id="paint0_linear" x1="27.4529" y1="10.8863" x2="6.47593" y2="32.0186" gradientUnits="userSpaceOnUse">
<stop stop-color="#00A0FF"/>
<stop offset="0.0066" stop-color="#00A1FF"/>
<stop offset="0.2601" stop-color="#00BEFF"/>
<stop offset="0.5122" stop-color="#00D2FF"/>
<stop offset="0.7604" stop-color="#00DFFF"/>
<stop offset="1" stop-color="#00E3FF"/>
</linearGradient>
<linearGradient id="paint1_linear" x1="42.6053" y1="25.0013" x2="12.1364" y2="25.0013" gradientUnits="userSpaceOnUse">
<stop stop-color="#FFE000"/>
<stop offset="0.4087" stop-color="#FFBD00"/>
<stop offset="0.7754" stop-color="#FFA500"/>
<stop offset="1" stop-color="#FF9C00"/>
</linearGradient>
<linearGradient id="paint2_linear" x1="31.266" y1="27.8688" x2="2.81862" y2="56.5269" gradientUnits="userSpaceOnUse">
<stop stop-color="#FF3A44"/>
<stop offset="1" stop-color="#C31162"/>
</linearGradient>
<linearGradient id="paint3_linear" x1="9.19027" y1="0.221114" x2="21.8928" y2="13.0177" gradientUnits="userSpaceOnUse">
<stop stop-color="#32A071"/>
<stop offset="0.0685" stop-color="#2DA771"/>
<stop offset="0.4762" stop-color="#15CF74"/>
<stop offset="0.8009" stop-color="#06E775"/>
<stop offset="1" stop-color="#00F076"/>
</linearGradient>
</defs>
</svg>
