<svg width="206" height="126" viewBox="0 0 206 126" fill="none" xmlns="http://www.w3.org/2000/svg">
<rect y="0.336792" width="206.844" height="125" rx="10" fill="#FCDFCF"/>
<path d="M78.7127 60.6051L69.4778 61.4786L65.0509 68.8369L61.2836 61.1874L52.166 59.6522L59.0555 54.0541L57.8535 45.7429L65.8864 49.9382L74.2565 46.3385L72.3362 54.5173L78.7127 60.6051Z" fill="#FFFBAB"/>
<path d="M45.5311 81.2672L40.9137 81.704L38.7002 85.3831L36.8166 81.5584L32.2578 80.7908L35.7026 77.9917L35.1016 73.8362L39.118 75.9338L43.303 74.134L42.3429 78.2233L45.5311 81.2672Z" fill="#FFFBAB"/>
<g clip-path="url(#clip0)">
<g style="mix-blend-mode:multiply" opacity="0.37">
<path d="M168.289 89.511C180.534 89.511 190.461 88.5529 190.461 87.371C190.461 86.1891 180.534 85.231 168.289 85.231C156.044 85.231 146.117 86.1891 146.117 87.371C146.117 88.5529 156.044 89.511 168.289 89.511Z" fill="#76AADB"/>
</g>
<path d="M150.768 38.4539L145.713 48.0281L148.239 49.3622L152.449 46.2963L150.768 38.4539Z" fill="#161A2B"/>
<path d="M145.713 48.0281C145.713 48.0281 145.288 49.5516 147.402 49.4232V48.3543C147.067 48.2989 146.736 48.2229 146.412 48.127C146.184 48.0679 145.949 48.0347 145.713 48.0281Z" fill="white"/>
<path d="M176.385 57.6529C176.385 58.585 178.249 59.3363 180.554 59.3363C182.859 59.3363 184.722 58.5808 184.722 57.6529C184.722 56.7249 182.857 55.9695 180.554 55.9695C178.252 55.9695 176.385 56.7207 176.385 57.6529Z" fill="#050811"/>
<path d="M170.25 12.7044C170.25 12.9994 170.153 13.2878 169.972 13.5331C169.79 13.7784 169.532 13.9696 169.231 14.0826C168.929 14.1955 168.597 14.2252 168.276 14.1678C167.956 14.1104 167.661 13.9685 167.43 13.7601C167.199 13.5517 167.041 13.286 166.977 12.9968C166.913 12.7075 166.946 12.4076 167.07 12.135C167.195 11.8623 167.407 11.6292 167.678 11.465C167.949 11.3008 168.269 11.2129 168.595 11.2125C168.813 11.212 169.028 11.2502 169.229 11.3249C169.43 11.3997 169.612 11.5095 169.766 11.6481C169.92 11.7868 170.042 11.9514 170.125 12.1327C170.208 12.314 170.251 12.5083 170.25 12.7044Z" fill="black"/>
<path d="M169.078 13.8322C169.078 14.1274 168.981 14.416 168.8 14.6615C168.618 14.9069 168.359 15.0981 168.057 15.2109C167.755 15.3237 167.422 15.353 167.102 15.2951C166.781 15.2372 166.487 15.0947 166.256 14.8856C166.025 14.6765 165.868 14.4103 165.805 14.1206C165.741 13.831 165.775 13.5309 165.901 13.2583C166.026 12.9858 166.239 12.7531 166.511 12.5897C166.784 12.4262 167.104 12.3394 167.431 12.3403C167.868 12.3419 168.287 12.4998 168.595 12.7793C168.904 13.0589 169.078 13.4374 169.078 13.8322Z" fill="black"/>
<path d="M163.321 57.6529C163.321 58.585 161.457 59.3363 159.154 59.3363C156.851 59.3363 154.984 58.5808 154.984 57.6529C154.984 56.7249 156.849 55.9695 159.154 55.9695C161.459 55.9695 163.321 56.7207 163.321 57.6529Z" fill="#050811"/>
<path d="M173.64 82.2282L172.927 85.231L170.893 84.9974V81.5464L173.64 82.2282Z" fill="white"/>
<path d="M170.925 84.7827C170.925 84.7827 169.713 86.0452 170.196 87.1668C170.678 88.2883 179.425 87.4551 179.425 87.4551C179.425 87.4551 179.744 87.2762 179.178 87.0616L175.097 85.7044C175.097 85.7044 173.375 84.8627 172.484 84.9952C171.953 85.0419 171.417 84.9688 170.925 84.7827Z" fill="black"/>
<path d="M163.68 82.2282L164.393 85.231L166.425 84.9974V81.5464L163.68 82.2282Z" fill="white"/>
<path d="M166.404 84.7827C166.404 84.7827 167.618 86.0452 167.136 87.1668C166.654 88.2883 157.904 87.4551 157.904 87.4551C157.904 87.4551 157.585 87.2762 158.151 87.0616L162.232 85.7044C162.232 85.7044 163.957 84.8627 164.847 84.9952C165.378 85.0417 165.913 84.9687 166.404 84.7827Z" fill="black"/>
<path d="M181.798 50.6311C181.798 50.6311 179.278 72.3552 173.995 83.2972H169.993L169.308 64.4517L167.196 83.2972H163.134C163.134 83.2972 156.407 69.121 158.661 52.1419C160.915 35.1629 181.798 50.6311 181.798 50.6311Z" fill="#1E2238"/>
<path d="M170.196 56.565L170.292 56.5461C170.541 46.8855 170.25 37.2103 169.793 27.5476H169.767C168.577 27.2715 167.334 27.234 166.126 27.438C164.918 27.6419 163.774 28.0823 162.775 28.7281C158.452 31.5225 152.59 38.8411 154.995 57.7665C154.995 57.7665 157.254 54.6102 163.432 57.2026C163.606 57.0663 163.81 56.9635 164.029 56.9005C164.249 56.8375 164.48 56.8157 164.71 56.8364L164.835 56.847C165.439 56.0221 166.805 55.5655 167.865 56.4261C168.16 56.6553 168.471 56.8662 168.798 57.0574C169.273 56.8933 169.723 56.687 170.196 56.565Z" fill="#161A2B"/>
<path d="M169.508 56.565C169.478 56.565 169.445 56.5544 169.415 56.546C169.163 46.8855 169.455 37.2102 169.912 27.5476C170.865 27.3274 171.831 27.1566 172.806 27.0363C172.806 27.0363 188.373 28.8964 184.707 57.7581C184.707 57.7581 180.621 54.6017 174.452 57.2046C174.146 56.9563 173.326 57.1752 172.778 57.2046C172.739 57.2046 173.519 56.5481 173.478 56.5523C172.872 55.7275 172.907 55.557 171.846 56.4092C171.552 56.6389 171.24 56.8499 170.914 57.0405C170.431 56.8932 169.993 56.687 169.508 56.565Z" fill="#161A2B"/>
<path d="M169.224 27.6676C168.749 27.5716 168.254 27.5836 167.785 27.7026C167.316 27.8216 166.887 28.0438 166.537 28.3494C165.555 29.2268 164.553 30.8197 165.395 33.4122C166.835 37.8563 167.334 52.3145 163.465 57.19C165.118 57.8653 166.906 58.2279 168.72 58.2554C170.533 58.2829 172.334 57.9748 174.011 57.3499L174.442 57.19C174.442 57.19 172.049 48.5626 173.447 42.292C174.846 36.0214 174.95 28.7134 172.021 27.918C170.676 27.5645 169.953 27.8128 169.224 27.6676Z" fill="#EDEEF0"/>
<path d="M176.24 22.6763C176.241 22.9715 176.144 23.2601 175.963 23.5057C175.782 23.7514 175.524 23.9429 175.222 24.0562C174.92 24.1694 174.588 24.1992 174.267 24.1419C173.946 24.0846 173.652 23.9427 173.42 23.7341C173.189 23.5255 173.031 23.2597 172.967 22.9703C172.904 22.6808 172.936 22.3807 173.061 22.108C173.186 21.8353 173.398 21.6021 173.67 21.4381C173.941 21.2741 174.261 21.1865 174.588 21.1865C174.805 21.1862 175.02 21.2246 175.22 21.2993C175.421 21.3741 175.603 21.4838 175.756 21.6221C175.91 21.7605 176.032 21.9248 176.115 22.1057C176.198 22.2866 176.24 22.4805 176.24 22.6763Z" fill="black"/>
<path d="M175.098 24.2314C175.098 24.5266 175.002 24.8154 174.82 25.061C174.639 25.3067 174.381 25.4982 174.079 25.6114C173.777 25.7246 173.444 25.7543 173.124 25.6968C172.803 25.6393 172.508 25.4972 172.277 25.2884C172.046 25.0796 171.888 24.8136 171.825 24.524C171.761 24.2344 171.794 23.9343 171.919 23.6616C172.045 23.3889 172.257 23.1559 172.529 22.9921C172.801 22.8284 173.121 22.7412 173.448 22.7416C173.885 22.7416 174.305 22.8985 174.615 23.1779C174.924 23.4573 175.098 23.8363 175.098 24.2314Z" fill="black"/>
<path d="M178.278 20.7615C178.278 21.0566 178.181 21.345 177.999 21.5904C177.817 21.8357 177.559 22.0269 177.257 22.1398C176.956 22.2528 176.623 22.2823 176.303 22.2247C175.982 22.1672 175.688 22.0251 175.457 21.8164C175.226 21.6078 175.068 21.342 175.004 21.0526C174.941 20.7632 174.973 20.4632 175.098 20.1906C175.224 19.918 175.435 19.685 175.707 19.521C175.979 19.3571 176.298 19.2696 176.625 19.2696C176.842 19.2693 177.057 19.3077 177.258 19.3826C177.458 19.4575 177.641 19.5674 177.794 19.7059C177.948 19.8445 178.069 20.0091 178.152 20.1902C178.235 20.3714 178.278 20.5655 178.278 20.7615Z" fill="black"/>
<path d="M179.317 18.8066C179.317 19.1018 179.221 19.3904 179.039 19.6361C178.858 19.8817 178.6 20.0732 178.298 20.1865C177.996 20.2997 177.664 20.3296 177.343 20.2722C177.023 20.2149 176.728 20.073 176.497 19.8644C176.265 19.6559 176.108 19.39 176.044 19.1006C175.98 18.8111 176.012 18.511 176.137 18.2383C176.262 17.9656 176.474 17.7324 176.746 17.5684C177.018 17.4044 177.337 17.3168 177.664 17.3168C177.881 17.3166 178.096 17.3549 178.296 17.4296C178.497 17.5044 178.679 17.6141 178.832 17.7524C178.986 17.8908 179.108 18.0551 179.191 18.236C179.274 18.4169 179.317 18.6108 179.317 18.8066Z" fill="black"/>
<path d="M179.93 16.7656C179.93 17.0607 179.833 17.3491 179.651 17.5944C179.47 17.8398 179.212 18.031 178.91 18.1439C178.608 18.2568 178.276 18.2864 177.955 18.2288C177.635 18.1712 177.34 18.0292 177.109 17.8205C176.878 17.6119 176.721 17.346 176.657 17.0566C176.593 16.7672 176.626 16.4673 176.751 16.1947C176.876 15.922 177.088 15.689 177.359 15.5251C177.631 15.3612 177.951 15.2737 178.277 15.2737C178.716 15.2737 179.136 15.4309 179.446 15.7106C179.756 15.9904 179.93 16.3699 179.93 16.7656Z" fill="black"/>
<path d="M163.369 19.783C163.194 21.7757 163.499 23.6296 166.616 25.3277C166.616 25.3277 168.102 27.0468 167.315 29.0985C166.527 31.1501 172.943 31.693 172.375 28.6776C172.337 28.4798 172.312 28.282 172.295 28.0842C172.062 25.2561 173.927 22.3712 175.258 20.7194C176.67 18.9413 176.724 14.9096 174.239 13.3251C173.263 12.6939 170.629 12.6497 168.839 13.2136C165.797 14.1689 163.621 16.8876 163.369 19.783Z" fill="#FFCB9C"/>
<path d="M175.424 19.2738C175.574 19.2455 175.729 19.2442 175.88 19.2701C176.03 19.2959 176.174 19.3484 176.302 19.4244C176.43 19.5005 176.541 19.5986 176.627 19.7132C176.713 19.8279 176.773 19.9567 176.804 20.0923C177.137 21.1255 175.3 23.0214 174.62 21.9441C173.939 20.8667 175.424 19.2738 175.424 19.2738Z" fill="#FFCB9C"/>
<path d="M173.447 11.6586C173.447 11.9537 173.351 12.2421 173.169 12.4874C172.987 12.7328 172.729 12.924 172.427 13.0369C172.125 13.1498 171.793 13.1794 171.473 13.1218C171.152 13.0643 170.858 12.9222 170.627 12.7135C170.395 12.5049 170.238 12.239 170.174 11.9496C170.111 11.6602 170.143 11.3603 170.268 11.0877C170.393 10.8151 170.605 10.582 170.877 10.4181C171.149 10.2542 171.468 10.1667 171.795 10.1667C172.233 10.1667 172.654 10.3239 172.963 10.6037C173.273 10.8834 173.447 11.2629 173.447 11.6586Z" fill="black"/>
<path d="M170.979 12.3404C170.979 12.6355 170.883 12.9242 170.701 13.1698C170.52 13.4154 170.262 13.607 169.96 13.7202C169.658 13.8335 169.326 13.8633 169.005 13.806C168.685 13.7486 168.39 13.6067 168.159 13.3982C167.927 13.1896 167.77 12.9238 167.706 12.6343C167.642 12.3449 167.674 12.0448 167.799 11.772C167.924 11.4993 168.136 11.2662 168.408 11.1022C168.68 10.9381 168.999 10.8506 169.326 10.8506C169.543 10.8503 169.758 10.8886 169.958 10.9634C170.159 11.0381 170.341 11.1478 170.495 11.2862C170.648 11.4246 170.77 11.5889 170.853 11.7698C170.936 11.9507 170.979 12.1446 170.979 12.3404Z" fill="black"/>
<path d="M175.676 12.8201C175.676 13.1152 175.579 13.4036 175.398 13.6489C175.216 13.8943 174.958 14.0855 174.656 14.1984C174.354 14.3113 174.022 14.3409 173.701 14.2833C173.381 14.2258 173.086 14.0837 172.855 13.875C172.624 13.6664 172.467 13.4005 172.403 13.1111C172.339 12.8217 172.372 12.5218 172.497 12.2492C172.622 11.9766 172.834 11.7435 173.105 11.5796C173.377 11.4157 173.697 11.3282 174.024 11.3282C174.462 11.3282 174.882 11.4854 175.192 11.7652C175.502 12.0449 175.676 12.4244 175.676 12.8201Z" fill="black"/>
<path d="M176.24 14.9054C176.24 15.2005 176.144 15.4889 175.962 15.7343C175.78 15.9796 175.522 16.1708 175.22 16.2837C174.918 16.3967 174.586 16.4262 174.266 16.3686C173.945 16.3111 173.651 16.169 173.42 15.9603C173.188 15.7517 173.031 15.4859 172.967 15.1965C172.904 14.9071 172.936 14.6071 173.061 14.3345C173.186 14.0619 173.398 13.8289 173.67 13.6649C173.942 13.501 174.261 13.4135 174.588 13.4135C174.805 13.4132 175.02 13.4516 175.221 13.5265C175.421 13.6014 175.604 13.7113 175.757 13.8499C175.911 13.9885 176.032 14.153 176.115 14.3342C176.198 14.5153 176.241 14.7094 176.24 14.9054Z" fill="black"/>
<path d="M176.625 15.0905C177.538 15.0905 178.278 14.4225 178.278 13.5986C178.278 12.7746 177.538 12.1067 176.625 12.1067C175.712 12.1067 174.973 12.7746 174.973 13.5986C174.973 14.4225 175.712 15.0905 176.625 15.0905Z" fill="black"/>
<path d="M179.317 14.9054C179.317 15.2005 179.22 15.4889 179.038 15.7343C178.857 15.9796 178.598 16.1708 178.297 16.2837C177.995 16.3967 177.662 16.4262 177.342 16.3686C177.021 16.3111 176.727 16.169 176.496 15.9603C176.265 15.7517 176.107 15.4859 176.043 15.1965C175.98 14.9071 176.012 14.6071 176.138 14.3345C176.263 14.0619 176.474 13.8289 176.746 13.6649C177.018 13.501 177.337 13.4135 177.664 13.4135C177.881 13.4132 178.096 13.4516 178.297 13.5265C178.498 13.6014 178.68 13.7113 178.833 13.8499C178.987 13.9885 179.109 14.153 179.191 14.3342C179.274 14.5153 179.317 14.7094 179.317 14.9054Z" fill="black"/>
<path d="M177.022 11.6586C177.022 11.9537 176.925 12.2421 176.743 12.4874C176.562 12.7328 176.304 12.924 176.002 13.0369C175.7 13.1498 175.367 13.1794 175.047 13.1218C174.726 13.0643 174.432 12.9222 174.201 12.7135C173.97 12.5049 173.812 12.239 173.749 11.9496C173.685 11.6602 173.718 11.3603 173.843 11.0877C173.968 10.8151 174.179 10.582 174.451 10.4181C174.723 10.2542 175.042 10.1667 175.369 10.1667C175.808 10.1667 176.228 10.3239 176.538 10.6037C176.848 10.8834 177.022 11.2629 177.022 11.6586Z" fill="black"/>
<path d="M174.946 10.394C174.946 10.6891 174.849 10.9778 174.668 11.2234C174.487 11.469 174.229 11.6606 173.927 11.7738C173.625 11.887 173.293 11.9169 172.972 11.8596C172.651 11.8022 172.357 11.6603 172.125 11.4518C171.894 11.2432 171.736 10.9774 171.673 10.6879C171.609 10.3984 171.641 10.0984 171.766 9.82564C171.891 9.55291 172.103 9.31978 172.375 9.15575C172.647 8.99173 172.966 8.90418 173.293 8.90418C173.51 8.9039 173.725 8.94223 173.925 9.01697C174.126 9.09172 174.308 9.20141 174.461 9.33978C174.615 9.47815 174.737 9.64248 174.82 9.82336C174.903 10.0043 174.946 10.1982 174.946 10.394Z" fill="black"/>
<path d="M175.478 8.84735C175.478 9.33553 175.317 9.81274 175.017 10.2186C174.716 10.6246 174.289 10.9409 173.79 11.1277C173.29 11.3146 172.741 11.3634 172.21 11.2682C171.68 11.173 171.193 10.9379 170.81 10.5927C170.428 10.2475 170.168 9.80768 170.062 9.32889C169.957 8.85009 170.011 8.35381 170.218 7.90279C170.425 7.45177 170.775 7.06628 171.225 6.79507C171.674 6.52385 172.203 6.37909 172.744 6.37909C173.469 6.37909 174.164 6.63914 174.677 7.10203C175.189 7.56492 175.478 8.19273 175.478 8.84735Z" fill="black"/>
<path d="M177.831 11.3282C177.831 11.8164 177.671 12.2936 177.37 12.6995C177.07 13.1054 176.643 13.4218 176.143 13.6086C175.644 13.7954 175.094 13.8443 174.564 13.7491C174.033 13.6538 173.546 13.4188 173.164 13.0736C172.782 12.7284 172.521 12.2886 172.416 11.8098C172.31 11.331 172.364 10.8347 172.571 10.3837C172.778 9.93267 173.129 9.54718 173.578 9.27596C174.028 9.00475 174.556 8.85999 175.097 8.85999C175.822 8.85999 176.518 9.12003 177.03 9.58292C177.543 10.0458 177.831 10.6736 177.831 11.3282Z" fill="black"/>
<path d="M171.058 10.3939C171.058 10.8821 170.897 11.3593 170.597 11.7652C170.296 12.1711 169.869 12.4875 169.37 12.6743C168.87 12.8611 168.321 12.91 167.79 12.8148C167.26 12.7195 166.773 12.4844 166.391 12.1392C166.008 11.7941 165.748 11.3543 165.642 10.8755C165.537 10.3967 165.591 9.90038 165.798 9.44936C166.005 8.99834 166.355 8.61285 166.805 8.34164C167.254 8.07042 167.783 7.92566 168.324 7.92566C169.049 7.92566 169.744 8.18571 170.257 8.6486C170.77 9.11149 171.058 9.7393 171.058 10.3939Z" fill="black"/>
<path d="M171.795 10.8505C171.796 11.1457 171.699 11.4343 171.518 11.6799C171.336 11.9256 171.079 12.1171 170.777 12.2304C170.475 12.3436 170.142 12.3734 169.822 12.3161C169.501 12.2588 169.206 12.1169 168.975 11.9083C168.744 11.6997 168.586 11.4339 168.522 11.1445C168.458 10.855 168.491 10.5549 168.616 10.2822C168.741 10.0094 168.953 9.77632 169.224 9.6123C169.496 9.44827 169.816 9.36072 170.143 9.36072C170.36 9.36044 170.574 9.39877 170.775 9.47352C170.975 9.54826 171.158 9.65796 171.311 9.79633C171.464 9.93469 171.586 10.099 171.669 10.2799C171.752 10.4608 171.795 10.6547 171.795 10.8505Z" fill="black"/>
<path d="M169.383 11.8858C169.383 12.1809 169.286 12.4693 169.105 12.7147C168.923 12.96 168.665 13.1512 168.363 13.2642C168.061 13.3771 167.729 13.4066 167.408 13.3491C167.088 13.2915 166.793 13.1494 166.562 12.9408C166.331 12.7321 166.174 12.4663 166.11 12.1769C166.046 11.8875 166.079 11.5875 166.204 11.3149C166.329 11.0423 166.541 10.8093 166.813 10.6454C167.084 10.4814 167.404 10.3939 167.731 10.3939C168.169 10.3939 168.589 10.5511 168.899 10.8309C169.209 11.1107 169.383 11.4901 169.383 11.8858Z" fill="black"/>
<path d="M178.278 16.3952C178.278 16.6904 178.181 16.979 178 17.2246C177.819 17.4702 177.561 17.6618 177.259 17.775C176.957 17.8883 176.625 17.9181 176.304 17.8608C175.983 17.8035 175.689 17.6615 175.457 17.453C175.226 17.2444 175.069 16.9786 175.005 16.6891C174.941 16.3997 174.973 16.0996 175.098 15.8269C175.223 15.5541 175.435 15.321 175.707 15.157C175.979 14.9929 176.298 14.9054 176.625 14.9054C176.842 14.9051 177.057 14.9435 177.257 15.0182C177.458 15.0929 177.64 15.2026 177.793 15.341C177.947 15.4794 178.069 15.6437 178.152 15.8246C178.235 16.0055 178.278 16.1994 178.278 16.3952Z" fill="black"/>
<path d="M177.893 18.55C177.893 18.8451 177.797 19.1338 177.615 19.3794C177.434 19.625 177.176 19.8166 176.874 19.9298C176.572 20.0431 176.24 20.0729 175.919 20.0156C175.599 19.9582 175.304 19.8163 175.073 19.6078C174.841 19.3992 174.684 19.1334 174.62 18.8439C174.556 18.5545 174.588 18.2544 174.713 17.9816C174.838 17.7089 175.05 17.4758 175.322 17.3118C175.594 17.1477 175.913 17.0602 176.24 17.0602C176.457 17.0599 176.672 17.0982 176.873 17.173C177.073 17.2477 177.255 17.3574 177.409 17.4958C177.562 17.6342 177.684 17.7985 177.767 17.9794C177.85 18.1603 177.893 18.3542 177.893 18.55Z" fill="black"/>
<path d="M166.365 28.5156L167.503 27.3077L169.784 30.6977L168.307 31.7645L166.365 28.5156Z" fill="white"/>
<path d="M181.666 34.2222L183.664 31.3815L176.905 28.3661L176.516 29.5361L181.666 34.2222Z" fill="#161A2B"/>
<path d="M173.046 28.5935L172.312 27.0322L169.627 30.6977L171.107 31.7646L173.046 28.5935Z" fill="white"/>
<path d="M169.133 32.8881L168.629 36.4295C168.261 39.0232 168.191 41.6444 168.422 44.251L169.061 51.4454C169.057 51.5849 169.115 51.7199 169.222 51.8207C169.329 51.9216 169.476 51.9799 169.63 51.983C169.785 51.9861 169.935 51.9336 170.046 51.8371C170.158 51.7406 170.223 51.608 170.226 51.4685L170.993 45.9428C171.5 42.2427 171.399 38.4952 170.692 34.8219L170.326 32.8986L169.133 32.8881Z" fill="#A30010"/>
<path d="M169.784 30.6977L168.475 31.996L169.698 33.652L171.015 32.0549L169.784 30.6977Z" fill="#BF0411"/>
<path d="M151.639 30.3378H178.013C178.319 30.3378 178.622 30.3923 178.905 30.498C179.188 30.6038 179.445 30.7587 179.661 30.9541C179.878 31.1495 180.049 31.3815 180.166 31.6368C180.284 31.8921 180.344 32.1657 180.344 32.4421V45.5956H149.309V32.4421C149.309 31.884 149.554 31.3488 149.991 30.9541C150.428 30.5595 151.021 30.3378 151.639 30.3378Z" fill="#683C11"/>
<path d="M152.587 31.1754H177.224C177.842 31.1754 178.435 31.3971 178.872 31.7917C179.309 32.1863 179.555 32.7215 179.555 33.2796V45.5957H150.256V33.2796C150.256 32.7215 150.501 32.1863 150.938 31.7917C151.376 31.3971 151.968 31.1754 152.587 31.1754Z" fill="#7B6A58"/>
<path opacity="0.44" d="M153.756 32.0633H176.054C176.672 32.0633 177.265 32.285 177.702 32.6796C178.139 33.0742 178.385 33.6094 178.385 34.1675V45.5977H151.426V34.1675C151.426 33.6094 151.671 33.0742 152.108 32.6796C152.546 32.285 153.138 32.0633 153.756 32.0633Z" fill="#432918"/>
<path d="M178.869 45.9765H150.787C149.242 45.9765 147.99 47.107 147.99 48.5016V51.7589C147.99 53.1535 149.242 54.284 150.787 54.284H178.869C180.414 54.284 181.666 53.1535 181.666 51.7589V48.5016C181.666 47.107 180.414 45.9765 178.869 45.9765Z" fill="#683C11"/>
<path d="M181.866 45.5956H147.826V47.4389H181.866V45.5956Z" fill="#F9B233"/>
<path d="M167.851 52.7753H161.882C160.886 52.7742 159.932 52.4167 159.228 51.7812C158.524 51.1457 158.128 50.2841 158.127 49.3854V46.9171C158.127 46.7235 158.212 46.5377 158.364 46.4008C158.515 46.2639 158.721 46.187 158.936 46.187C159.15 46.187 159.356 46.2639 159.508 46.4008C159.659 46.5377 159.744 46.7235 159.744 46.9171V49.3854C159.745 49.897 159.97 50.3874 160.371 50.7492C160.772 51.1109 161.315 51.3144 161.882 51.315H167.851C168.417 51.3144 168.96 51.1109 169.36 50.7491C169.761 50.3872 169.985 49.8968 169.985 49.3854V46.9171C169.985 46.7235 170.071 46.5377 170.222 46.4008C170.374 46.2639 170.58 46.187 170.794 46.187C171.009 46.187 171.214 46.2639 171.366 46.4008C171.518 46.5377 171.603 46.7235 171.603 46.9171V49.3854C171.602 50.2839 171.207 51.1455 170.503 51.781C169.8 52.4166 168.846 52.7742 167.851 52.7753Z" fill="#432918"/>
<path d="M177.706 45.9765H173.56C173.383 45.9765 173.24 46.1056 173.24 46.2648V46.7424C173.24 46.9017 173.383 47.0307 173.56 47.0307H177.706C177.882 47.0307 178.025 46.9017 178.025 46.7424V46.2648C178.025 46.1056 177.882 45.9765 177.706 45.9765Z" fill="#DADADA"/>
<path d="M151.151 45.9765H155.295C155.38 45.9765 155.462 46.0071 155.522 46.0616C155.582 46.116 155.616 46.1899 155.616 46.2669V46.7424C155.616 46.8195 155.582 46.8933 155.522 46.9478C155.462 47.0022 155.38 47.0328 155.295 47.0328H151.151C151.109 47.0323 151.067 47.0243 151.029 47.0093C150.99 46.9943 150.955 46.9726 150.926 46.9454C150.897 46.9183 150.874 46.8862 150.858 46.851C150.843 46.8158 150.835 46.7782 150.836 46.7403V46.2648C150.836 46.1891 150.869 46.1164 150.928 46.0624C150.987 46.0085 151.067 45.9776 151.151 45.9765Z" fill="#DADADA"/>
<path d="M173.707 43.9396C173.707 43.9396 169.647 43.4598 169.293 43.5545C168.938 43.6492 169.059 44.0469 169.759 44.0953C170.425 44.1706 171.086 44.2831 171.737 44.432C171.737 44.432 169.111 44.331 168.941 44.4951C168.77 44.6592 168.88 44.9601 169.355 44.9328C169.831 44.9054 171.756 45.0717 171.756 45.0717C171.756 45.0717 170.125 45.2505 169.707 45.3894C169.29 45.5283 169.868 45.7703 170.309 45.7156C170.749 45.6609 172.173 45.6609 172.173 45.6609C172.173 45.6609 170.992 46.0817 170.849 46.2606C170.707 46.4394 170.898 46.5257 171.082 46.4941C171.267 46.4626 172.933 45.8629 172.933 45.8629C172.933 45.8629 174.595 46.1301 175.38 45.442C176.166 44.7539 175.867 44.23 175.709 44.1584C175.55 44.0869 173.101 42.8749 172.625 42.8201C172.15 42.7654 172.075 43.1042 172.798 43.3672C173.52 43.6303 173.91 43.8091 173.707 43.9396Z" fill="#FFCFC5"/>
<path d="M172.324 27.0363C172.324 27.0363 184.956 27.314 189.536 38.5464C191.203 42.6391 186.092 48.9203 175.354 46.8476L175.743 43.9017C175.743 43.9017 180.276 43.5734 182.348 42.2183C185.173 40.375 183.194 38.0309 181.908 37.1113C181.255 36.6484 181.141 30.2747 182.775 31.1753L172.324 27.0363Z" fill="#161A2B"/>
<path d="M175.719 44.0364L175.227 43.8996L174.764 46.3994L175.395 46.5004L175.719 44.0364Z" fill="white"/>
<path d="M163.697 28.2062L159.541 30.3378H161.909L163.697 28.2062Z" fill="#161A2B"/>
<path d="M148.014 47.4284C148.014 47.4284 151.838 46.1154 152.209 46.1343C152.579 46.1532 152.556 46.5551 151.887 46.7656C151.258 46.9788 150.644 47.2262 150.048 47.5063C150.048 47.5063 152.577 46.8603 152.782 46.9865C152.987 47.1128 152.959 47.4242 152.491 47.4978C152.022 47.5715 150.19 48.1291 150.19 48.1291C150.19 48.1291 151.822 47.9608 152.265 48.0092C152.708 48.0576 152.206 48.4132 151.764 48.4511C151.321 48.4889 149.748 48.6994 149.748 48.6994C149.748 48.6994 151.092 48.6994 151.281 48.8467C151.47 48.994 151.3 49.1139 151.104 49.1244C150.908 49.1349 149.239 49.137 149.239 49.137C149.239 49.137 147.692 49.7452 146.75 49.2359C145.809 48.7267 145.965 48.1565 146.1 48.0534C146.235 47.9503 148.31 46.2606 148.757 46.1091C149.205 45.9575 149.365 46.269 148.731 46.6751C148.097 47.0812 147.783 47.3463 148.014 47.4284Z" fill="#FFCFC5"/>
<path d="M167.739 31.2975L154.277 31.3378L154.33 45.617L167.792 45.5767L167.739 31.2975Z" fill="#EDEEF0"/>
<path d="M167.058 30.7713L153.596 30.8116L153.65 45.5958L167.112 45.5555L167.058 30.7713Z" fill="white"/>
<path d="M165.062 36.0374L155.113 35.9355L155.107 36.4594L165.056 36.5613L165.062 36.0374Z" fill="#EDEEF0"/>
<path d="M165.039 37.1102L155.09 37.0083L155.083 37.5322L165.032 37.6341L165.039 37.1102Z" fill="#EDEEF0"/>
<path d="M165.015 38.183L155.066 38.0811L155.06 38.605L165.009 38.7069L165.015 38.183Z" fill="#EDEEF0"/>
<path d="M164.994 39.258L155.045 39.1561L155.038 39.68L164.987 39.7819L164.994 39.258Z" fill="#EDEEF0"/>
<path d="M164.97 40.3308L155.021 40.2289L155.015 40.7529L164.964 40.8548L164.97 40.3308Z" fill="#EDEEF0"/>
<path d="M161.041 41.3267L155.072 41.2728L155.066 41.7968L161.035 41.8507L161.041 41.3267Z" fill="#EDEEF0"/>
<path d="M158.207 43.9248L155 43.892L154.993 44.4159L158.2 44.4487L158.207 43.9248Z" fill="#EDEEF0"/>
<path d="M165.627 43.9251L162.42 43.8922L162.413 44.4161L165.62 44.449L165.627 43.9251Z" fill="#EDEEF0"/>
<path d="M173.595 41.7133L174.625 40.718C174.642 40.7024 174.664 40.6917 174.688 40.6872C174.712 40.6827 174.737 40.6846 174.76 40.6928L176.158 41.2167C176.179 41.2252 176.201 41.2283 176.223 41.2257C176.245 41.2232 176.266 41.2151 176.283 41.2024C176.301 41.1897 176.314 41.1728 176.321 41.1538C176.328 41.1347 176.329 41.1143 176.324 41.0947L175.291 36.7495L172.359 37.3176L173.392 41.6607C173.397 41.6796 173.407 41.6969 173.422 41.7109C173.437 41.7249 173.456 41.7351 173.476 41.7404C173.497 41.7458 173.519 41.7461 173.539 41.7413C173.56 41.7366 173.579 41.7269 173.595 41.7133Z" fill="#E6332A"/>
<path d="M171.624 41.7091L170.582 40.7201C170.565 40.704 170.543 40.6929 170.519 40.6884C170.495 40.6839 170.47 40.6861 170.447 40.6949L169.049 41.2272C169.028 41.2348 169.006 41.2373 168.984 41.2345C168.963 41.2316 168.942 41.2235 168.925 41.2109C168.908 41.1984 168.895 41.182 168.888 41.1633C168.881 41.1447 168.879 41.1246 168.883 41.1052L169.883 36.7557L172.82 37.307L171.82 41.6565C171.814 41.6741 171.804 41.6903 171.789 41.7033C171.775 41.7164 171.757 41.726 171.738 41.7312C171.718 41.7364 171.698 41.7372 171.678 41.7333C171.658 41.7294 171.639 41.7211 171.624 41.7091Z" fill="#E6332A"/>
<path d="M175.164 36.9487C175.55 35.5695 174.624 34.1692 173.096 33.821C171.569 33.4727 170.018 34.3085 169.632 35.6877C169.246 37.0668 170.172 38.4672 171.7 38.8154C173.227 39.1636 174.778 38.3278 175.164 36.9487Z" fill="#F4CF50"/>
<path d="M172.804 33.7404C172.804 33.8132 172.78 33.8844 172.735 33.945C172.69 34.0055 172.627 34.0527 172.552 34.0806C172.478 34.1084 172.396 34.1157 172.317 34.1015C172.237 34.0873 172.165 34.0523 172.108 34.0008C172.051 33.9493 172.012 33.8836 171.996 33.8122C171.98 33.7408 171.988 33.6667 172.019 33.5995C172.05 33.5322 172.102 33.4747 172.17 33.4342C172.237 33.3937 172.315 33.3721 172.396 33.3721C172.504 33.3721 172.608 33.4109 172.685 33.48C172.761 33.549 172.804 33.6427 172.804 33.7404Z" fill="#F4CF50"/>
<path d="M173.489 33.9108C173.469 33.9815 173.427 34.0454 173.367 34.0944C173.307 34.1433 173.232 34.175 173.152 34.1856C173.073 34.1962 172.991 34.185 172.918 34.1537C172.845 34.1223 172.784 34.0721 172.743 34.0094C172.702 33.9467 172.682 33.8743 172.686 33.8015C172.69 33.7286 172.719 33.6586 172.767 33.6003C172.816 33.5419 172.882 33.4979 172.958 33.4737C173.035 33.4496 173.117 33.4465 173.195 33.4647C173.299 33.4895 173.388 33.5501 173.443 33.6335C173.498 33.717 173.515 33.8165 173.489 33.9108Z" fill="#F4CF50"/>
<path d="M174.122 34.2306C174.083 34.2947 174.025 34.347 173.953 34.381C173.882 34.4149 173.801 34.429 173.721 34.4214C173.64 34.4137 173.564 34.3848 173.502 34.3382C173.44 34.2915 173.395 34.2293 173.372 34.1594C173.349 34.0895 173.35 34.0151 173.374 33.9455C173.398 33.876 173.444 33.8144 173.507 33.7686C173.57 33.7228 173.646 33.6949 173.727 33.6884C173.807 33.6818 173.888 33.697 173.959 33.7319C174.053 33.779 174.123 33.8577 174.154 33.9511C174.184 34.0444 174.173 34.1448 174.122 34.2306Z" fill="#F4CF50"/>
<path d="M174.637 34.6789C174.582 34.7323 174.511 34.7698 174.432 34.7867C174.354 34.8036 174.271 34.7991 174.196 34.7737C174.12 34.7483 174.054 34.7032 174.007 34.6442C173.96 34.5851 173.933 34.5147 173.93 34.4419C173.927 34.3691 173.948 34.2971 173.99 34.2351C174.033 34.1731 174.095 34.1238 174.168 34.0935C174.242 34.0633 174.323 34.0533 174.403 34.065C174.483 34.0767 174.557 34.1094 174.616 34.1591C174.655 34.1919 174.687 34.2314 174.709 34.2753C174.732 34.3192 174.744 34.3667 174.746 34.415C174.748 34.4634 174.739 34.5116 174.721 34.5568C174.702 34.6021 174.673 34.6436 174.637 34.6789Z" fill="#F4CF50"/>
<path d="M175.015 35.2281C174.947 35.2679 174.868 35.2886 174.787 35.2876C174.706 35.2866 174.628 35.264 174.561 35.2226C174.495 35.1812 174.443 35.1229 174.413 35.0551C174.384 34.9873 174.377 34.913 174.394 34.8417C174.411 34.7704 174.451 34.7053 174.509 34.6546C174.567 34.6039 174.641 34.5699 174.72 34.557C174.8 34.544 174.882 34.5527 174.956 34.5819C175.03 34.6111 175.093 34.6595 175.136 34.721C175.194 34.8028 175.214 34.9021 175.191 34.9971C175.169 35.0921 175.105 35.1751 175.015 35.2281Z" fill="#F4CF50"/>
<path d="M175.233 35.8467C175.157 35.8699 175.074 35.8722 174.997 35.8531C174.919 35.8341 174.849 35.7947 174.796 35.7398C174.743 35.685 174.709 35.6172 174.699 35.545C174.688 35.4728 174.702 35.3994 174.738 35.3342C174.774 35.269 174.83 35.2148 174.9 35.1785C174.97 35.1422 175.05 35.1254 175.13 35.1303C175.211 35.1351 175.288 35.1614 175.352 35.2058C175.416 35.2502 175.464 35.3107 175.49 35.3796C175.524 35.4723 175.516 35.5733 175.468 35.6608C175.42 35.7483 175.335 35.8151 175.233 35.8467Z" fill="#F4CF50"/>
<path d="M175.273 36.4927C175.193 36.4979 175.112 36.4814 175.042 36.4455C174.972 36.4095 174.915 36.3557 174.879 36.2907C174.843 36.2257 174.829 36.1524 174.839 36.0802C174.849 36.008 174.882 35.9401 174.935 35.885C174.987 35.8299 175.057 35.7901 175.135 35.7706C175.212 35.7511 175.294 35.7528 175.371 35.7755C175.448 35.7982 175.515 35.8408 175.565 35.8981C175.614 35.9553 175.644 36.0246 175.65 36.0971C175.655 36.1455 175.648 36.1941 175.631 36.2402C175.615 36.2863 175.588 36.329 175.553 36.3658C175.518 36.4025 175.475 36.4327 175.427 36.4544C175.379 36.4762 175.327 36.4892 175.273 36.4927Z" fill="#F4CF50"/>
<path d="M175.138 37.1366C175.058 37.125 174.984 37.0922 174.925 37.0423C174.865 36.9925 174.824 36.9278 174.806 36.8566C174.787 36.7854 174.793 36.7109 174.821 36.6425C174.85 36.5741 174.901 36.515 174.967 36.4727C175.033 36.4304 175.111 36.4068 175.192 36.4048C175.273 36.4029 175.353 36.4228 175.421 36.462C175.49 36.5011 175.544 36.5578 175.576 36.6247C175.609 36.6916 175.619 36.7658 175.604 36.8378C175.585 36.9328 175.526 37.0173 175.439 37.0732C175.352 37.1291 175.244 37.1519 175.138 37.1366Z" fill="#F4CF50"/>
<path d="M174.829 37.7131C174.756 37.6831 174.694 37.6341 174.651 37.5723C174.609 37.5106 174.588 37.4388 174.59 37.3661C174.593 37.2934 174.619 37.223 174.666 37.1638C174.713 37.1046 174.778 37.0592 174.853 37.0334C174.928 37.0076 175.011 37.0025 175.089 37.0188C175.168 37.0351 175.239 37.072 175.294 37.1249C175.35 37.1778 175.386 37.2444 175.4 37.3161C175.413 37.3878 175.403 37.4615 175.37 37.5279C175.348 37.5722 175.317 37.6122 175.278 37.6455C175.239 37.6788 175.193 37.7048 175.142 37.722C175.092 37.7392 175.039 37.7473 174.985 37.7458C174.931 37.7442 174.878 37.7331 174.829 37.7131Z" fill="#F4CF50"/>
<path d="M174.373 38.2119C174.309 38.1666 174.263 38.1053 174.238 38.036C174.214 37.9666 174.212 37.8922 174.235 37.8222C174.257 37.7522 174.302 37.6898 174.363 37.6427C174.425 37.5957 174.5 37.5662 174.58 37.558C174.661 37.5497 174.742 37.5631 174.813 37.5965C174.885 37.6298 174.944 37.6816 174.983 37.7453C175.022 37.809 175.04 37.8817 175.033 37.9543C175.026 38.0268 174.996 38.096 174.946 38.153C174.913 38.1909 174.871 38.2224 174.824 38.2459C174.778 38.2694 174.726 38.2843 174.673 38.2897C174.619 38.2952 174.566 38.2911 174.514 38.2778C174.463 38.2644 174.414 38.2421 174.373 38.2119Z" fill="#F4CF50"/>
<path d="M173.796 38.5927C173.747 38.5346 173.718 38.4648 173.714 38.3921C173.709 38.3194 173.728 38.247 173.769 38.1842C173.81 38.1213 173.87 38.0708 173.943 38.0391C174.015 38.0073 174.097 37.9957 174.177 38.0057C174.257 38.0157 174.332 38.0469 174.392 38.0953C174.452 38.1437 174.495 38.2072 174.515 38.2777C174.536 38.3482 174.533 38.4226 174.506 38.4914C174.479 38.5602 174.431 38.6204 174.367 38.6643C174.28 38.7231 174.172 38.7486 174.065 38.7352C173.958 38.7218 173.861 38.6705 173.796 38.5927Z" fill="#F4CF50"/>
<path d="M173.128 38.8347C173.097 38.7676 173.088 38.6936 173.103 38.622C173.118 38.5504 173.156 38.4845 173.213 38.4326C173.27 38.3807 173.342 38.3451 173.421 38.3304C173.5 38.3156 173.582 38.3224 173.657 38.3498C173.732 38.3772 173.796 38.4241 173.841 38.4844C173.886 38.5447 173.911 38.6158 173.911 38.6887C173.912 38.7616 173.888 38.8329 173.844 38.8938C173.8 38.9546 173.736 39.0021 173.662 39.0304C173.562 39.0682 173.45 39.0689 173.35 39.0322C173.25 38.9955 173.17 38.9245 173.128 38.8347Z" fill="#F4CF50"/>
<path d="M172.82 39.2345C173.045 39.2345 173.228 39.0697 173.228 38.8663C173.228 38.6629 173.045 38.498 172.82 38.498C172.595 38.498 172.412 38.6629 172.412 38.8663C172.412 39.0697 172.595 39.2345 172.82 39.2345Z" fill="#F4CF50"/>
<path d="M171.707 38.8453C171.715 38.7727 171.747 38.7038 171.798 38.6474C171.849 38.591 171.918 38.5496 171.995 38.5285C172.072 38.5074 172.155 38.5074 172.232 38.5287C172.309 38.55 172.378 38.5915 172.429 38.648C172.48 38.7045 172.512 38.7734 172.519 38.846C172.527 38.9186 172.51 38.9917 172.472 39.0559C172.434 39.1201 172.375 39.1725 172.304 39.2066C172.232 39.2406 172.151 39.2548 172.071 39.2472C172.018 39.2425 171.966 39.2283 171.919 39.2055C171.872 39.1827 171.83 39.1518 171.797 39.1144C171.763 39.0771 171.737 39.0341 171.722 38.9879C171.707 38.9417 171.702 38.8932 171.707 38.8453Z" fill="#F4CF50"/>
<path d="M171.038 38.6096C171.066 38.5411 171.117 38.4817 171.182 38.4391C171.248 38.3964 171.326 38.3724 171.407 38.3701C171.488 38.3678 171.568 38.3873 171.637 38.4261C171.705 38.4649 171.76 38.5213 171.793 38.5881C171.826 38.6548 171.836 38.7289 171.822 38.801C171.808 38.873 171.771 38.9397 171.715 38.9926C171.659 39.0454 171.587 39.082 171.508 39.0978C171.429 39.1135 171.346 39.1077 171.271 39.0809C171.171 39.0461 171.091 38.9769 171.047 38.8886C171.003 38.8003 171 38.7 171.038 38.6096Z" fill="#F4CF50"/>
<path d="M170.459 38.2372C170.504 38.1773 170.568 38.1309 170.643 38.1039C170.718 38.0769 170.8 38.0705 170.879 38.0855C170.958 38.1005 171.03 38.1363 171.086 38.1883C171.142 38.2402 171.18 38.3061 171.195 38.3776C171.21 38.4491 171.201 38.5229 171.17 38.5899C171.138 38.6568 171.086 38.7138 171.018 38.7537C170.951 38.7936 170.872 38.8146 170.792 38.814C170.711 38.8135 170.632 38.7914 170.566 38.7506C170.521 38.7234 170.483 38.6884 170.454 38.6478C170.424 38.6072 170.404 38.5618 170.394 38.514C170.384 38.4663 170.384 38.4173 170.396 38.3698C170.407 38.3223 170.428 38.2772 170.459 38.2372Z" fill="#F4CF50"/>
<path d="M169.994 37.7447C170.054 37.6965 170.129 37.6654 170.209 37.6556C170.289 37.6457 170.37 37.6575 170.443 37.6894C170.515 37.7212 170.576 37.7718 170.617 37.8347C170.657 37.8976 170.676 37.97 170.671 38.0427C170.667 38.1154 170.638 38.1852 170.589 38.2432C170.54 38.3012 170.473 38.3448 170.397 38.3685C170.321 38.3923 170.239 38.3951 170.161 38.3765C170.083 38.358 170.012 38.319 169.959 38.2645C169.923 38.2284 169.896 38.1863 169.878 38.1405C169.86 38.0948 169.853 38.0464 169.856 37.998C169.859 37.9497 169.873 37.9024 169.897 37.8589C169.921 37.8155 169.954 37.7766 169.994 37.7447Z" fill="#F4CF50"/>
<path d="M169.672 37.164C169.744 37.1309 169.825 37.1178 169.905 37.1262C169.985 37.1347 170.061 37.1644 170.122 37.2115C170.184 37.2587 170.228 37.3212 170.25 37.3912C170.272 37.4612 170.271 37.5356 170.246 37.6048C170.221 37.6741 170.175 37.7352 170.111 37.7804C170.048 37.8257 169.972 37.853 169.891 37.859C169.811 37.8649 169.731 37.8493 169.66 37.814C169.59 37.7786 169.532 37.7253 169.495 37.6606C169.47 37.6176 169.455 37.5705 169.451 37.5221C169.446 37.4737 169.452 37.425 169.469 37.3788C169.485 37.3326 169.512 37.2898 169.547 37.2529C169.582 37.216 169.624 37.1858 169.672 37.164Z" fill="#F4CF50"/>
<path d="M169.527 36.5305C169.63 36.5142 169.736 36.5344 169.823 36.5868C169.911 36.6392 169.972 36.7199 169.995 36.8122C170.018 36.9044 170.001 37.0011 169.947 37.0823C169.894 37.1634 169.807 37.2228 169.706 37.2481C169.653 37.2614 169.598 37.2649 169.543 37.2582C169.488 37.2515 169.435 37.2349 169.388 37.2093C169.341 37.1837 169.299 37.1497 169.267 37.1093C169.235 37.0689 169.212 37.023 169.199 36.9744C169.187 36.9257 169.186 36.8754 169.196 36.8263C169.206 36.7773 169.227 36.7306 169.258 36.6891C169.288 36.6476 169.328 36.6122 169.374 36.5849C169.421 36.5576 169.473 36.5392 169.527 36.5305Z" fill="#F4CF50"/>
<path d="M169.554 35.8846C169.635 35.8867 169.713 35.9104 169.779 35.9526C169.845 35.9947 169.895 36.0536 169.924 36.1216C169.952 36.1897 169.958 36.2639 169.94 36.3349C169.922 36.4059 169.881 36.4704 169.823 36.5204C169.764 36.5704 169.69 36.6036 169.611 36.6158C169.531 36.6279 169.45 36.6185 169.376 36.5888C169.302 36.559 169.24 36.5102 169.197 36.4486C169.154 36.3869 169.133 36.3151 169.135 36.2423C169.136 36.1939 169.148 36.1461 169.17 36.1019C169.192 36.0576 169.223 36.0176 169.262 35.9843C169.301 35.9511 169.347 35.9251 169.397 35.908C169.447 35.8909 169.501 35.8829 169.554 35.8846Z" fill="#F4CF50"/>
<path d="M169.761 35.2639C169.838 35.2836 169.908 35.3238 169.96 35.3791C170.013 35.4345 170.046 35.5027 170.055 35.575C170.065 35.6473 170.05 35.7205 170.013 35.7854C169.977 35.8503 169.92 35.9039 169.849 35.9395C169.779 35.9751 169.699 35.991 169.618 35.9854C169.538 35.9797 169.461 35.9526 169.398 35.9075C169.334 35.8624 169.287 35.8014 169.262 35.7322C169.237 35.6629 169.236 35.5886 169.257 35.5185C169.272 35.4719 169.297 35.4284 169.33 35.3904C169.363 35.3524 169.404 35.3206 169.451 35.297C169.497 35.2733 169.549 35.2582 169.602 35.2525C169.655 35.2469 169.709 35.2507 169.761 35.2639Z" fill="#F4CF50"/>
<path d="M170.131 34.7083C170.225 34.7575 170.293 34.8379 170.32 34.9321C170.348 35.0262 170.334 35.1265 170.281 35.2112C170.24 35.2743 170.18 35.3251 170.108 35.3574C170.035 35.3896 169.954 35.4017 169.874 35.3922C169.794 35.3827 169.719 35.352 169.658 35.3039C169.598 35.2559 169.554 35.1927 169.533 35.1224C169.513 35.052 169.515 34.9776 169.541 34.9087C169.567 34.8397 169.615 34.7792 169.679 34.7349C169.743 34.6906 169.82 34.6644 169.901 34.6597C169.981 34.6549 170.062 34.6718 170.131 34.7083Z" fill="#F4CF50"/>
<path d="M170.639 34.2538C170.696 34.3052 170.735 34.3708 170.751 34.4423C170.767 34.5138 170.759 34.5879 170.728 34.6553C170.697 34.7226 170.645 34.7802 170.578 34.8208C170.511 34.8613 170.432 34.8829 170.351 34.8829C170.27 34.8829 170.192 34.8613 170.124 34.8208C170.057 34.7802 170.005 34.7226 169.974 34.6553C169.943 34.5879 169.935 34.5138 169.951 34.4423C169.967 34.3708 170.006 34.3052 170.063 34.2538C170.101 34.2195 170.146 34.1923 170.195 34.1737C170.245 34.1551 170.298 34.1456 170.351 34.1456C170.405 34.1456 170.458 34.1551 170.507 34.1737C170.557 34.1923 170.601 34.2195 170.639 34.2538Z" fill="#F4CF50"/>
<path d="M171.258 33.9255C171.3 33.9877 171.321 34.0597 171.317 34.1324C171.314 34.2051 171.287 34.2753 171.239 34.3341C171.192 34.3929 171.126 34.4377 171.051 34.4629C170.975 34.488 170.893 34.4923 170.814 34.4753C170.736 34.4583 170.665 34.4206 170.61 34.3672C170.556 34.3137 170.52 34.2468 170.507 34.175C170.494 34.1031 170.506 34.0294 170.539 33.9633C170.573 33.8972 170.628 33.8416 170.696 33.8035C170.789 33.7528 170.9 33.7372 171.005 33.7601C171.11 33.783 171.201 33.8424 171.258 33.9255Z" fill="#F4CF50"/>
<path d="M172.003 33.7467C172.027 33.8164 172.027 33.8909 172.004 33.9607C171.981 34.0305 171.935 34.0926 171.873 34.139C171.81 34.1854 171.734 34.2141 171.654 34.2214C171.574 34.2288 171.493 34.2144 171.421 34.1801C171.35 34.1459 171.292 34.0933 171.253 34.0291C171.215 33.9648 171.199 33.8918 171.207 33.8192C171.215 33.7467 171.246 33.6779 171.298 33.6215C171.349 33.5651 171.417 33.5238 171.495 33.5026C171.598 33.4744 171.709 33.4842 171.805 33.53C171.9 33.5757 171.971 33.6537 172.003 33.7467Z" fill="#F4CF50"/>
<path d="M172.397 38.6243H172.261C172.244 38.6233 172.229 38.6163 172.217 38.6049C172.206 38.5935 172.2 38.5786 172.201 38.5633C172.202 38.5481 172.21 38.5338 172.222 38.5236C172.235 38.5134 172.251 38.508 172.268 38.5086H172.394C172.411 38.5091 172.428 38.5155 172.44 38.5264C172.452 38.5374 172.459 38.5521 172.459 38.5675C172.459 38.5826 172.453 38.597 172.441 38.6077C172.429 38.6184 172.413 38.6243 172.397 38.6243ZM172.916 38.5759C172.902 38.5758 172.887 38.5711 172.876 38.5627C172.864 38.5543 172.857 38.5426 172.853 38.5296C172.852 38.5223 172.852 38.5148 172.853 38.5074C172.855 38.5001 172.858 38.4931 172.862 38.4868C172.867 38.4805 172.873 38.4752 172.88 38.471C172.886 38.4668 172.894 38.4638 172.902 38.4623L173.026 38.435C173.042 38.4311 173.06 38.4332 173.074 38.4409C173.089 38.4486 173.1 38.4612 173.104 38.476C173.108 38.4908 173.106 38.5065 173.097 38.5197C173.089 38.533 173.075 38.5426 173.058 38.5465L172.928 38.5738L172.916 38.5759ZM171.751 38.5486H171.732L171.604 38.5128C171.596 38.5105 171.589 38.5067 171.582 38.5018C171.576 38.4969 171.571 38.4909 171.567 38.4841C171.563 38.4774 171.561 38.4701 171.56 38.4625C171.56 38.455 171.561 38.4474 171.563 38.4402C171.566 38.433 171.57 38.4264 171.576 38.4206C171.581 38.4149 171.588 38.4102 171.595 38.4068C171.603 38.4033 171.611 38.4013 171.619 38.4007C171.627 38.4001 171.636 38.401 171.644 38.4034C171.683 38.4034 171.725 38.4265 171.767 38.435C171.783 38.4394 171.797 38.4493 171.805 38.4626C171.814 38.476 171.816 38.4917 171.812 38.5065C171.808 38.5185 171.8 38.5292 171.789 38.5368C171.778 38.5444 171.765 38.5486 171.751 38.5486ZM173.529 38.3781C173.518 38.3783 173.506 38.3754 173.496 38.3698C173.486 38.3642 173.478 38.3562 173.473 38.3466C173.469 38.3398 173.467 38.3324 173.466 38.3248C173.465 38.3172 173.466 38.3095 173.469 38.3023C173.472 38.295 173.476 38.2883 173.481 38.2825C173.487 38.2768 173.494 38.2721 173.501 38.2687L173.613 38.214C173.62 38.2103 173.628 38.2078 173.636 38.2068C173.645 38.2059 173.653 38.2064 173.661 38.2083C173.669 38.2103 173.677 38.2136 173.683 38.2182C173.69 38.2228 173.695 38.2285 173.699 38.2351C173.708 38.2485 173.71 38.2644 173.706 38.2793C173.702 38.2943 173.691 38.3071 173.676 38.315C173.639 38.334 173.599 38.355 173.56 38.3718C173.55 38.3761 173.54 38.3783 173.529 38.3781ZM171.159 38.3255C171.148 38.3276 171.137 38.3276 171.126 38.3255L171.012 38.2624C171.005 38.2584 170.999 38.253 170.994 38.2468C170.989 38.2405 170.986 38.2335 170.984 38.226C170.982 38.2185 170.982 38.2108 170.984 38.2034C170.985 38.1959 170.989 38.1888 170.993 38.1824C170.998 38.176 171.004 38.1704 171.011 38.1661C171.018 38.1617 171.026 38.1586 171.034 38.1571C171.042 38.1555 171.051 38.1554 171.059 38.1569C171.067 38.1584 171.075 38.1613 171.082 38.1656C171.117 38.1867 171.154 38.2056 171.192 38.2245C171.206 38.2328 171.216 38.2456 171.221 38.2604C171.225 38.2752 171.223 38.291 171.215 38.3045C171.208 38.3118 171.2 38.3176 171.19 38.3212C171.18 38.3249 171.169 38.3264 171.159 38.3255ZM174.079 38.0457C174.07 38.0458 174.061 38.044 174.052 38.0404C174.044 38.0367 174.036 38.0313 174.03 38.0246C174.019 38.014 174.012 37.9996 174.012 37.9847C174.012 37.9697 174.019 37.9553 174.03 37.9447L174.124 37.8647C174.136 37.8568 174.151 37.8531 174.167 37.8543C174.182 37.8555 174.196 37.8615 174.207 37.8713C174.218 37.8811 174.225 37.894 174.226 37.9078C174.227 37.9216 174.223 37.9354 174.214 37.9468L174.117 38.0309C174.103 38.0411 174.085 38.0464 174.068 38.0457H174.079ZM170.642 37.9657C170.633 37.9659 170.624 37.9646 170.616 37.9617C170.608 37.9588 170.601 37.9544 170.595 37.9489C170.565 37.9215 170.532 37.8921 170.504 37.8626C170.498 37.8575 170.492 37.8512 170.489 37.8441C170.485 37.837 170.484 37.8293 170.484 37.8216C170.484 37.8138 170.485 37.8061 170.489 37.7991C170.492 37.792 170.498 37.7857 170.504 37.7805C170.516 37.77 170.532 37.7641 170.548 37.7641C170.565 37.7641 170.581 37.77 170.593 37.7805C170.623 37.8079 170.651 37.8374 170.681 37.8626C170.687 37.8679 170.692 37.8743 170.696 37.8813C170.699 37.8884 170.701 37.896 170.701 37.9036C170.701 37.9113 170.699 37.9189 170.696 37.9259C170.692 37.933 170.687 37.9394 170.681 37.9447C170.675 37.952 170.668 37.9577 170.659 37.9614C170.65 37.9651 170.64 37.9666 170.63 37.9657H170.642ZM174.501 37.5975C174.489 37.5969 174.477 37.5932 174.466 37.587C174.452 37.5784 174.442 37.5653 174.439 37.5504C174.436 37.5355 174.439 37.5199 174.448 37.507C174.471 37.4754 174.494 37.4439 174.515 37.4102C174.524 37.3969 174.538 37.3872 174.555 37.3833C174.571 37.3794 174.589 37.3815 174.604 37.3892C174.611 37.3929 174.617 37.3978 174.622 37.4038C174.627 37.4097 174.631 37.4165 174.633 37.4237C174.635 37.4309 174.636 37.4385 174.635 37.4459C174.634 37.4534 174.631 37.4605 174.627 37.467C174.604 37.5028 174.58 37.5364 174.555 37.5701C174.548 37.5799 174.538 37.5878 174.527 37.5926C174.515 37.5975 174.502 37.5992 174.489 37.5975H174.501ZM170.227 37.5007C170.215 37.5008 170.204 37.4981 170.194 37.4929C170.184 37.4878 170.176 37.4802 170.171 37.4712C170.15 37.4376 170.126 37.4018 170.108 37.366C170.104 37.3594 170.101 37.3521 170.1 37.3446C170.099 37.3371 170.1 37.3295 170.102 37.3222C170.105 37.315 170.109 37.3082 170.114 37.3024C170.119 37.2965 170.126 37.2917 170.133 37.2882C170.141 37.2845 170.149 37.2823 170.158 37.2816C170.167 37.2809 170.175 37.2817 170.184 37.2841C170.192 37.2864 170.199 37.2902 170.206 37.2953C170.213 37.3003 170.218 37.3065 170.222 37.3134C170.241 37.3471 170.262 37.3807 170.283 37.4144C170.287 37.4209 170.289 37.4281 170.291 37.4355C170.292 37.4429 170.291 37.4505 170.289 37.4577C170.287 37.465 170.283 37.4717 170.278 37.4777C170.273 37.4836 170.267 37.4886 170.259 37.4923C170.25 37.4979 170.238 37.5009 170.227 37.5007ZM174.767 37.0651H174.746C174.73 37.0599 174.717 37.0492 174.71 37.0355C174.702 37.0218 174.701 37.006 174.706 36.9915C174.706 36.9557 174.732 36.9199 174.741 36.882C174.746 36.867 174.756 36.8541 174.771 36.8463C174.786 36.8384 174.804 36.8361 174.82 36.8399C174.829 36.8419 174.836 36.8453 174.843 36.85C174.85 36.8547 174.855 36.8605 174.859 36.8672C174.864 36.8739 174.866 36.8813 174.867 36.8889C174.868 36.8965 174.867 36.9042 174.865 36.9115C174.865 36.9515 174.841 36.9893 174.827 37.0272C174.823 37.0377 174.815 37.0468 174.806 37.0535C174.796 37.0602 174.784 37.0642 174.771 37.0651H174.767ZM169.975 36.9578C169.961 36.9576 169.947 36.9532 169.936 36.9452C169.925 36.9372 169.918 36.926 169.914 36.9136C169.903 36.8757 169.891 36.8357 169.882 36.7958C169.879 36.781 169.882 36.7659 169.891 36.7534C169.901 36.7409 169.915 36.7319 169.931 36.7284C169.947 36.7253 169.965 36.7281 169.979 36.7364C169.993 36.7446 170.004 36.7576 170.008 36.7726C170.008 36.8105 170.026 36.8484 170.038 36.8841C170.042 36.8992 170.04 36.9152 170.031 36.9286C170.022 36.942 170.008 36.9517 169.991 36.9557L169.975 36.9578ZM174.888 36.4864C174.871 36.4854 174.855 36.4784 174.844 36.467C174.833 36.4556 174.827 36.4407 174.827 36.4254C174.827 36.3875 174.827 36.3497 174.827 36.3118V36.295C174.827 36.2793 174.834 36.2643 174.847 36.2533C174.859 36.2422 174.875 36.236 174.893 36.236C174.91 36.236 174.927 36.2422 174.939 36.2533C174.951 36.2643 174.958 36.2793 174.958 36.295C174.958 36.337 174.958 36.377 174.958 36.417C174.96 36.426 174.96 36.4354 174.958 36.4443C174.955 36.4533 174.95 36.4615 174.943 36.4684C174.936 36.4752 174.928 36.4805 174.918 36.4836C174.909 36.4867 174.898 36.4877 174.888 36.4864ZM169.891 36.3707C169.883 36.371 169.875 36.3698 169.867 36.3672C169.86 36.3645 169.853 36.3606 169.847 36.3554C169.841 36.3503 169.836 36.3442 169.833 36.3374C169.83 36.3307 169.828 36.3234 169.828 36.316H169.893H169.828C169.828 36.276 169.828 36.2381 169.828 36.1982C169.829 36.1829 169.837 36.1687 169.85 36.1585C169.862 36.1482 169.879 36.1429 169.896 36.1434C169.913 36.1445 169.928 36.1515 169.94 36.1629C169.951 36.1743 169.957 36.1892 169.956 36.2045C169.956 36.2423 169.956 36.2781 169.956 36.316C169.955 36.3305 169.948 36.3442 169.936 36.3543C169.925 36.3644 169.91 36.3702 169.893 36.3707H169.891ZM174.834 35.8909C174.82 35.8908 174.805 35.8861 174.794 35.8777C174.783 35.8693 174.775 35.8576 174.771 35.8446C174.771 35.8068 174.753 35.7689 174.741 35.7331C174.737 35.7183 174.739 35.7026 174.748 35.6894C174.756 35.6762 174.77 35.6665 174.787 35.6626C174.803 35.6587 174.82 35.6609 174.835 35.6685C174.85 35.6762 174.86 35.6889 174.865 35.7037C174.876 35.7415 174.888 35.7815 174.897 35.8194C174.901 35.8344 174.898 35.8501 174.889 35.8631C174.879 35.8761 174.865 35.8853 174.848 35.8888L174.834 35.8909ZM169.975 35.7899H169.959C169.95 35.788 169.943 35.7846 169.936 35.7799C169.929 35.7752 169.924 35.7694 169.92 35.7627C169.915 35.756 169.913 35.7486 169.912 35.741C169.911 35.7334 169.912 35.7257 169.914 35.7184C169.925 35.6793 169.937 35.6407 169.952 35.6027C169.954 35.5955 169.958 35.5888 169.964 35.5831C169.969 35.5773 169.976 35.5726 169.983 35.5692C169.991 35.5658 169.999 35.5637 170.007 35.5632C170.016 35.5626 170.024 35.5635 170.032 35.5658C170.04 35.5682 170.047 35.5719 170.054 35.5768C170.06 35.5818 170.065 35.5878 170.069 35.5945C170.073 35.6012 170.075 35.6086 170.076 35.6161C170.076 35.6237 170.075 35.6312 170.073 35.6384C170.073 35.6742 170.047 35.7121 170.038 35.7479C170.034 35.7596 170.026 35.7699 170.015 35.7774C170.004 35.7849 169.991 35.7893 169.977 35.7899H169.975ZM174.613 35.3354C174.601 35.3356 174.59 35.3327 174.58 35.3271C174.57 35.3215 174.562 35.3134 174.557 35.3039C174.538 35.2702 174.517 35.2365 174.496 35.205C174.492 35.1984 174.489 35.1911 174.488 35.1834C174.486 35.1757 174.487 35.1679 174.489 35.1604C174.491 35.1529 174.495 35.1459 174.5 35.1399C174.506 35.1338 174.512 35.1287 174.52 35.125C174.527 35.1212 174.535 35.1188 174.543 35.1178C174.551 35.1169 174.56 35.1174 174.568 35.1193C174.576 35.1213 174.583 35.1246 174.59 35.1292C174.596 35.1338 174.602 35.1395 174.606 35.146C174.629 35.1797 174.65 35.2155 174.671 35.2513C174.675 35.258 174.678 35.2654 174.678 35.273C174.679 35.2806 174.678 35.2883 174.676 35.2956C174.673 35.3028 174.669 35.3095 174.663 35.3153C174.658 35.3211 174.651 35.3258 174.643 35.3291C174.635 35.3331 174.625 35.3352 174.615 35.3354H174.613ZM170.227 35.2428C170.216 35.245 170.205 35.245 170.194 35.2428C170.179 35.2349 170.169 35.2221 170.164 35.2072C170.16 35.1922 170.162 35.1763 170.171 35.1629C170.192 35.1273 170.215 35.0929 170.241 35.0598C170.245 35.0533 170.251 35.0477 170.258 35.0434C170.265 35.039 170.273 35.036 170.281 35.0344C170.289 35.0328 170.298 35.0328 170.306 35.0342C170.314 35.0357 170.322 35.0387 170.329 35.0429C170.336 35.047 170.343 35.0523 170.347 35.0586C170.352 35.0648 170.356 35.0719 170.357 35.0793C170.359 35.0868 170.359 35.0945 170.358 35.102C170.356 35.1095 170.353 35.1166 170.348 35.1229L170.28 35.2197C170.274 35.2272 170.266 35.2333 170.257 35.2373C170.247 35.2414 170.237 35.2433 170.227 35.2428ZM174.245 34.8514C174.236 34.8517 174.227 34.8501 174.219 34.8468C174.211 34.8436 174.204 34.8387 174.198 34.8325L174.11 34.7483C174.101 34.737 174.097 34.7232 174.098 34.7094C174.099 34.6956 174.106 34.6827 174.117 34.6729C174.128 34.6631 174.142 34.657 174.157 34.6558C174.173 34.6546 174.188 34.6583 174.2 34.6663C174.231 34.6957 174.261 34.7231 174.291 34.7547C174.299 34.763 174.304 34.7732 174.306 34.7841C174.308 34.795 174.306 34.806 174.301 34.8161C174.296 34.8262 174.289 34.8348 174.279 34.841C174.269 34.8473 174.257 34.8509 174.245 34.8514ZM170.623 34.7757C170.606 34.7751 170.589 34.7692 170.576 34.7589C170.57 34.7536 170.565 34.7472 170.562 34.7401C170.559 34.7331 170.557 34.7255 170.557 34.7178C170.557 34.7102 170.559 34.7026 170.562 34.6955C170.565 34.6885 170.57 34.6821 170.576 34.6768C170.609 34.6473 170.639 34.62 170.674 34.5926C170.687 34.5851 170.703 34.582 170.718 34.5839C170.733 34.5858 170.747 34.5925 170.758 34.6028C170.768 34.6132 170.774 34.6265 170.774 34.6404C170.775 34.6543 170.77 34.668 170.76 34.6789C170.728 34.7042 170.697 34.7315 170.667 34.7589C170.662 34.7645 170.655 34.7691 170.647 34.7724C170.64 34.7756 170.631 34.7775 170.623 34.7778V34.7757ZM173.748 34.4706C173.736 34.4706 173.723 34.4669 173.713 34.4601L173.604 34.4011C173.589 34.3932 173.578 34.3804 173.574 34.3655C173.57 34.3505 173.572 34.3346 173.581 34.3212C173.585 34.3147 173.59 34.309 173.597 34.3044C173.603 34.2998 173.611 34.2964 173.619 34.2945C173.627 34.2925 173.635 34.292 173.643 34.293C173.652 34.2939 173.66 34.2964 173.667 34.3001L173.783 34.3633C173.797 34.3718 173.807 34.3849 173.81 34.3999C173.814 34.4148 173.811 34.4303 173.802 34.4432C173.796 34.4517 173.788 34.4588 173.779 34.4639C173.77 34.469 173.759 34.4721 173.748 34.4727V34.4706ZM171.138 34.4159C171.127 34.4158 171.115 34.413 171.106 34.4079C171.096 34.4027 171.088 34.3953 171.082 34.3864C171.078 34.3799 171.075 34.3728 171.074 34.3653C171.073 34.3579 171.074 34.3503 171.076 34.3431C171.078 34.3359 171.082 34.3291 171.087 34.3232C171.092 34.3172 171.098 34.3123 171.105 34.3086L171.224 34.2496C171.232 34.246 171.24 34.2438 171.248 34.2432C171.257 34.2425 171.265 34.2434 171.273 34.2457C171.281 34.2481 171.289 34.2519 171.295 34.2569C171.302 34.2619 171.307 34.268 171.31 34.2749C171.318 34.2886 171.319 34.3044 171.314 34.3189C171.309 34.3334 171.297 34.3456 171.282 34.3527C171.243 34.3696 171.208 34.3885 171.171 34.4075C171.161 34.4139 171.15 34.4175 171.138 34.418V34.4159ZM173.159 34.2181H173.138L173.023 34.1907C173.015 34.189 173.008 34.1858 173.001 34.1814C172.994 34.1769 172.988 34.1713 172.984 34.1648C172.98 34.1584 172.977 34.1512 172.976 34.1437C172.974 34.1362 172.975 34.1286 172.977 34.1213C172.981 34.1062 172.992 34.0934 173.007 34.0855C173.022 34.0776 173.039 34.0754 173.056 34.0792L173.184 34.1129C173.193 34.115 173.2 34.1186 173.207 34.1236C173.214 34.1285 173.219 34.1346 173.223 34.1415C173.227 34.1484 173.229 34.1559 173.23 34.1637C173.23 34.1714 173.229 34.1792 173.226 34.1865C173.22 34.1977 173.21 34.2069 173.198 34.2129C173.186 34.2189 173.172 34.2215 173.159 34.2202V34.2181ZM171.739 34.1886C171.725 34.1884 171.712 34.1842 171.7 34.1766C171.689 34.1691 171.681 34.1586 171.676 34.1465C171.672 34.1315 171.675 34.1155 171.683 34.1021C171.692 34.0887 171.706 34.0789 171.723 34.075L171.853 34.0455C171.862 34.044 171.87 34.0439 171.878 34.0453C171.886 34.0467 171.894 34.0495 171.901 34.0536C171.908 34.0577 171.914 34.063 171.918 34.0692C171.923 34.0754 171.926 34.0824 171.928 34.0897C171.93 34.0972 171.93 34.105 171.929 34.1126C171.928 34.1202 171.925 34.1274 171.92 34.1339C171.916 34.1404 171.91 34.146 171.902 34.1503C171.895 34.1547 171.887 34.1577 171.879 34.1592L171.756 34.1865L171.739 34.1886ZM172.515 34.1129H172.385C172.37 34.1103 172.357 34.1031 172.347 34.0925C172.337 34.082 172.332 34.0687 172.332 34.055C172.332 34.0413 172.337 34.028 172.347 34.0175C172.357 34.0069 172.37 33.9997 172.385 33.9971H172.52C172.535 33.9997 172.548 34.0069 172.558 34.0175C172.568 34.028 172.573 34.0413 172.573 34.055C172.573 34.0687 172.568 34.082 172.558 34.0925C172.548 34.1031 172.535 34.1103 172.52 34.1129H172.515Z" fill="white"/>
<path d="M172.533 34.5695L172.922 35.6553C172.928 35.6693 172.938 35.6815 172.951 35.6902C172.965 35.6989 172.981 35.7036 172.997 35.7037H174.263C174.279 35.7044 174.294 35.7096 174.307 35.7185C174.32 35.7275 174.33 35.7398 174.335 35.7539C174.339 35.7679 174.339 35.7829 174.334 35.7969C174.329 35.8109 174.32 35.8231 174.307 35.832L173.284 36.5054C173.271 36.5147 173.261 36.5273 173.256 36.5415C173.251 36.5558 173.251 36.571 173.256 36.5853L173.647 37.6711C173.653 37.6855 173.654 37.7012 173.649 37.7159C173.644 37.7305 173.634 37.7433 173.62 37.7522C173.606 37.7611 173.589 37.7656 173.572 37.765C173.555 37.7644 173.539 37.7588 173.526 37.749L172.505 37.0777C172.492 37.0694 172.475 37.065 172.459 37.065C172.442 37.065 172.426 37.0694 172.412 37.0777L171.391 37.7448C171.378 37.7536 171.362 37.7585 171.346 37.7586C171.329 37.7587 171.313 37.754 171.3 37.7453C171.287 37.7366 171.277 37.7243 171.272 37.7102C171.267 37.6961 171.267 37.681 171.272 37.6669L171.662 36.5811C171.665 36.5666 171.664 36.5513 171.657 36.5377C171.65 36.524 171.639 36.5127 171.624 36.5054L170.603 35.8362C170.591 35.8273 170.581 35.8151 170.576 35.8011C170.571 35.7871 170.571 35.7721 170.576 35.7581C170.581 35.7441 170.59 35.7317 170.603 35.7227C170.616 35.7138 170.632 35.7086 170.648 35.7079H171.913C171.93 35.708 171.945 35.7034 171.958 35.6946C171.971 35.6859 171.981 35.6735 171.986 35.6595L172.377 34.5737C172.38 34.557 172.389 34.5416 172.403 34.5303C172.417 34.5191 172.435 34.5126 172.453 34.5121C172.472 34.5116 172.49 34.5171 172.505 34.5276C172.52 34.5381 172.53 34.5529 172.533 34.5695Z" fill="#FFFFB6"/>
<path d="M172.456 20.8414C173.855 20.8604 174.586 18.8067 174.586 18.8067C174.586 18.8067 175.097 18.773 175.251 19.4779C175.405 20.1828 173.505 22.9983 173.95 23.8968C174.395 24.7953 173.349 26.7733 172.107 26.6512C170.864 26.5292 169.853 26.4934 168.324 27.4045C166.795 28.3157 164.492 27.0363 164.648 25.3887C164.805 23.7411 162.861 22.8973 162.938 21.338C163.015 19.7788 164.628 19.3559 165.658 19.7241C166.688 20.0923 168.324 19.8293 168.324 19.8293C171.09 19.5095 171.058 20.8246 172.456 20.8414Z" fill="black"/>
<path d="M167.707 21.016C167.348 20.8398 166.95 20.7357 166.542 20.7109C166.008 20.7214 165.496 20.9087 165.405 21.5168C165.314 22.125 165.987 22.569 166.803 22.9119C167.283 23.1224 168.901 23.3328 169.749 22.9288C170.597 22.5248 171.05 22.2175 171.227 21.6831C171.404 21.1486 170.919 20.631 170.451 20.4794C170.249 20.4309 170.038 20.4275 169.835 20.4697C169.632 20.5119 169.443 20.5983 169.285 20.7214C169.081 20.9016 168.824 21.025 168.544 21.0772C168.264 21.1294 167.974 21.1082 167.707 21.016Z" fill="white"/>
<path d="M165.057 21.1865C165.057 21.4055 164.985 21.6196 164.851 21.8017C164.716 21.9837 164.524 22.1256 164.3 22.2093C164.076 22.293 163.829 22.3148 163.591 22.2719C163.354 22.2291 163.135 22.1234 162.964 21.9684C162.792 21.8134 162.676 21.616 162.629 21.4012C162.582 21.1863 162.606 20.9637 162.699 20.7615C162.793 20.5593 162.95 20.3866 163.152 20.2652C163.354 20.1439 163.591 20.0793 163.834 20.0797C163.995 20.0797 164.154 20.1084 164.303 20.164C164.451 20.2197 164.586 20.3012 164.7 20.404C164.813 20.5068 164.904 20.6289 164.965 20.7631C165.026 20.8974 165.058 21.0413 165.057 21.1865Z" fill="black"/>
<path d="M164.982 22.2912C164.982 22.5097 164.911 22.7233 164.776 22.905C164.642 23.0867 164.451 23.2283 164.227 23.3119C164.003 23.3955 163.757 23.4174 163.52 23.3747C163.283 23.3321 163.065 23.2269 162.894 23.0724C162.722 22.9179 162.606 22.7211 162.559 22.5068C162.511 22.2925 162.536 22.0703 162.628 21.8685C162.721 21.6666 162.878 21.4941 163.079 21.3727C163.28 21.2513 163.517 21.1865 163.759 21.1865C164.083 21.1865 164.395 21.3029 164.624 21.5101C164.853 21.7173 164.982 21.9983 164.982 22.2912Z" fill="black"/>
<path d="M165.395 24.1261C165.396 24.3451 165.324 24.5593 165.19 24.7416C165.055 24.9239 164.864 25.0661 164.64 25.1502C164.416 25.2343 164.17 25.2565 163.932 25.2141C163.694 25.1716 163.475 25.0663 163.303 24.9116C163.132 24.7569 163.015 24.5597 162.967 24.345C162.92 24.1302 162.944 23.9075 163.036 23.7052C163.129 23.5028 163.286 23.3298 163.488 23.2081C163.69 23.0864 163.927 23.0214 164.169 23.0214C164.494 23.0214 164.805 23.1377 165.035 23.3449C165.265 23.552 165.395 23.833 165.395 24.1261Z" fill="black"/>
<path d="M166.205 25.8348C166.203 26.0529 166.13 26.2656 165.994 26.4462C165.859 26.6268 165.667 26.767 165.443 26.8494C165.219 26.9317 164.974 26.9524 164.737 26.9088C164.5 26.8652 164.283 26.7594 164.113 26.6045C163.943 26.4497 163.827 26.2528 163.781 26.0388C163.734 25.8247 163.759 25.603 163.852 25.4017C163.945 25.2003 164.102 25.0282 164.303 24.9072C164.504 24.7862 164.74 24.7216 164.981 24.7216C165.143 24.7216 165.303 24.7505 165.452 24.8065C165.601 24.8626 165.736 24.9447 165.85 25.0482C165.964 25.1516 166.054 25.2744 166.115 25.4094C166.175 25.5444 166.206 25.689 166.205 25.8348Z" fill="black"/>
<path d="M167.59 27.0363C167.59 27.2548 167.518 27.4684 167.384 27.6501C167.249 27.8317 167.058 27.9733 166.834 28.0569C166.611 28.1405 166.365 28.1624 166.127 28.1198C165.89 28.0772 165.672 27.972 165.501 27.8175C165.33 27.663 165.213 27.4661 165.166 27.2518C165.119 27.0375 165.143 26.8154 165.236 26.6135C165.328 26.4117 165.485 26.2391 165.686 26.1178C165.888 25.9964 166.124 25.9316 166.366 25.9316C166.691 25.9316 167.002 26.048 167.231 26.2551C167.461 26.4623 167.59 26.7433 167.59 27.0363Z" fill="black"/>
<path d="M169.549 27.2593C169.549 27.4778 169.477 27.6914 169.343 27.8731C169.208 28.0547 169.017 28.1963 168.793 28.2799C168.57 28.3636 168.324 28.3854 168.086 28.3428C167.849 28.3002 167.631 28.195 167.46 28.0405C167.289 27.886 167.172 27.6891 167.125 27.4748C167.078 27.2605 167.102 27.0384 167.195 26.8366C167.287 26.6347 167.444 26.4622 167.645 26.3408C167.847 26.2194 168.083 26.1546 168.325 26.1546C168.65 26.1546 168.961 26.271 169.19 26.4782C169.42 26.6853 169.549 26.9663 169.549 27.2593Z" fill="black"/>
<path d="M170.546 27.9327C171.222 27.9327 171.769 27.4381 171.769 26.828C171.769 26.2179 171.222 25.7233 170.546 25.7233C169.87 25.7233 169.322 26.2179 169.322 26.828C169.322 27.4381 169.87 27.9327 170.546 27.9327Z" fill="black"/>
<path d="M173.785 26.3356C173.785 26.5541 173.713 26.7677 173.579 26.9494C173.444 27.131 173.253 27.2726 173.03 27.3563C172.806 27.4399 172.56 27.4617 172.323 27.4191C172.085 27.3765 171.867 27.2713 171.696 27.1168C171.525 26.9623 171.409 26.7654 171.361 26.5511C171.314 26.3368 171.338 26.1147 171.431 25.9129C171.524 25.711 171.68 25.5385 171.882 25.4171C172.083 25.2957 172.319 25.2309 172.561 25.2309C172.886 25.2309 173.197 25.3473 173.427 25.5545C173.656 25.7616 173.785 26.0426 173.785 26.3356Z" fill="black"/>
<path d="M175.26 24.7217C175.26 24.9402 175.188 25.1537 175.053 25.3354C174.919 25.5171 174.728 25.6587 174.504 25.7423C174.281 25.8259 174.035 25.8478 173.797 25.8052C173.56 25.7625 173.342 25.6573 173.171 25.5028C173 25.3483 172.883 25.1515 172.836 24.9372C172.789 24.7229 172.813 24.5008 172.906 24.2989C172.998 24.097 173.155 23.9245 173.356 23.8031C173.558 23.6817 173.794 23.6169 174.036 23.6169C174.361 23.6169 174.672 23.7333 174.901 23.9405C175.131 24.1477 175.26 24.4287 175.26 24.7217Z" fill="black"/>
<path d="M173.364 22.9099C174.04 22.9099 174.588 22.4153 174.588 21.8052C174.588 21.195 174.04 20.7004 173.364 20.7004C172.688 20.7004 172.141 21.195 172.141 21.8052C172.141 22.4153 172.688 22.9099 173.364 22.9099Z" fill="black"/>
<path d="M198.097 55.5845L197.195 55.1089L196.254 55.5108L196.475 54.5892L195.76 53.9032L196.799 53.8106L197.3 52.9857L197.72 53.8464L198.745 54.0231L197.967 54.6502L198.097 55.5845Z" fill="#FFFBAB"/>
<path d="M144.701 65.4343L143.799 64.9587L142.855 65.3607L143.076 64.4411L142.363 63.753L143.4 63.6604L143.904 62.8356L144.323 63.6962L145.347 63.873L144.57 64.5L144.701 65.4343Z" fill="#FFFBAB"/>
<path d="M164.391 3.94865L163.706 3.58672L162.988 3.89184L163.156 3.19323L162.615 2.67138L163.403 2.59984L163.785 1.97278L164.105 2.62719L164.883 2.76187L164.291 3.23742L164.391 3.94865Z" fill="#FFFBAB"/>
<path d="M199.361 19.6756L197.895 19.8145L197.192 20.9845L196.59 19.7682L195.141 19.5262L196.236 18.634L196.045 17.3147L197.322 17.9796L198.653 17.4073L198.348 18.7098L199.361 19.6756Z" fill="#FFFBAB"/>
</g>
<defs>
<clipPath id="clip0">
<rect width="57.6167" height="87.5403" fill="white" transform="translate(141.746 1.97278)"/>
</clipPath>
</defs>
</svg>
