<svg width="19" height="19" viewBox="0 0 19 19" fill="none" xmlns="http://www.w3.org/2000/svg">
<path d="M6.6785 8.35021C7.61684 9.99869 8.98202 11.3639 10.6305 12.3022L11.5145 11.0642C11.6567 10.8651 11.8668 10.7251 12.1053 10.6705C12.3438 10.616 12.5939 10.6507 12.8085 10.7682C14.2228 11.5411 15.7847 12.006 17.3915 12.1322C17.6423 12.1521 17.8763 12.2657 18.047 12.4505C18.2177 12.6353 18.3125 12.8777 18.3125 13.1292V17.5912C18.3126 17.8388 18.2208 18.0776 18.0549 18.2614C17.889 18.4452 17.6608 18.561 17.4145 18.5862C16.8845 18.6412 16.3505 18.6682 15.8125 18.6682C7.2525 18.6682 0.3125 11.7282 0.3125 3.16821C0.3125 2.63021 0.3395 2.09621 0.3945 1.56621C0.419755 1.31991 0.535484 1.09173 0.71929 0.925847C0.903095 0.75996 1.14191 0.66816 1.3895 0.668213H5.8515C6.10306 0.668181 6.3454 0.762964 6.53018 0.933664C6.71497 1.10436 6.82863 1.33844 6.8485 1.58921C6.97472 3.19601 7.43958 4.75789 8.2125 6.17221C8.32996 6.38678 8.36471 6.63695 8.31017 6.87541C8.25562 7.11386 8.11556 7.32405 7.9165 7.46621L6.6785 8.35021ZM4.1565 7.69321L6.0565 6.33621C5.51728 5.17231 5.14785 3.93705 4.9595 2.66821H2.3225C2.3165 2.83421 2.3135 3.00121 2.3135 3.16821C2.3125 10.6242 8.3565 16.6682 15.8125 16.6682C15.9795 16.6682 16.1465 16.6652 16.3125 16.6582V14.0212C15.0437 13.8329 13.8084 13.4634 12.6445 12.9242L11.2875 14.8242C10.7412 14.6119 10.2105 14.3613 9.6995 14.0742L9.6415 14.0412C7.68008 12.9249 6.05578 11.3006 4.9395 9.33921L4.9065 9.28121C4.61941 8.77021 4.36878 8.23955 4.1565 7.69321Z" fill="#DF3835"/>
</svg>
