<svg width="22" height="23" viewBox="0 0 22 23" fill="none" xmlns="http://www.w3.org/2000/svg">
<path d="M17.193 19.1547H2.607C2.51414 19.1547 2.42312 19.1289 2.34413 19.0801C2.26515 19.0312 2.20131 18.9614 2.15979 18.8783C2.11826 18.7953 2.10068 18.7023 2.10902 18.6098C2.11736 18.5173 2.15129 18.429 2.207 18.3547L2.607 17.8217V9.15473C2.607 7.82473 2.931 6.57073 3.506 5.46773L0 1.96273L1.415 0.547729L21.214 20.3477L19.799 21.7617L17.193 19.1547ZM5.015 6.97673C4.74462 7.671 4.60625 8.40966 4.607 9.15473V17.1547H15.193L5.015 6.97673ZM18.607 14.9407L16.607 12.9407V9.15473C16.6072 8.1024 16.3306 7.06852 15.805 6.15685C15.2794 5.24518 14.5233 4.48778 13.6125 3.96065C12.7017 3.43352 11.6683 3.15522 10.6159 3.15365C9.56359 3.15208 8.52936 3.42732 7.617 3.95173L6.167 2.49973C7.37173 1.69595 8.77207 1.23428 10.2186 1.16397C11.6652 1.09366 13.1037 1.41734 14.3807 2.1005C15.6577 2.78366 16.7253 3.80066 17.4696 5.04301C18.2139 6.28537 18.607 7.70647 18.607 9.15473V14.9407ZM8.107 20.1547H13.107C13.107 20.8178 12.8436 21.4537 12.3748 21.9225C11.9059 22.3913 11.27 22.6547 10.607 22.6547C9.94396 22.6547 9.30807 22.3913 8.83923 21.9225C8.37039 21.4537 8.107 20.8178 8.107 20.1547Z" fill="#888888"/>
</svg>
