<svg width="21" height="23" viewBox="0 0 21 23" fill="none" xmlns="http://www.w3.org/2000/svg">
<path d="M20.5391 18.5249H0.539062V16.5249H1.53906V9.5559C1.53906 4.5679 5.56906 0.524902 10.5391 0.524902C15.5091 0.524902 19.5391 4.5679 19.5391 9.5559V16.5249H20.5391V18.5249ZM3.53906 16.5249H17.5391V9.5559C17.5391 5.6729 14.4051 2.5249 10.5391 2.5249C6.67306 2.5249 3.53906 5.6729 3.53906 9.5559V16.5249ZM8.03906 19.5249H13.0391C13.0391 20.1879 12.7757 20.8238 12.3068 21.2927C11.838 21.7615 11.2021 22.0249 10.5391 22.0249C9.87602 22.0249 9.24014 21.7615 8.7713 21.2927C8.30245 20.8238 8.03906 20.1879 8.03906 19.5249Z" fill="white"/>
</svg>
