<svg width="20" height="21" viewBox="0 0 20 21" fill="none" xmlns="http://www.w3.org/2000/svg">
<path d="M19.7693 7.67887C19.7077 7.49737 19.5942 7.33789 19.443 7.22011C19.2918 7.10234 19.1093 7.03143 18.9182 7.01614L13.3283 6.57202L10.9094 1.21817C10.8323 1.04573 10.707 0.89927 10.5486 0.796464C10.3901 0.693657 10.2053 0.638898 10.0164 0.638794C9.82756 0.63869 9.64268 0.693247 9.48412 0.79588C9.32556 0.898512 9.2001 1.04483 9.12287 1.21719L6.70394 6.57202L1.11402 7.01614C0.926206 7.03101 0.746657 7.09968 0.59685 7.21391C0.447044 7.32814 0.333325 7.48311 0.269297 7.66028C0.20527 7.83744 0.193645 8.02929 0.235814 8.21289C0.277984 8.39649 0.372161 8.56405 0.507079 8.69553L4.63799 12.722L3.17702 19.0474C3.13266 19.2388 3.14688 19.4392 3.21783 19.6225C3.28879 19.8058 3.4132 19.9635 3.57492 20.0752C3.73664 20.1869 3.92822 20.2475 4.12478 20.249C4.32133 20.2505 4.51381 20.1929 4.67721 20.0836L10.0161 16.5248L15.355 20.0836C15.5221 20.1945 15.719 20.2516 15.9195 20.2472C16.1199 20.2428 16.3142 20.1771 16.4762 20.059C16.6381 19.941 16.7601 19.7761 16.8256 19.5866C16.8911 19.3972 16.897 19.1922 16.8425 18.9993L15.0491 12.7249L19.4967 8.72298C19.7879 8.46024 19.8948 8.05044 19.7693 7.67887Z" fill="#FFA133"/>
</svg>
