<svg width="16" height="12" viewBox="0 0 16 12" fill="none" xmlns="http://www.w3.org/2000/svg">
<path d="M6.12641 9.22904C6.04715 9.78524 5.76988 10.2942 5.34553 10.6623C4.92117 11.0305 4.37822 11.2332 3.81641 11.2332C3.25459 11.2332 2.71164 11.0305 2.28729 10.6623C1.86293 10.2942 1.58566 9.78524 1.50641 9.22904H0.816406V1.22904C0.816406 1.05223 0.886644 0.882664 1.01167 0.75764C1.13669 0.632616 1.30626 0.562378 1.48307 0.562378H10.8164C10.9932 0.562378 11.1628 0.632616 11.2878 0.75764C11.4128 0.882664 11.4831 1.05223 11.4831 1.22904V2.56238H13.4831L15.4831 5.26638V9.22904H14.1264C14.0472 9.78524 13.7699 10.2942 13.3455 10.6623C12.9212 11.0305 12.3782 11.2332 11.8164 11.2332C11.2546 11.2332 10.7116 11.0305 10.2873 10.6623C9.86293 10.2942 9.58566 9.78524 9.50641 9.22904H6.12641ZM10.1497 1.89571H2.14974V7.26238C2.41278 6.99384 2.73681 6.79283 3.09424 6.67646C3.45168 6.56008 3.83194 6.53178 4.20266 6.59397C4.57338 6.65616 4.92359 6.807 5.22348 7.03365C5.52337 7.26029 5.76406 7.55604 5.92507 7.89571H9.70774C9.81974 7.66038 9.96974 7.44638 10.1497 7.26238V1.89571ZM11.4831 5.89571H14.1497V5.70571L12.8111 3.89571H11.4831V5.89571ZM11.8164 9.89571C12.0817 9.89571 12.3361 9.79032 12.5237 9.60272C12.7113 9.41512 12.8167 9.16068 12.8167 8.89538C12.8167 8.63007 12.7113 8.37563 12.5237 8.18804C12.3361 8.00044 12.0817 7.89504 11.8164 7.89504C11.5511 7.89504 11.2967 8.00044 11.1091 8.18804C10.9215 8.37563 10.8161 8.63007 10.8161 8.89538C10.8161 9.16068 10.9215 9.41512 11.1091 9.60272C11.2967 9.79032 11.5511 9.89571 11.8164 9.89571ZM4.81641 8.89571C4.81641 8.76439 4.79054 8.63435 4.74029 8.51303C4.69003 8.3917 4.61637 8.28146 4.52351 8.18861C4.43065 8.09575 4.32042 8.02209 4.19909 7.97183C4.07776 7.92158 3.94773 7.89571 3.81641 7.89571C3.68508 7.89571 3.55505 7.92158 3.43372 7.97183C3.3124 8.02209 3.20216 8.09575 3.1093 8.18861C3.01644 8.28146 2.94278 8.3917 2.89253 8.51303C2.84227 8.63435 2.81641 8.76439 2.81641 8.89571C2.81641 9.16093 2.92176 9.41528 3.1093 9.60282C3.29684 9.79035 3.55119 9.89571 3.81641 9.89571C4.08162 9.89571 4.33598 9.79035 4.52351 9.60282C4.71105 9.41528 4.81641 9.16093 4.81641 8.89571Z" fill="#616161"/>
</svg>
