<svg width="43" height="43" viewBox="0 0 43 43" fill="none" xmlns="http://www.w3.org/2000/svg">
<path d="M4.2168 35.2374H39.2168V38.7374H4.2168V35.2374ZM7.7168 21.2374H11.2168V33.4874H7.7168V21.2374ZM16.4668 21.2374H19.9668V33.4874H16.4668V21.2374ZM23.4668 21.2374H26.9668V33.4874H23.4668V21.2374ZM32.2168 21.2374H35.7168V33.4874H32.2168V21.2374ZM4.2168 12.4874L21.7168 3.73743L39.2168 12.4874V19.4874H4.2168V12.4874ZM7.7168 14.6504V15.9874H35.7168V14.6504L21.7168 7.65043L7.7168 14.6504ZM21.7168 14.2374C21.2527 14.2374 20.8075 14.0531 20.4794 13.7249C20.1512 13.3967 19.9668 12.9516 19.9668 12.4874C19.9668 12.0233 20.1512 11.5782 20.4794 11.25C20.8075 10.9218 21.2527 10.7374 21.7168 10.7374C22.1809 10.7374 22.626 10.9218 22.9542 11.25C23.2824 11.5782 23.4668 12.0233 23.4668 12.4874C23.4668 12.9516 23.2824 13.3967 22.9542 13.7249C22.626 14.0531 22.1809 14.2374 21.7168 14.2374Z" fill="#219653"/>
</svg>
