<svg width="48" height="20" viewBox="0 0 48 20" fill="none" xmlns="http://www.w3.org/2000/svg">
<path d="M0.876953 5.4812C1.00388 5.49274 1.13209 5.51539 1.26884 5.51539C1.39748 5.51539 1.51457 5.49274 1.66073 5.4812V9.67615C2.0727 8.97229 2.59237 8.50818 3.35606 8.50818C4.73642 8.50818 5.33473 9.87829 5.33473 11.136C5.33473 12.6433 4.53044 14.0839 3.12058 14.0839C2.31758 14.0839 1.90603 13.5869 1.72868 13.2784C1.49406 13.4822 1.28764 13.7322 1.06243 13.9579H0.876953V5.4812ZM1.64021 11.6463C1.64021 12.8698 2.16031 13.7211 3.01118 13.7211C4.12017 13.7211 4.47232 12.2373 4.47232 11.1817C4.47232 9.95863 4.0706 8.99451 3.11118 8.98298C1.99449 8.97229 1.64021 10.2984 1.64021 11.6463Z" fill="#DF146E"/>
<path d="M8.93922 8.19444L8.10629 9.26454C8.88921 10.4103 9.70162 11.5291 10.4875 12.6868L11.279 13.93V13.9928C11.0841 13.9809 10.9068 13.9561 10.7397 13.9561C10.5546 13.9561 10.3692 13.9809 10.1927 13.9928C9.97684 13.5945 9.76017 13.2223 9.51572 12.8603L7.3785 9.68848C7.33064 9.63805 7.21312 9.6013 7.21312 9.65045V13.9924C7.0567 13.9804 6.92038 13.9557 6.78277 13.9557C6.63576 13.9557 6.48874 13.9804 6.35156 13.9924V5.48114C6.48832 5.49353 6.63576 5.5196 6.78277 5.5196C6.91995 5.5196 7.0567 5.49353 7.21312 5.48114V9.32651C7.2238 9.40001 7.36013 9.35129 7.45799 9.25258C7.6362 9.07821 7.84048 8.81581 7.97723 8.64316L10.388 5.48071C10.5145 5.49311 10.641 5.51918 10.7807 5.51918C10.8974 5.51918 11.0239 5.49311 11.1615 5.48071L8.93922 8.19444ZM15.4244 13.0398C15.4244 13.4821 15.3945 13.7103 15.9731 13.5625V13.8112C15.9034 13.8458 15.7863 13.9014 15.6795 13.9245C15.1697 14.027 14.747 13.9368 14.6692 13.2676L14.5821 13.3697C14.1709 13.8458 13.7209 14.0839 13.1303 14.0839C12.4371 14.0839 11.8299 13.5398 11.8299 12.6996C11.8299 11.4086 12.7188 11.2377 13.6414 11.068C14.4162 10.9197 14.6786 10.8539 14.6786 10.3094C14.6786 9.47181 14.2679 8.98291 13.5329 8.98291C12.8188 8.98291 12.4371 9.51626 12.3666 9.76583H12.2594V9.13035C12.7295 8.75812 13.2598 8.50812 13.8363 8.50812C14.8662 8.50812 15.4244 9.13035 15.4244 10.412V13.0398ZM14.6397 11.1701L14.2961 11.25C13.6316 11.3962 12.6303 11.5107 12.6303 12.542C12.6303 13.2548 12.9957 13.6074 13.5914 13.6074C13.8555 13.6074 14.1889 13.3928 14.3735 13.177C14.4449 13.0975 14.6402 12.9035 14.6402 12.8249V11.1701H14.6397ZM17.1688 12.8924C17.4026 13.3364 17.8347 13.7321 18.2928 13.7321C18.774 13.7321 19.2548 13.3001 19.2548 12.6996C19.2548 11.1701 16.9419 12.168 16.9419 10.1846C16.9419 9.09659 17.6577 8.50812 18.5398 8.50812C19.0488 8.50812 19.4702 8.67692 19.6462 8.80171C19.5492 9.0624 19.4706 9.3342 19.4121 9.60728H19.3236C19.1962 9.23334 18.8535 8.85727 18.4898 8.85727C18.0013 8.85727 17.5992 9.18847 17.5992 9.79959C17.5992 11.25 19.9116 10.4787 19.9116 12.2928C19.9116 13.5052 18.9719 14.0839 18.1082 14.0839C17.7077 14.0839 17.2257 13.9578 16.8829 13.721C16.9624 13.4492 17.0505 13.1774 17.0902 12.8924H17.1688ZM21.2339 5.48114C21.3612 5.49268 21.4873 5.51533 21.6249 5.51533C21.754 5.51533 21.8706 5.49268 22.0168 5.48114V9.60728C22.3591 8.91454 22.8993 8.50812 23.595 8.50812C24.7301 8.50812 25.1716 9.28976 25.1716 10.7171V13.9933C25.0233 13.9813 24.9066 13.9578 24.7801 13.9578C24.6421 13.9578 24.5147 13.9817 24.3869 13.9933V10.9774C24.3869 9.71968 24.1326 9.09616 23.3006 9.09616C22.4185 9.09616 22.0172 9.73207 22.0172 10.9082V13.9933C21.8715 13.9813 21.7548 13.9578 21.6253 13.9578C21.4882 13.9578 21.3617 13.9817 21.2343 13.9933V5.48114H21.2339Z" fill="#221F1F"/>
<path d="M46.0972 19.1545H28.9481C28.4349 19.1545 28.0156 18.7344 28.0156 18.2212V1.16059C28.0156 0.646046 28.4349 0.226379 28.9481 0.226379H46.0972C46.6113 0.226379 47.0305 0.646046 47.0305 1.16059V18.2212C47.0305 18.7344 46.6113 19.1545 46.0972 19.1545Z" fill="#DF146E"/>
<path d="M41.6462 10.5903L35.6175 9.63043L36.4333 13.1899L41.6462 10.5903ZM41.8907 10.2988L37.1504 3.71366L35.6021 9.31462L41.8907 10.2988ZM35.3085 9.23812L30.3413 2.8927L36.8461 3.67007L35.3085 9.23812ZM32.8986 6.60816L30.1426 4.00982H30.867L32.8986 6.60816ZM43.3706 7.09962L42.2043 10.2634L40.3128 7.64877L43.3706 7.09962ZM37.1688 13.1463L41.7458 11.3087L41.9398 10.7253L37.1688 13.1463ZM33.3512 16.4887L35.3123 9.60736L36.3064 14.0856L33.3512 16.4887ZM43.6501 7.12355L43.168 8.42956L44.9027 8.39964L43.6501 7.12355Z" fill="white"/>
</svg>
