<svg width="40" height="34" viewBox="0 0 40 34" fill="none" xmlns="http://www.w3.org/2000/svg">
<path d="M7.27148 12.6473C7.73561 12.6473 8.18073 12.8317 8.50892 13.1599C8.83711 13.4881 9.02148 13.9332 9.02148 14.3973C11.771 14.3933 14.4412 15.3183 16.599 17.0223H20.3965C22.7292 17.0223 24.824 18.0373 26.266 19.6473H31.7715C33.4257 19.6469 35.0461 20.1153 36.4449 20.9984C37.8437 21.8815 38.9635 23.143 39.6745 24.6366C35.5357 30.0983 28.835 33.6473 21.2715 33.6473C16.389 33.6473 12.259 32.5921 8.91648 30.7458C8.79406 31.0837 8.5704 31.3756 8.27601 31.5816C7.98162 31.7877 7.63083 31.898 7.27148 31.8973H2.02148C1.55736 31.8973 1.11224 31.713 0.784047 31.3848C0.455859 31.0566 0.271484 30.6115 0.271484 30.1473V14.3973C0.271484 13.9332 0.455859 13.4881 0.784047 13.1599C1.11224 12.8317 1.55736 12.6473 2.02148 12.6473H7.27148ZM9.02323 17.8973L9.02148 26.6858L9.10023 26.7418C12.2415 28.9468 16.333 30.1473 21.2715 30.1473C26.5285 30.1473 31.4197 28.1243 34.9827 24.6698L35.2155 24.4371L35.0055 24.2621C34.1791 23.6149 33.1774 23.2308 32.1302 23.1596L31.7715 23.1473H28.0772C28.2032 23.7108 28.2715 24.2953 28.2715 24.8973V26.6473H12.5215V23.1473L24.404 23.1456L24.3445 23.0091C24.0091 22.3083 23.4932 21.7094 22.8498 21.2739C22.2064 20.8384 21.4587 20.582 20.6835 20.5311L20.3965 20.5223H15.269C14.4558 19.6906 13.4845 19.0299 12.4121 18.5791C11.3398 18.1283 10.1882 17.8965 9.02498 17.8973H9.02323ZM5.52148 16.1473H3.77148V28.3973H5.52148V16.1473ZM30.0215 5.64734C31.4139 5.64734 32.7492 6.20046 33.7338 7.18503C34.7184 8.16959 35.2715 9.50495 35.2715 10.8973C35.2715 12.2897 34.7184 13.6251 33.7338 14.6096C32.7492 15.5942 31.4139 16.1473 30.0215 16.1473C28.6291 16.1473 27.2937 15.5942 26.3092 14.6096C25.3246 13.6251 24.7715 12.2897 24.7715 10.8973C24.7715 9.50495 25.3246 8.16959 26.3092 7.18503C27.2937 6.20046 28.6291 5.64734 30.0215 5.64734ZM30.0215 9.14734C29.5574 9.14734 29.1122 9.33171 28.784 9.6599C28.4559 9.98809 28.2715 10.4332 28.2715 10.8973C28.2715 11.3615 28.4559 11.8066 28.784 12.1348C29.1122 12.463 29.5574 12.6473 30.0215 12.6473C30.4856 12.6473 30.9307 12.463 31.2589 12.1348C31.5871 11.8066 31.7715 11.3615 31.7715 10.8973C31.7715 10.4332 31.5871 9.98809 31.2589 9.6599C30.9307 9.33171 30.4856 9.14734 30.0215 9.14734ZM17.7715 0.397339C19.1639 0.397339 20.4992 0.950462 21.4838 1.93503C22.4684 2.91959 23.0215 4.25495 23.0215 5.64734C23.0215 7.03973 22.4684 8.37508 21.4838 9.35965C20.4992 10.3442 19.1639 10.8973 17.7715 10.8973C16.3791 10.8973 15.0437 10.3442 14.0592 9.35965C13.0746 8.37508 12.5215 7.03973 12.5215 5.64734C12.5215 4.25495 13.0746 2.91959 14.0592 1.93503C15.0437 0.950462 16.3791 0.397339 17.7715 0.397339ZM17.7715 3.89734C17.3074 3.89734 16.8622 4.08171 16.534 4.4099C16.2059 4.73809 16.0215 5.18321 16.0215 5.64734C16.0215 6.11147 16.2059 6.55659 16.534 6.88478C16.8622 7.21296 17.3074 7.39734 17.7715 7.39734C18.2356 7.39734 18.6807 7.21296 19.0089 6.88478C19.3371 6.55659 19.5215 6.11147 19.5215 5.64734C19.5215 5.18321 19.3371 4.73809 19.0089 4.4099C18.6807 4.08171 18.2356 3.89734 17.7715 3.89734Z" fill="#F2994A"/>
</svg>
