<svg width="17" height="22" viewBox="0 0 17 22" fill="none" xmlns="http://www.w3.org/2000/svg">
<path d="M7.28906 16.5442C5.27177 16.2875 3.42792 15.2723 2.13225 13.705C0.836585 12.1376 0.186342 10.1357 0.313683 8.10617C0.441024 6.07661 1.33639 4.17169 2.81781 2.77858C4.29922 1.38548 6.25551 0.608724 8.28906 0.606203C10.3251 0.604687 12.2851 1.37954 13.7697 2.77288C15.2543 4.16622 16.1518 6.0732 16.2793 8.10524C16.4068 10.1373 15.7547 12.1415 14.4559 13.7095C13.1571 15.2774 11.3093 16.2912 9.28906 16.5442V18.6182C13.2351 18.7102 16.2891 19.3412 16.2891 20.1062C16.2891 20.9342 12.7071 21.6062 8.28906 21.6062C3.87106 21.6062 0.289062 20.9342 0.289062 20.1062C0.289062 19.3412 3.34306 18.7102 7.28906 18.6182V16.5442ZM8.28906 14.6062C9.88036 14.6062 11.4065 13.9741 12.5317 12.8488C13.6569 11.7236 14.2891 10.1975 14.2891 8.6062C14.2891 7.0149 13.6569 5.48878 12.5317 4.36356C11.4065 3.23834 9.88036 2.6062 8.28906 2.6062C6.69776 2.6062 5.17164 3.23834 4.04642 4.36356C2.9212 5.48878 2.28906 7.0149 2.28906 8.6062C2.28906 10.1975 2.9212 11.7236 4.04642 12.8488C5.17164 13.9741 6.69776 14.6062 8.28906 14.6062ZM8.28906 10.6062C7.75863 10.6062 7.24992 10.3955 6.87485 10.0204C6.49978 9.64534 6.28906 9.13664 6.28906 8.6062C6.28906 8.07577 6.49978 7.56706 6.87485 7.19199C7.24992 6.81692 7.75863 6.6062 8.28906 6.6062C8.8195 6.6062 9.3282 6.81692 9.70328 7.19199C10.0783 7.56706 10.2891 8.07577 10.2891 8.6062C10.2891 9.13664 10.0783 9.64534 9.70328 10.0204C9.3282 10.3955 8.8195 10.6062 8.28906 10.6062Z" fill="#DD3935"/>
</svg>
