<svg width="19" height="22" viewBox="0 0 19 22" fill="none" xmlns="http://www.w3.org/2000/svg">
<path d="M15.6797 7.78052H17.6797C17.9449 7.78052 18.1993 7.88587 18.3868 8.07341C18.5743 8.26095 18.6797 8.5153 18.6797 8.78052V20.7805C18.6797 21.0457 18.5743 21.3001 18.3868 21.4876C18.1993 21.6752 17.9449 21.7805 17.6797 21.7805H1.67969C1.41447 21.7805 1.16012 21.6752 0.972581 21.4876C0.785044 21.3001 0.679688 21.0457 0.679688 20.7805V8.78052C0.679688 8.5153 0.785044 8.26095 0.972581 8.07341C1.16012 7.88587 1.41447 7.78052 1.67969 7.78052H3.67969V6.78052C3.67969 5.18922 4.31183 3.66309 5.43705 2.53788C6.56227 1.41266 8.08839 0.780518 9.67969 0.780518C11.271 0.780518 12.7971 1.41266 13.9223 2.53788C15.0475 3.66309 15.6797 5.18922 15.6797 6.78052V7.78052ZM2.67969 9.78052V19.7805H16.6797V9.78052H2.67969ZM8.67969 13.7805H10.6797V15.7805H8.67969V13.7805ZM4.67969 13.7805H6.67969V15.7805H4.67969V13.7805ZM12.6797 13.7805H14.6797V15.7805H12.6797V13.7805ZM13.6797 7.78052V6.78052C13.6797 5.71965 13.2583 4.70224 12.5081 3.95209C11.758 3.20194 10.7406 2.78052 9.67969 2.78052C8.61882 2.78052 7.60141 3.20194 6.85126 3.95209C6.10111 4.70224 5.67969 5.71965 5.67969 6.78052V7.78052H13.6797Z" fill="#DD3935"/>
</svg>
