<svg width="21" height="21" viewBox="0 0 21 21" fill="none" xmlns="http://www.w3.org/2000/svg">
<path d="M2.67554 13.3035L6.07754 9.90152L8.90554 12.7305L12.0625 9.57352L10.2695 7.78052H15.2695V12.7805L13.4765 10.9875L8.90554 15.5585L6.07754 12.7305L3.60254 15.2045C4.72595 16.8954 6.45016 18.0959 8.42577 18.5629C10.4014 19.0298 12.4806 18.7282 14.2422 17.7192C16.0037 16.7102 17.3158 15.0693 17.9125 13.1289C18.5092 11.1886 18.3459 9.09392 17.4558 7.26945C16.5656 5.44498 15.0152 4.02715 13.1186 3.30326C11.222 2.57938 9.12113 2.60359 7.24173 3.37099C5.36232 4.13839 3.84494 5.59157 2.99707 7.43607C2.1492 9.28057 2.03426 11.3784 2.67554 13.3045V13.3035ZM1.13754 14.8615L1.12754 14.8515L1.13154 14.8475C0.561468 13.5675 0.267744 12.1817 0.269539 10.7805C0.269539 5.25752 4.74654 0.780518 10.2695 0.780518C15.7925 0.780518 20.2695 5.25752 20.2695 10.7805C20.2695 16.3035 15.7925 20.7805 10.2695 20.7805C6.19954 20.7805 2.69954 18.3505 1.13754 14.8615Z" fill="#DD3935"/>
</svg>
