<svg width="23" height="21" viewBox="0 0 23 21" fill="none" xmlns="http://www.w3.org/2000/svg">
<path d="M5.79297 9.78052H13.793V11.7805H5.79297V14.7805L0.792969 10.7805L5.79297 6.78052V9.78052ZM4.79297 16.7805H7.50097C8.65565 17.7989 10.0797 18.4624 11.6021 18.6915C13.1245 18.9205 14.6807 18.7055 16.084 18.072C17.4872 17.4386 18.6779 16.4137 19.513 15.1203C20.3482 13.827 20.7925 12.3201 20.7925 10.7805C20.7925 9.24094 20.3482 7.73406 19.513 6.44071C18.6779 5.14735 17.4872 4.12246 16.084 3.48902C14.6807 2.85558 13.1245 2.64049 11.6021 2.86958C10.0797 3.09866 8.65565 3.76218 7.50097 4.78052H4.79297C5.72363 3.5377 6.9313 2.52903 8.32004 1.83466C9.70878 1.14029 11.2403 0.779354 12.793 0.78052C18.316 0.78052 22.793 5.25752 22.793 10.7805C22.793 16.3035 18.316 20.7805 12.793 20.7805C11.2403 20.7817 9.70878 20.4207 8.32004 19.7264C6.9313 19.032 5.72363 18.0233 4.79297 16.7805Z" fill="#DD3935"/>
</svg>
