<svg width="21" height="23" viewBox="0 0 21 23" fill="none" xmlns="http://www.w3.org/2000/svg">
<path d="M20.5312 18.7805H0.53125V16.7805H1.53125V9.81152C1.53125 4.82352 5.56125 0.780518 10.5312 0.780518C15.5012 0.780518 19.5312 4.82352 19.5312 9.81152V16.7805H20.5312V18.7805ZM3.53125 16.7805H17.5312V9.81152C17.5312 5.92852 14.3973 2.78052 10.5312 2.78052C6.66525 2.78052 3.53125 5.92852 3.53125 9.81152V16.7805ZM8.03125 19.7805H13.0312C13.0312 20.4436 12.7679 21.0794 12.299 21.5483C11.8302 22.0171 11.1943 22.2805 10.5312 22.2805C9.86821 22.2805 9.23232 22.0171 8.76348 21.5483C8.29464 21.0794 8.03125 20.4436 8.03125 19.7805Z" fill="#DD3935"/>
</svg>
