<svg width="21" height="21" viewBox="0 0 21 21" fill="none" xmlns="http://www.w3.org/2000/svg">
<path d="M17.5117 20.6969H3.51172C2.71607 20.6969 1.95301 20.3808 1.3904 19.8182C0.827789 19.2556 0.511719 18.4925 0.511719 17.6969V1.6969C0.511719 1.43168 0.617076 1.17733 0.804612 0.989793C0.992148 0.802256 1.2465 0.696899 1.51172 0.696899H15.5117C15.7769 0.696899 16.0313 0.802256 16.2188 0.989793C16.4064 1.17733 16.5117 1.43168 16.5117 1.6969V13.6969H20.5117V17.6969C20.5117 18.4925 20.1956 19.2556 19.633 19.8182C19.0704 20.3808 18.3074 20.6969 17.5117 20.6969ZM16.5117 15.6969V17.6969C16.5117 17.9621 16.6171 18.2165 16.8046 18.404C16.9921 18.5915 17.2465 18.6969 17.5117 18.6969C17.7769 18.6969 18.0313 18.5915 18.2188 18.404C18.4064 18.2165 18.5117 17.9621 18.5117 17.6969V15.6969H16.5117ZM14.5117 18.6969V2.6969H2.51172V17.6969C2.51172 17.9621 2.61708 18.2165 2.80461 18.404C2.99215 18.5915 3.2465 18.6969 3.51172 18.6969H14.5117ZM4.51172 5.6969H12.5117V7.6969H4.51172V5.6969ZM4.51172 9.6969H12.5117V11.6969H4.51172V9.6969ZM4.51172 13.6969H9.51172V15.6969H4.51172V13.6969Z" fill="#DD3935"/>
</svg>
