<svg width="17" height="22" viewBox="0 0 17 22" fill="none" xmlns="http://www.w3.org/2000/svg">
<path d="M16.5977 21.073H14.5977V19.073C14.5977 18.2773 14.2816 17.5143 13.719 16.9517C13.1564 16.3891 12.3933 16.073 11.5977 16.073H5.59766C4.80201 16.073 4.03895 16.3891 3.47634 16.9517C2.91373 17.5143 2.59766 18.2773 2.59766 19.073V21.073H0.597656V19.073C0.597656 17.7469 1.12444 16.4751 2.06212 15.5375C2.9998 14.5998 4.27157 14.073 5.59766 14.073H11.5977C12.9237 14.073 14.1955 14.5998 15.1332 15.5375C16.0709 16.4751 16.5977 17.7469 16.5977 19.073V21.073ZM8.59766 12.073C7.80972 12.073 7.02951 11.9178 6.30156 11.6163C5.5736 11.3147 4.91217 10.8728 4.35502 10.3156C3.79786 9.75849 3.35591 9.09705 3.05438 8.3691C2.75285 7.64115 2.59766 6.86093 2.59766 6.073C2.59766 5.28507 2.75285 4.50485 3.05438 3.7769C3.35591 3.04894 3.79786 2.38751 4.35502 1.83036C4.91217 1.27321 5.5736 0.831249 6.30156 0.529721C7.02951 0.228193 7.80972 0.072998 8.59766 0.072998C10.189 0.0729981 11.7151 0.705139 12.8403 1.83036C13.9655 2.95558 14.5977 4.4817 14.5977 6.073C14.5977 7.6643 13.9655 9.19042 12.8403 10.3156C11.7151 11.4409 10.189 12.073 8.59766 12.073ZM8.59766 10.073C9.65852 10.073 10.6759 9.65157 11.4261 8.90143C12.1762 8.15128 12.5977 7.13386 12.5977 6.073C12.5977 5.01213 12.1762 3.99472 11.4261 3.24457C10.6759 2.49443 9.65852 2.073 8.59766 2.073C7.53679 2.073 6.51937 2.49443 5.76923 3.24457C5.01908 3.99472 4.59766 5.01213 4.59766 6.073C4.59766 7.13386 5.01908 8.15128 5.76923 8.90143C6.51937 9.65157 7.53679 10.073 8.59766 10.073Z" fill="#DD3935"/>
</svg>
