<svg width="21" height="21" viewBox="0 0 21 21" fill="none" xmlns="http://www.w3.org/2000/svg">
<path d="M12.7695 0.780521C13.3602 0.780319 13.9413 0.929597 14.4587 1.21445C14.9761 1.49931 15.413 1.91047 15.7287 2.40965C16.0445 2.90884 16.2287 3.4798 16.2644 4.06938C16.3 4.65895 16.1858 5.24795 15.9325 5.78152L19.2695 5.78052C19.5347 5.78052 19.7891 5.88588 19.9766 6.07341C20.1642 6.26095 20.2695 6.51531 20.2695 6.78052V10.7805C20.2695 11.0457 20.1642 11.3001 19.9766 11.4876C19.7891 11.6752 19.5347 11.7805 19.2695 11.7805H18.2695V19.7805C18.2695 20.0457 18.1642 20.3001 17.9766 20.4876C17.7891 20.6752 17.5347 20.7805 17.2695 20.7805H3.26953C3.00431 20.7805 2.74996 20.6752 2.56242 20.4876C2.37489 20.3001 2.26953 20.0457 2.26953 19.7805V11.7805H1.26953C1.00431 11.7805 0.749961 11.6752 0.562424 11.4876C0.374888 11.3001 0.269531 11.0457 0.269531 10.7805V6.78052C0.269531 6.51531 0.374888 6.26095 0.562424 6.07341C0.749961 5.88588 1.00431 5.78052 1.26953 5.78052L4.60653 5.78152C4.25029 5.03319 4.17116 4.18273 4.38323 3.38152C4.59531 2.58032 5.08482 1.88037 5.76463 1.40627C6.44444 0.932183 7.27043 0.714717 8.09556 0.792589C8.9207 0.870461 9.69142 1.23862 10.2705 1.83152C10.5956 1.49805 10.9842 1.2332 11.4135 1.05267C11.8427 0.872136 12.3039 0.779594 12.7695 0.780521ZM16.2695 11.7805H4.26953V18.7805H16.2695V11.7805ZM18.2695 7.78052H2.26953V9.78052H18.2695V7.78052ZM7.76953 2.78052C7.38431 2.78071 7.01394 2.9291 6.73514 3.19493C6.45635 3.46076 6.29052 3.82366 6.27201 4.20844C6.25349 4.59321 6.38372 4.97035 6.63571 5.26172C6.88769 5.55309 7.24211 5.73635 7.62553 5.77352L7.76953 5.78052H9.26953V4.28052C9.26951 3.90764 9.13061 3.54813 8.87991 3.2721C8.62921 2.99607 8.28469 2.82332 7.91353 2.78752L7.76953 2.78052ZM12.7695 2.78052L12.6255 2.78752C12.2789 2.82073 11.9546 2.9735 11.7083 3.21963C11.462 3.46576 11.309 3.78992 11.2755 4.13652L11.2695 4.28052V5.78052H12.7695L12.9135 5.77352C13.2846 5.73755 13.6289 5.56472 13.8794 5.28871C14.13 5.0127 14.2688 4.65329 14.2688 4.28052C14.2688 3.90776 14.13 3.54834 13.8794 3.27233C13.6289 2.99632 13.2846 2.82349 12.9135 2.78752L12.7695 2.78052Z" fill="#DD3935"/>
</svg>
