<svg width="20" height="21" viewBox="0 0 20 21" fill="none" xmlns="http://www.w3.org/2000/svg">
<path d="M8.26953 0.780518L15.5675 3.06052C15.7711 3.12406 15.949 3.251 16.0753 3.42281C16.2016 3.59461 16.2696 3.80229 16.2695 4.01552V5.78052H18.2695C18.5347 5.78052 18.7891 5.88587 18.9766 6.07341C19.1642 6.26095 19.2695 6.5153 19.2695 6.78052V14.7805C19.2695 15.0457 19.1642 15.3001 18.9766 15.4876C18.7891 15.6752 18.5347 15.7805 18.2695 15.7805L15.0495 15.7815C14.6625 16.2915 14.1925 16.7415 13.6495 17.1115L8.26953 20.7805L2.88953 17.1125C2.08205 16.562 1.42128 15.8225 0.964671 14.9584C0.508059 14.0944 0.26943 13.1318 0.269531 12.1545V4.01552C0.269652 3.80246 0.337818 3.59501 0.464093 3.4234C0.590369 3.2518 0.768153 3.12501 0.971531 3.06152L8.26953 0.780518ZM8.26953 2.87452L2.26953 4.75052V12.1545C2.26939 12.7667 2.40978 13.3708 2.6799 13.9203C2.95001 14.4697 3.34264 14.9498 3.82753 15.3235L4.01653 15.4595L8.26953 18.3605L12.0515 15.7805H7.26953C7.00431 15.7805 6.74996 15.6752 6.56242 15.4876C6.37489 15.3001 6.26953 15.0457 6.26953 14.7805V6.78052C6.26953 6.5153 6.37489 6.26095 6.56242 6.07341C6.74996 5.88587 7.00431 5.78052 7.26953 5.78052H14.2695V4.75052L8.26953 2.87452ZM8.26953 10.7805V13.7805H17.2695V10.7805H8.26953ZM8.26953 8.78052H17.2695V7.78052H8.26953V8.78052Z" fill="#DD3935"/>
</svg>
