<svg width="19" height="23" viewBox="0 0 19 23" fill="none" xmlns="http://www.w3.org/2000/svg">
<path d="M9.11719 0.781738L17.3342 2.60774C17.7912 2.70974 18.1172 3.11474 18.1172 3.58374V13.5707C18.1172 15.5767 17.1142 17.4507 15.4452 18.5627L9.11719 22.7817L2.78919 18.5627C1.11919 17.4497 0.117188 15.5767 0.117188 13.5717V3.58374C0.117188 3.11474 0.443188 2.70974 0.900187 2.60774L9.11719 0.781738ZM9.11719 2.83074L2.11719 4.38574V13.5707C2.11719 14.9077 2.78519 16.1567 3.89819 16.8987L9.11719 20.3787L14.3362 16.8987C15.4492 16.1567 16.1172 14.9087 16.1172 13.5717V4.38574L9.11719 2.83174V2.83074ZM13.5692 8.00374L14.9842 9.41774L8.62019 15.7817L4.37719 11.5387L5.79119 10.1247L8.61919 12.9527L13.5692 8.00274V8.00374Z" fill="#DD3935"/>
</svg>
