<svg width="18" height="16" viewBox="0 0 18 16" fill="none" xmlns="http://www.w3.org/2000/svg">
<path d="M9.32912 1.44865C11.3336 -0.35103 14.4312 -0.291296 16.3623 1.64321C18.2925 3.57857 18.3591 6.66081 16.5637 8.67127L9.32741 15.9178L2.09285 8.67127C0.297433 6.66081 0.364847 3.57345 2.29423 1.64321C4.22704 -0.288736 7.31866 -0.35359 9.32912 1.44865ZM15.154 2.84897C13.874 1.56726 11.8089 1.51521 10.4692 2.71841L9.32997 3.74071L8.18992 2.71927C6.84592 1.51436 4.78512 1.56726 3.5017 2.85068C2.23023 4.12215 2.16623 6.15735 3.33786 7.5022L9.32826 13.502L15.3187 7.50306C16.4911 6.15735 16.4271 4.12471 15.154 2.84897Z" fill="#DF3835"/>
</svg>
