<svg width="17" height="18" viewBox="0 0 17 18" fill="none" xmlns="http://www.w3.org/2000/svg">
<path d="M12.7773 2.42192H16.1107C16.3317 2.42192 16.5437 2.50971 16.6999 2.66599C16.8562 2.82227 16.944 3.03424 16.944 3.25525V16.5886C16.944 16.8096 16.8562 17.0216 16.6999 17.1778C16.5437 17.3341 16.3317 17.4219 16.1107 17.4219H1.11068C0.889663 17.4219 0.677702 17.3341 0.521421 17.1778C0.365141 17.0216 0.277344 16.8096 0.277344 16.5886V3.25525C0.277344 3.03424 0.365141 2.82227 0.521421 2.66599C0.677702 2.50971 0.889663 2.42192 1.11068 2.42192H4.44401V0.755249H6.11068V2.42192H11.1107V0.755249H12.7773V2.42192ZM11.1107 4.08858H6.11068V5.75525H4.44401V4.08858H1.94401V7.42192H15.2773V4.08858H12.7773V5.75525H11.1107V4.08858ZM15.2773 9.08858H1.94401V15.7552H15.2773V9.08858ZM3.61068 11.5886H5.27734V13.2552H3.61068V11.5886ZM6.94401 11.5886H13.6107V13.2552H6.94401V11.5886Z" fill="#616161"/>
</svg>
