<svg width="18" height="18" viewBox="0 0 18 18" fill="none" xmlns="http://www.w3.org/2000/svg">
<path d="M13.457 3.95363H17.6237V5.6203H15.957V16.4536C15.957 16.6746 15.8692 16.8866 15.713 17.0429C15.5567 17.1992 15.3447 17.287 15.1237 17.287H3.45703C3.23602 17.287 3.02406 17.1992 2.86778 17.0429C2.7115 16.8866 2.6237 16.6746 2.6237 16.4536V5.6203H0.957031V3.95363H5.1237V1.45363C5.1237 1.23262 5.2115 1.02066 5.36778 0.864378C5.52406 0.708098 5.73602 0.6203 5.95703 0.6203H12.6237C12.8447 0.6203 13.0567 0.708098 13.213 0.864378C13.3692 1.02066 13.457 1.23262 13.457 1.45363V3.95363ZM14.2904 5.6203H4.29036V15.6203H14.2904V5.6203ZM10.4687 10.6203L11.942 12.0936L10.7637 13.272L9.29036 11.7986L7.81703 13.272L6.6387 12.0936L8.11203 10.6203L6.6387 9.14697L7.81703 7.96863L9.29036 9.44197L10.7637 7.96863L11.942 9.14697L10.4687 10.6203ZM6.79036 2.28697V3.95363H11.7904V2.28697H6.79036Z" fill="#D7D7D7"/>
</svg>
