<svg width="18" height="17" viewBox="0 0 18 17" fill="none" xmlns="http://www.w3.org/2000/svg">
<path d="M9.23307 0.0851033C13.8356 0.0851037 17.5664 3.81594 17.5664 8.41844C17.5664 13.0209 13.8356 16.7518 9.23307 16.7518C4.63057 16.7518 0.899741 13.0209 0.899741 8.41844C0.899741 3.81594 4.63057 0.0851029 9.23307 0.0851033ZM9.23307 1.75177C7.46496 1.75177 5.76927 2.45415 4.51903 3.70439C3.26879 4.95463 2.56641 6.65033 2.56641 8.41844C2.56641 10.1865 3.26879 11.8822 4.51903 13.1325C5.76927 14.3827 7.46496 15.0851 9.23307 15.0851C11.0012 15.0851 12.6969 14.3827 13.9471 13.1325C15.1974 11.8822 15.8997 10.1865 15.8997 8.41844C15.8997 6.65033 15.1974 4.95463 13.9471 3.70439C12.6969 2.45415 11.0012 1.75177 9.23307 1.75177ZM10.0664 5.91844L8.39974 5.91844L8.39974 4.25177L10.0664 4.25177L10.0664 5.91844ZM10.0664 12.5851L8.39974 12.5851L8.39974 7.5851L10.0664 7.5851L10.0664 12.5851Z" fill="#B0B0B0"/>
</svg>
