<svg width="22" height="22" viewBox="0 0 22 22" fill="none" xmlns="http://www.w3.org/2000/svg">
<path d="M16.599 15.0062L21.8116 20.3388L20.4287 21.7538L15.2171 16.4202C13.66 17.6974 11.7232 18.3921 9.72749 18.3892C4.87218 18.3892 0.931641 14.3572 0.931641 9.38922C0.931641 4.42122 4.87218 0.389221 9.72749 0.389221C14.5828 0.389221 18.5233 4.42122 18.5233 9.38922C18.5262 11.4312 17.8473 13.413 16.599 15.0062ZM14.6385 14.2642C15.8788 12.9591 16.5715 11.2097 16.5687 9.38922C16.5687 5.52122 13.5068 2.38922 9.72749 2.38922C5.94723 2.38922 2.88627 5.52122 2.88627 9.38922C2.88627 13.2562 5.94723 16.3892 9.72749 16.3892C11.5066 16.3921 13.2164 15.6833 14.4919 14.4142L14.6385 14.2642Z" fill="#888888"/>
</svg>
